{
.appVersion = "1172";
DisplayStrings = (
"¦",
"/macroncomb"
);
copyright = "Copyright 2018 The Kreon Project Authors (https://github.com/googlefonts/kreon)";
customParameters = (
{
name = license;
value = "This Font Software is licensed under the SIL Open Font License, Version 1.1. This license is available with a FAQ at: http://scripts.sil.org/OFL";
},
{
name = licenseURL;
value = "http://scripts.sil.org/OFL";
},
{
name = trademark;
value = "Kreon Light is a trademark of Julia Petretta.";
},
{
name = fsType;
value = (
);
},
{
name = Axes;
value = (
{
Name = Weight;
Tag = wght;
}
);
},
{
name = "Use Typo Metrics";
value = 1;
},
{
name = "Disable Last Change";
value = 1;
},
{
name = "Use Line Breaks";
value = 1;
},
{
name = vendorID;
value = PYRS;
}
);
date = "2018-08-06 00:06:39 +0000";
designer = "Julia Petretta";
designerURL = "https://juliapetretta.net";
disablesNiceNames = 1;
familyName = Kreon;
features = (
{
code = " # Kerning
@_KERN_A = [A Aacute Acircumflex Adieresis Agrave Aring Atilde];
@_KERN_C_1ST = [C Ccedilla];
@_KERN_C_2ND = [C Ccedilla G];
@_KERN_D_1ST = [D Eth];
@_KERN_E_1ST = [E AE Eacute Ecircumflex Edieresis Egrave OE];
@_KERN_E_2ND = [E D Eacute Ecircumflex Edieresis Egrave Eth F];
@_KERN_H_1ST = [H M];
@_KERN_H_2ND = [H B M N Ntilde P R];
@_KERN_I_1ST = [I Iacute Icircumflex Idieresis Igrave];
@_KERN_I_2ND = [I Iacute Icircumflex Idieresis Igrave K Thorn];
@_KERN_N_1ST = [N Ntilde];
@_KERN_O_1ST = [O Oacute Ocircumflex Odieresis Ograve Oslash Otilde Q];
@_KERN_O_2ND = [O OE Oacute Ocircumflex Odieresis Ograve Oslash Otilde Q];
@_KERN_U = [U Uacute Ucircumflex Udieresis Ugrave];
@_KERN_Y = [Y Yacute];
@_KERN_a_1ST = [a aacute acircumflex adieresis agrave aring atilde];
@_KERN_a_2ND = [a aacute acircumflex adieresis ae agrave aring atilde];
@_KERN_b_1ST = [b p thorn];
@_KERN_c_1ST = [c ccedilla];
@_KERN_d_2ND = [d q];
@_KERN_e_1ST = [e ae eacute ecircumflex edieresis egrave oe];
@_KERN_h_2ND = [h k];
@_KERN_hyphen = [hyphen emdash endash];

glyphs = (
{
color = 10;
glyphname = A;
layers = (
{
anchors = (
{
name = bottom;
position = "{281, 0}";
},
{
name = ogonek;
position = "{499, 0}";
},
{
name = top;
position = "{283, 691}";
}
);
layerId = "CBC04B6C-E875-491C-A1C2-2B8D0972DDA1";
paths = (
{
closed = 1;
nodes = (
"205 0 LINE",
"205 45 LINE",
"117 62 LINE",
"169 241 LINE",
"392 241 LINE",
"445 65 LINE",
"364 44 LINE",
"364 0 LINE {name = hr00;}",
"555 0 LINE",
"566 47 LINE",
"519 65 LINE",
"327 691 LINE",
"243 691 LINE",
"52 65 LINE",
"-2 47 LINE",
"11 0 LINE"
);
},
{
closed = 1;
nodes = (
"279 616 LINE",
"373 304 LINE",
"188 304 LINE"
);
}
);
width = 570;
},
{
anchors = (
{
name = bottom;
position = "{295, 0}";
},
{
name = ogonek;
position = "{535, 0}";
},
{
name = top;
position = "{310, 691}";
}
);
layerId = "682D4A5D-117B-492A-B436-118C610C28E8";
paths = (
{
closed = 1;
nodes = (
"247 0 LINE",
"247 76 LINE",
"159 92 LINE",
"197 218 LINE",
"393 218 LINE",
"429 96 LINE",
"349 75 LINE",
"349 0 LINE",
"609 0 LINE {name = hr00;}",
"619 78 LINE",
"573 96 LINE",
"372 691 LINE",
"248 691 LINE",
"50 96 LINE",
"-5 78 LINE",
"8 0 LINE"
);
},
{
closed = 1;
nodes = (
"296 549 LINE",
"349 323 LINE",
"228 323 LINE"
);
}
);
width = 621;
}
);
leftKerningGroup = A;
rightKerningGroup = A;
unicode = 0041;
userData = {
com.typemytype.robofont.mark = (
0.713,
0.6,
1,
1
);
};
},
{
color = 10;
glyphname = AE;
layers = (
{
layerId = "CBC04B6C-E875-491C-A1C2-2B8D0972DDA1";
paths = (
{
closed = 1;
nodes = (
"193 0 LINE",
"193 45 LINE",
"107 62 LINE",
"196 298 LINE",
"331 298 LINE",
"331 68 LINE",
"283 56 LINE",
"291 0 LINE",
"661 0 LINE",
"680 171 LINE",
"633 171 LINE",
"598 68 LINE",
"399 68 LINE",
"399 301 LINE",
"541 301 LINE",
"541 364 LINE",
"399 364 LINE",
"399 623 LINE",
"588 623 LINE",
"622 520 LINE",
"670 520 LINE",
"650 691 LINE",
"278 691 LINE",
"41 65 LINE",
"-12 47 LINE",
"1 0 LINE {name = hr00;}"
);
},
{
closed = 1;
nodes = (
"320 628 LINE",
"331 627 LINE",
"331 361 LINE",
"219 361 LINE"
);
}
);
width = 720;
},
{
layerId = "682D4A5D-117B-492A-B436-118C610C28E8";
paths = (
{
closed = 1;
nodes = (
"240 0 LINE {name = hr00;}",
"240 76 LINE",
"152 92 LINE",
"215 260 LINE",
"353 260 LINE",
"353 101 LINE",
"298 88 LINE",
"313 0 LINE",
"747 0 LINE",
"768 204 LINE {name = hr01;}",
"690 204 LINE",
"653 105 LINE {name = hr02;}",
"484 105 LINE",
"484 303 LINE",
"636 303 LINE",
"636 408 LINE",
"484 408 LINE",
"484 586 LINE",
"646 586 LINE",
"686 487 LINE {name = hr03;}",
"765 487 LINE",
"745 691 LINE",
"266 691 LINE",
"41 96 LINE",
"-12 78 LINE",
"1 0 LINE"
);
},
{
closed = 1;
nodes = (
"342 596 LINE",
"353 595 LINE",
"353 365 LINE",
"255 365 LINE"
);
}
);
width = 803;
}
);
rightKerningGroup = E;
unicode = 00C6;
userData = {
com.typemytype.robofont.mark = (
0.713,
0.6,
1,
1
);
};
},
{
color = 10;
glyphname = B;
layers = (
{
layerId = "CBC04B6C-E875-491C-A1C2-2B8D0972DDA1";
paths = (
{
closed = 1;
nodes = (
"289 0 LINE SMOOTH",
"421 0 OFFCURVE",
"510 61 OFFCURVE",
"510 187 CURVE SMOOTH",
"510 292 OFFCURVE",
"446 330 OFFCURVE",
"392 354 CURVE",
"432 375 OFFCURVE",
"480 418 OFFCURVE",
"480 510 CURVE SMOOTH {name = hr02;}",
"480 612 OFFCURVE",
"405 691 OFFCURVE",
"263 691 CURVE SMOOTH",
"55 691 LINE",
"55 632 LINE",
"112 627 LINE",
"112 68 LINE",
"55 56 LINE",
"62 0 LINE"
);
},
{
closed = 1;
nodes = (
"181 314 LINE {name = hr00;}",
"293 314 LINE SMOOTH",
"378 314 OFFCURVE",
"439 263 OFFCURVE",
"439 195 CURVE SMOOTH {name = hr01;}",
"439 132 OFFCURVE",
"409 68 OFFCURVE",
"309 68 CURVE SMOOTH",
"181 68 LINE"
);
},
{
closed = 1;
nodes = (
"181 623 LINE",
"261 623 LINE SMOOTH",
"369 623 OFFCURVE",
"409 569 OFFCURVE",
"409 505 CURVE SMOOTH",
"409 441 OFFCURVE",
"369 377 OFFCURVE",
"276 377 CURVE SMOOTH",
"181 377 LINE"
);
}
);
width = 557;
},
{
layerId = "682D4A5D-117B-492A-B436-118C610C28E8";
paths = (
{
closed = 1;
nodes = (
"342 0 LINE SMOOTH {name = hr00;}",
"474 0 OFFCURVE",
"564 61 OFFCURVE",
"564 187 CURVE SMOOTH",
"564 281 OFFCURVE",
"509 332 OFFCURVE",
"424 354 CURVE",
"466 364 OFFCURVE",
"536 417 OFFCURVE",
"536 510 CURVE SMOOTH {name = hr01;}",
"536 612 OFFCURVE",
"453 691 OFFCURVE",
"312 691 CURVE SMOOTH",
"35 691 LINE",
"35 601 LINE",
"105 594 LINE",
"105 100 LINE",
"41 85 LINE",
"55 0 LINE"
);
},
{
closed = 1;
nodes = (
"236 296 LINE",
"294 296 LINE SMOOTH",
"379 296 OFFCURVE",
"427 265 OFFCURVE",
"427 199 CURVE SMOOTH",
"427 127 OFFCURVE",
"374 105 OFFCURVE",
"310 105 CURVE SMOOTH",
"236 105 LINE"
);
},
{
closed = 1;
nodes = (
"236 586 LINE",
"281 586 LINE SMOOTH",
"343 586 OFFCURVE",
"399 561 OFFCURVE",
"399 495 CURVE SMOOTH {name = hr02;}",
"399 440 OFFCURVE",
"364 401 OFFCURVE",
"295 401 CURVE SMOOTH",
"236 401 LINE"
);
}
);
width = 596;
}
);
leftKerningGroup = H;
unicode = 0042;
userData = {
com.typemytype.robofont.mark = (
0.713,
0.6,
1,
1
);
};
},
{
color = 10;
glyphname = C;
layers = (
{
anchors = (
{
name = bottom;
position = "{333, 10}";
},
{
name = top;
position = "{337, 691}";
}
);
layerId = "CBC04B6C-E875-491C-A1C2-2B8D0972DDA1";
paths = (
{
closed = 1;
nodes = (
"428 -4 OFFCURVE",
"491 14 OFFCURVE",
"525 38 CURVE",
"500 99 LINE",
"467 78 OFFCURVE",
"417 64 OFFCURVE",
"372 64 CURVE SMOOTH",
"207 64 OFFCURVE",
"113 192 OFFCURVE",
"111 348 CURVE {name = hr00;}",
"115 491 OFFCURVE",
"210 623 OFFCURVE",
"377 623 CURVE SMOOTH",
"410 623 OFFCURVE",
"419 619 OFFCURVE",
"429 618 CURVE",
"453 520 LINE",
"510 520 LINE",
"492 678 LINE",
"454 686 OFFCURVE",
"417 691 OFFCURVE",
"375 691 CURVE SMOOTH",
"176 691 OFFCURVE",
"40 534 OFFCURVE",
"40 346 CURVE SMOOTH",
"40 145 OFFCURVE",
"171 -4 OFFCURVE",
"373 -4 CURVE SMOOTH"
);
}
);
width = 556;
},
{
anchors = (
{
name = bottom;
position = "{366, 0}";
},
{
name = top;
position = "{330, 693}";
}
);
layerId = "682D4A5D-117B-492A-B436-118C610C28E8";
paths = (
{
closed = 1;
nodes = (
"445 -4 OFFCURVE",
"528 28 OFFCURVE",
"564 71 CURVE",
"522 160 LINE",
"484 121 OFFCURVE",
"424 101 OFFCURVE",
"370 101 CURVE SMOOTH",
"246 101 OFFCURVE",
"164 204 OFFCURVE",
"162 348 CURVE {name = hr00;}",
"165 495 OFFCURVE",
"257 586 OFFCURVE",
"368 586 CURVE SMOOTH",
"389 586 OFFCURVE",
"398 585 OFFCURVE",
"407 584 CURVE",
"466 460 LINE {name = hr01;}",
"547 460 LINE",
"527 667 LINE",
"505 674 OFFCURVE",
"447 691 OFFCURVE",
"358 691 CURVE SMOOTH",
"194 691 OFFCURVE",
"28 568 OFFCURVE",
"28 334 CURVE SMOOTH",
"28 109 OFFCURVE",
"185 -4 OFFCURVE",
"365 -4 CURVE SMOOTH"
);
}
);
width = 587;
}
);
leftKerningGroup = C;
rightKerningGroup = C;
unicode = 0043;
userData = {
com.typemytype.robofont.mark = (
0.713,
0.6,
1,
1
);
};
},
{
color = 10;
glyphname = Ccedilla;
layers = (
{
components = (
{
name = C;
},
{
name = cedillacomb;
transform = "{1, 0, 0, 1, 81, 10}";
}
);
layerId = "CBC04B6C-E875-491C-A1C2-2B8D0972DDA1";
width = 556;
},
{
components = (
{
name = C;
},
{
name = cedillacomb;
transform = "{1, 0, 0, 1, 246, -1}";
}
);
layerId = "682D4A5D-117B-492A-B436-118C610C28E8";
width = 587;
},
{
associatedMasterId = "CBC04B6C-E875-491C-A1C2-2B8D0972DDA1";
layerId = "1E2D1E90-FB09-42EE-A37E-FDFE2D5F9F5F";
name = "Jul 26 18, 21:22";
paths = (
{
closed = 1;
nodes = (
"278 -74 LINE",
"306 2 LINE",
"144 32 OFFCURVE",
"42 168 OFFCURVE",
"42 346 CURVE SMOOTH",
"42 534 OFFCURVE",
"178 691 OFFCURVE",
"377 691 CURVE SMOOTH",
"419 691 OFFCURVE",
"456 686 OFFCURVE",
"494 678 CURVE",
"512 520 LINE",
"455 520 LINE",
"431 618 LINE",
"421 619 OFFCURVE",
"412 623 OFFCURVE",
"379 623 CURVE SMOOTH",
"212 623 OFFCURVE",
"113 491 OFFCURVE",
"113 348 CURVE SMOOTH {name = hr01;}",
"113 191 OFFCURVE",
"210 64 OFFCURVE",
"374 64 CURVE SMOOTH {name = hr02;}",
"419 64 OFFCURVE",
"469 78 OFFCURVE",
"502 99 CURVE",
"527 38 LINE",
"493 14 OFFCURVE",
"430 -4 OFFCURVE",
"375 -4 CURVE SMOOTH",
"371 -4 OFFCURVE",
"367 -3 OFFCURVE",
"363 -3 CURVE",
"351 -41 LINE",
"395 -45 OFFCURVE",
"443 -75 OFFCURVE",
"443 -136 CURVE SMOOTH",
"443 -194 OFFCURVE",
"403 -236 OFFCURVE",
"321 -236 CURVE SMOOTH",
"284 -236 OFFCURVE",
"258 -226 OFFCURVE",
"233 -216 CURVE",
"232 -216 OFFCURVE",
"231 -215 OFFCURVE",
"230 -215 CURVE",
"221 -212 LINE",
"258 -141 LINE",
"323 -181 LINE",
"355 -181 OFFCURVE",
"378 -164 OFFCURVE",
"378 -137 CURVE SMOOTH",
"378 -116 OFFCURVE",
"358 -90 OFFCURVE",
"301 -90 CURVE SMOOTH {name = hr03;}",
"293 -90 LINE {name = hr00;}"
);
}
);
visible = 1;
width = 559;
},
{
associatedMasterId = "682D4A5D-117B-492A-B436-118C610C28E8";
layerId = "E41AD86B-8E22-4393-ABF4-B0F307027D2E";
name = "Jul 26 18, 21:22";
paths = (
{
closed = 1;
nodes = (
"309 -102 LINE",
"366 -102 OFFCURVE",
"387 -129 OFFCURVE",
"387 -159 CURVE SMOOTH",
"387 -197 OFFCURVE",
"344 -210 OFFCURVE",
"324 -210 CURVE",
"252 -162 LINE",
"202 -259 LINE",
"235 -271 OFFCURVE",
"275 -286 OFFCURVE",
"330 -286 CURVE SMOOTH",
"434 -286 OFFCURVE",
"495 -224 OFFCURVE",
"495 -156 CURVE SMOOTH",
"495 -83 OFFCURVE",
"444 -52 OFFCURVE",
"391 -41 CURVE",
"403 -2 LINE",
"471 6 OFFCURVE",
"535 34 OFFCURVE",
"566 71 CURVE",
"524 160 LINE",
"486 121 OFFCURVE",
"426 101 OFFCURVE",
"372 101 CURVE SMOOTH",
"248 101 OFFCURVE",
"166 204 OFFCURVE",
"166 348 CURVE",
"167 495 OFFCURVE",
"259 586 OFFCURVE",
"370 586 CURVE SMOOTH",
"391 586 OFFCURVE",
"400 585 OFFCURVE",
"409 584 CURVE",
"413 584 OFFCURVE",
"413 583 OFFCURVE",
"468 460 CURVE {name = hr01;}",
"549 460 LINE",
"529 667 LINE",
"507 674 OFFCURVE",
"449 691 OFFCURVE",
"360 691 CURVE SMOOTH",
"196 691 OFFCURVE",
"30 568 OFFCURVE",
"30 334 CURVE SMOOTH",
"30 137 OFFCURVE",
"150 26 OFFCURVE",
"301 1 CURVE",
"272 -82 LINE",
"296 -101 LINE {name = hr00;}"
);
}
);
visible = 1;
width = 589;
}
);
leftKerningGroup = C;
rightKerningGroup = C;
unicode = 00C7;
userData = {
com.typemytype.robofont.mark = (
0.713,
0.6,
1,
1
);
};
},
{
color = 10;
glyphname = D;
layers = (
{
anchors = (
{
name = bar;
position = "{197, 357}";
},
{
name = bottom;
position = "{302, 0}";
},
{
name = top;
position = "{283, 691}";
}
);
layerId = "CBC04B6C-E875-491C-A1C2-2B8D0972DDA1";
paths = (
{
closed = 1;
nodes = (
"211 0 LINE SMOOTH",
"424 0 OFFCURVE",
"561 112 OFFCURVE",
"561 349 CURVE SMOOTH",
"561 582 OFFCURVE",
"404 691 OFFCURVE",
"198 691 CURVE SMOOTH",
"55 691 LINE",
"55 632 LINE",
"112 627 LINE",
"112 69 LINE",
"55 56 LINE {name = hr00;}",
"62 0 LINE"
);
},
{
closed = 1;
nodes = (
"181 68 LINE",
"181 623 LINE",
"208 623 LINE SMOOTH",
"387 623 OFFCURVE",
"490 511 OFFCURVE",
"490 348 CURVE SMOOTH",
"490 211 OFFCURVE",
"435 67 OFFCURVE",
"225 67 CURVE"
);
}
);
width = 605;
},
{
anchors = (
{
name = bar;
position = "{208, 360}";
},
{
name = bottom;
position = "{311, 0}";
},
{
name = top;
position = "{296, 691}";
}
);
layerId = "682D4A5D-117B-492A-B436-118C610C28E8";
paths = (
{
closed = 1;
nodes = (
"262 0 LINE SMOOTH",
"489 0 OFFCURVE",
"606 129 OFFCURVE",
"606 354 CURVE SMOOTH",
"606 579 OFFCURVE",
"462 691 OFFCURVE",
"219 691 CURVE SMOOTH",
"41 691 LINE",
"41 603 LINE",
"104 595 LINE",
"104 101 LINE",
"39 88 LINE",
"53 0 LINE {name = hr00;}"
);
},
{
closed = 1;
nodes = (
"235 105 LINE",
"235 586 LINE",
"240 586 LINE SMOOTH",
"388 584 OFFCURVE",
"469 507 OFFCURVE",
"469 351 CURVE SMOOTH",
"469 190 OFFCURVE",
"394 104 OFFCURVE",
"254 104 CURVE"
);
}
);
width = 637;
}
);
leftKerningGroup = E;
rightKerningGroup = D;
unicode = 0044;
userData = {
com.typemytype.robofont.mark = (
0.713,
0.6,
1,
1
);
};
},
{
color = 10;
glyphname = Eth;
layers = (
{
components = (
{
name = D;
},
{
name = _bar;
transform = "{1, 0, 0, 1, 197, -124}";
}
);
layerId = "CBC04B6C-E875-491C-A1C2-2B8D0972DDA1";
width = 605;
},
{
components = (
{
name = D;
},
{
name = _bar;
transform = "{1, 0, 0, 1, 208, -131}";
}
);
layerId = "682D4A5D-117B-492A-B436-118C610C28E8";
width = 637;
},
{
associatedMasterId = "682D4A5D-117B-492A-B436-118C610C28E8";
layerId = "2CEED1C0-F2E2-4735-931F-75CBA6C7FA69";
name = "Jul 26 18, 22:24";
paths = (
{
closed = 1;
nodes = (
"265 0 LINE SMOOTH",
"491 0 OFFCURVE",
"608 129 OFFCURVE",
"608 354 CURVE SMOOTH",
"608 579 OFFCURVE",
"464 691 OFFCURVE",
"222 691 CURVE SMOOTH",
"43 691 LINE",
"43 603 LINE",
"106 595 LINE",
"106 403 LINE",
"28 403 LINE",
"14 391 LINE",
"14 309 LINE",
"106 309 LINE",
"106 101 LINE",
"41 88 LINE",
"48 0 LINE {name = hr00;}"
);
},
{
closed = 1;
nodes = (
"369 396 LINE SMOOTH",
"369 401 OFFCURVE",
"367 403 OFFCURVE",
"362 403 CURVE SMOOTH",
"237 403 LINE",
"237 586 LINE",
"389 586 OFFCURVE",
"472 509 OFFCURVE",
"472 351 CURVE SMOOTH",
"472 190 OFFCURVE",
"397 104 OFFCURVE",
"256 104 CURVE SMOOTH",
"250 104 OFFCURVE",
"243 105 OFFCURVE",
"237 105 CURVE",
"237 309 LINE",
"369 309 LINE"
);
}
);
width = 639;
},
{
associatedMasterId = "CBC04B6C-E875-491C-A1C2-2B8D0972DDA1";
layerId = "BAB7228A-1076-42D0-A1DB-71771F69236E";
name = "Jul 26 18, 22:24";
paths = (
{
closed = 1;
nodes = (
"113 69 LINE",
"113 314 LINE",
"23 314 LINE",
"23 369 LINE",
"30 377 LINE",
"113 377 LINE",
"113 627 LINE",
"56 632 LINE",
"56 691 LINE",
"199 691 LINE SMOOTH",
"405 691 OFFCURVE",
"562 582 OFFCURVE",
"562 349 CURVE SMOOTH",
"562 112 OFFCURVE",
"425 0 OFFCURVE",
"212 0 CURVE SMOOTH",
"63 0 LINE",
"56 56 LINE {name = hr00;}"
);
},
{
closed = 1;
nodes = (
"491 511 OFFCURVE",
"388 623 OFFCURVE",
"209 623 CURVE SMOOTH",
"182 623 LINE",
"182 377 LINE",
"350 377 LINE SMOOTH",
"355 377 OFFCURVE",
"357 374 OFFCURVE",
"357 370 CURVE SMOOTH",
"357 314 LINE",
"182 314 LINE",
"182 68 LINE",
"226 68 LINE SMOOTH",
"436 68 OFFCURVE",
"491 211 OFFCURVE",
"491 348 CURVE SMOOTH"
);
}
);
width = 606;
}
);
leftKerningGroup = E;
rightKerningGroup = D;
unicode = 00D0;
userData = {
com.typemytype.robofont.mark = (
0.713,
0.6,
1,
1
);
};
},
{
color = 10;
glyphname = E;
layers = (
{
anchors = (
{
name = bottom;
position = "{264, 0}";
},
{
name = ogonek;
position = "{412, 0}";
},
{
name = top;
position = "{250, 700}";
}
);
layerId = "CBC04B6C-E875-491C-A1C2-2B8D0972DDA1";
paths = (
{
closed = 1;
nodes = (
"464 0 LINE",
"483 171 LINE",
"436 171 LINE",
"401 68 LINE {name = hr02;}",
"181 68 LINE",
"181 314 LINE {name = hr01;}",
"343 314 LINE",
"343 377 LINE",
"181 377 LINE",
"181 623 LINE",
"391 623 LINE",
"425 520 LINE",
"473 520 LINE",
"453 691 LINE",
"55 691 LINE",
"55 632 LINE {name = hr00;}",
"112 627 LINE",
"112 68 LINE",
"55 56 LINE",
"62 0 LINE"
);
}
);
width = 523;
},
{
anchors = (
{
name = bottom;
position = "{280, 0}";
},
{
name = ogonek;
position = "{403, 10}";
},
{
name = top;
position = "{274, 691}";
}
);
layerId = "682D4A5D-117B-492A-B436-118C610C28E8";
paths = (
{
closed = 1;
nodes = (
"499 0 LINE",
"520 204 LINE {name = hr01;}",
"441 204 LINE",
"404 105 LINE {name = hr02;}",
"235 105 LINE",
"235 303 LINE",
"387 303 LINE",
"387 408 LINE",
"235 408 LINE",
"235 586 LINE",
"397 586 LINE",
"438 487 LINE {name = hr03;}",
"516 487 LINE",
"497 691 LINE",
"41 691 LINE {name = hr00;}",
"41 602 LINE",
"104 595 LINE",
"104 101 LINE",
"39 88 LINE",
"53 0 LINE"
);
}
);
width = 555;
}
);
leftKerningGroup = E;
rightKerningGroup = E;
unicode = 0045;
userData = {
com.typemytype.robofont.mark = (
0.713,
0.6,
1,
1
);
};
},
{
color = 10;
glyphname = F;
layers = (
{
layerId = "CBC04B6C-E875-491C-A1C2-2B8D0972DDA1";
paths = (
{
closed = 1;
nodes = (
"328 0 LINE {name = hr00;}",
"333 51 LINE",
"181 72 LINE",
"181 314 LINE",
"343 314 LINE",
"343 377 LINE",
"181 377 LINE",
"181 624 LINE",
"391 624 LINE",
"426 520 LINE",
"474 520 LINE",
"453 691 LINE",
"55 691 LINE",
"55 632 LINE {name = hr02;}",
"112 627 LINE",
"112 68 LINE {name = hr01;}",
"55 56 LINE",
"61 0 LINE"
);
}
);
width = 492;
},
{
layerId = "682D4A5D-117B-492A-B436-118C610C28E8";
paths = (
{
closed = 1;
nodes = (
"398 0 LINE",
"405 79 LINE {name = hr00;}",
"235 105 LINE",
"235 303 LINE",
"387 303 LINE",
"387 408 LINE",
"235 408 LINE",
"235 586 LINE",
"397 586 LINE",
"440 486 LINE {name = hr01;}",
"516 486 LINE",
"497 691 LINE",
"41 691 LINE",
"41 602 LINE",
"104 595 LINE",
"104 101 LINE",
"39 88 LINE",
"53 0 LINE"
);
}
);
width = 528;
}
);
leftKerningGroup = E;
unicode = 0046;
userData = {
com.typemytype.robofont.mark = (
0.713,
0.6,
1,
1
);
};
},
{
color = 10;
glyphname = G;
layers = (
{
anchors = (
{
name = bottom;
position = "{383, 0}";
},
{
name = top;
position = "{356, 691}";
}
);
layerId = "CBC04B6C-E875-491C-A1C2-2B8D0972DDA1";
paths = (
{
closed = 1;
nodes = (
"440 -4 OFFCURVE",
"495 2 OFFCURVE",
"544 17 CURVE",
"544 313 LINE {name = hr00;}",
"370 313 LINE",
"352 252 LINE",
"475 238 LINE",
"475 71 LINE",
"451 66 OFFCURVE",
"417 64 OFFCURVE",
"392 64 CURVE SMOOTH",
"225 64 OFFCURVE",
"111 176 OFFCURVE",
"111 343 CURVE SMOOTH",
"111 498 OFFCURVE",
"207 622 OFFCURVE",
"381 623 CURVE",
"400 623 OFFCURVE",
"430 621 OFFCURVE",
"450 618 CURVE {name = hr01;}",
"473 519 LINE",
"536 519 LINE",
"525 673 LINE",
"482 684 OFFCURVE",
"435 691 OFFCURVE",
"386 691 CURVE SMOOTH",
"177 691 OFFCURVE",
"40 546 OFFCURVE",
"40 340 CURVE SMOOTH",
"40 138 OFFCURVE",
"185 -4 OFFCURVE",
"386 -4 CURVE SMOOTH"
);
}
);
width = 607;
},
{
anchors = (
{
name = bottom;
position = "{368, 0}";
},
{
name = top;
position = "{374, 691}";
}
);
layerId = "682D4A5D-117B-492A-B436-118C610C28E8";
paths = (
{
closed = 1;
nodes = (
"454 -4 OFFCURVE",
"536 4 OFFCURVE",
"572 9 CURVE",
"572 324 LINE",
"356 324 LINE {name = hr00;}",
"338 243 LINE",
"441 229 LINE",
"441 100 LINE",
"435 99 OFFCURVE",
"426 98 OFFCURVE",
"411 98 CURVE SMOOTH",
"250 98 OFFCURVE",
"164 197 OFFCURVE",
"164 337 CURVE SMOOTH",
"164 489 OFFCURVE",
"260 587 OFFCURVE",
"372 587 CURVE SMOOTH",
"412 587 OFFCURVE",
"421 585 OFFCURVE",
"433 584 CURVE",
"484 461 LINE {name = hr01;}",
"565 461 LINE",
"547 667 LINE",
"527 673 OFFCURVE",
"453 692 OFFCURVE",
"374 692 CURVE SMOOTH",
"175 692 OFFCURVE",
"27 559 OFFCURVE",
"27 337 CURVE SMOOTH",
"27 102 OFFCURVE",
"193 -4 OFFCURVE",
"380 -4 CURVE SMOOTH"
);
}
);
width = 620;
}
);
leftKerningGroup = C;
unicode = 0047;
userData = {
com.typemytype.robofont.mark = (
0.713,
0.6,
1,
1
);
};
},
{
color = 10;
glyphname = H;
layers = (
{
layerId = "CBC04B6C-E875-491C-A1C2-2B8D0972DDA1";
paths = (
{
closed = 1;
nodes = (
"238 0 LINE",
"238 60 LINE {name = hr01;}",
"180 64 LINE",
"180 324 LINE",
"476 324 LINE",
"476 64 LINE {name = hr00;}",
"421 56 LINE",
"425 0 LINE",
"602 0 LINE",
"602 60 LINE {name = hr07;}",
"544 64 LINE",
"544 627 LINE {name = hr06;}",
"599 635 LINE",
"594 691 LINE",
"418 691 LINE",
"418 631 LINE {name = hr05;}",
"476 627 LINE",
"476 387 LINE {name = hr04;}",
"180 387 LINE",
"180 627 LINE",
"235 635 LINE",
"231 691 LINE",
"54 691 LINE",
"54 631 LINE {name = hr03;}",
"112 627 LINE",
"112 64 LINE {name = hr02;}",
"57 56 LINE",
"62 0 LINE"
);
}
);
width = 656;
},
{
layerId = "682D4A5D-117B-492A-B436-118C610C28E8";
paths = (
{
closed = 1;
nodes = (
"300 0 LINE",
"299 87 LINE",
"236 99 LINE",
"236 302 LINE",
"461 302 LINE",
"461 102 LINE",
"403 89 LINE",
"418 0 LINE {name = hr00;}",
"664 0 LINE",
"665 87 LINE",
"592 99 LINE",
"592 586 LINE",
"667 598 LINE",
"652 691 LINE",
"405 691 LINE",
"405 600 LINE",
"461 593 LINE",
"461 407 LINE",
"236 407 LINE",
"236 586 LINE",
"301 598 LINE",
"286 691 LINE",
"42 691 LINE",
"42 600 LINE",
"105 593 LINE",
"105 102 LINE",
"40 89 LINE",
"55 0 LINE"
);
}
);
width = 702;
}
);
leftKerningGroup = H;
rightKerningGroup = H;
unicode = 0048;
userData = {
com.typemytype.robofont.mark = (
0.713,
0.6,
1,
1
);
};
},
{
color = 10;
glyphname = I;
layers = (
{
anchors = (
{
name = bottom;
position = "{149, 0}";
},
{
name = ogonek;
position = "{177, 3}";
},
{
name = top;
position = "{145, 691}";
}
);
layerId = "CBC04B6C-E875-491C-A1C2-2B8D0972DDA1";
paths = (
{
closed = 1;
nodes = (
"238 0 LINE",
"238 60 LINE {name = hr02;}",
"181 64 LINE",
"181 627 LINE",
"235 635 LINE",
"231 691 LINE {name = hr01;}",
"55 691 LINE",
"55 631 LINE",
"112 627 LINE",
"112 64 LINE {name = hr00;}",
"58 56 LINE",
"62 0 LINE {name = hr03;}"
);
}
);
width = 293;
},
{
anchors = (
{
name = bottom;
position = "{179, 0}";
},
{
name = ogonek;
position = "{237, -2}";
},
{
name = top;
position = "{177, 691}";
}
);
layerId = "682D4A5D-117B-492A-B436-118C610C28E8";
paths = (
{
closed = 1;
nodes = (
"311 0 LINE",
"312 87 LINE",
"238 99 LINE",
"238 586 LINE",
"314 598 LINE",
"299 691 LINE",
"39 691 LINE",
"39 600 LINE",
"107 593 LINE",
"107 102 LINE",
"37 89 LINE",
"51 0 LINE {name = hr00;}"
);
}
);
width = 348;
}
);
leftKerningGroup = I;
rightKerningGroup = I;
unicode = 0049;
userData = {
com.typemytype.robofont.mark = (
0.713,
0.6,
1,
1
);
};
},
{
color = 10;
glyphname = J;
layers = (
{
layerId = "CBC04B6C-E875-491C-A1C2-2B8D0972DDA1";
paths = (
{
closed = 1;
nodes = (
"165 -4 OFFCURVE",
"257 0 OFFCURVE",
"257 144 CURVE SMOOTH",
"257 627 LINE",
"315 631 LINE",
"315 691 LINE",
"122 691 LINE",
"116 635 LINE {name = hr00;}",
"189 627 LINE",
"189 123 LINE SMOOTH",
"189 78 OFFCURVE",
"166 62 OFFCURVE",
"138 62 CURVE SMOOTH",
"94 62 OFFCURVE",
"63 89 OFFCURVE",
"50 102 CURVE",
"11 44 LINE",
"43 16 OFFCURVE",
"88 -4 OFFCURVE",
"133 -4 CURVE SMOOTH"
);
}
);
width = 358;
},
{
layerId = "682D4A5D-117B-492A-B436-118C610C28E8";
paths = (
{
closed = 1;
nodes = (
"219 -4 OFFCURVE",
"304 21 OFFCURVE",
"304 175 CURVE SMOOTH",
"304 593 LINE {name = hr00;}",
"372 600 LINE",
"372 691 LINE",
"108 691 LINE",
"93 598 LINE",
"173 586 LINE",
"173 136 LINE SMOOTH",
"173 117 OFFCURVE",
"166 110 OFFCURVE",
"156 110 CURVE SMOOTH",
"138 110 OFFCURVE",
"110 129 OFFCURVE",
"72 160 CURVE",
"2 59 LINE",
"33 31 OFFCURVE",
"96 -4 OFFCURVE",
"159 -4 CURVE SMOOTH"
);
}
);
width = 397;
}
);
unicode = 004A;
userData = {
com.typemytype.robofont.mark = (
0.713,
0.6,
1,
1
);
};
},
{
color = 10;
glyphname = K;
layers = (
{
anchors = (
{
name = bottom;
position = "{324, 0}";
}
);
layerId = "CBC04B6C-E875-491C-A1C2-2B8D0972DDA1";
paths = (
{
closed = 1;
nodes = (
"238 0 LINE",
"238 60 LINE {name = hr02;}",
"181 64 LINE",
"181 187 LINE",
"291 323 LINE",
"471 0 LINE",
"577 0 LINE",
"577 57 LINE",
"517 66 LINE",
"338 381 LINE",
"538 628 LINE",
"572 635 LINE",
"572 691 LINE",
"382 691 LINE",
"382 637 LINE",
"461 631 LINE",
"181 286 LINE",
"181 627 LINE",
"235 635 LINE",
"231 691 LINE {name = hr01;}",
"55 691 LINE",
"55 631 LINE",
"112 627 LINE",
"112 64 LINE {name = hr00;}",
"58 56 LINE",
"62 0 LINE {name = hr03;}"
);
}
);
width = 594;
},
{
anchors = (
{
name = bottom;
position = "{350, 0}";
}
);
layerId = "682D4A5D-117B-492A-B436-118C610C28E8";
paths = (
{
closed = 1;
nodes = (
"305 0 LINE",
"304 87 LINE",
"238 99 LINE",
"238 202 LINE",
"314 291 LINE",
"460 0 LINE",
"618 0 LINE",
"618 87 LINE",
"564 97 LINE",
"402 391 LINE",
"575 594 LINE",
"614 602 LINE",
"614 691 LINE",
"362 691 LINE",
"362 602 LINE",
"439 586 LINE",
"238 345 LINE",
"238 586 LINE",
"307 601 LINE",
"292 691 LINE",
"39 691 LINE",
"39 598 LINE",
"107 593 LINE",
"107 102 LINE",
"37 89 LINE",
"51 0 LINE {name = hr00;}"
);
}
);
width = 635;
}
);
leftKerningGroup = I;
unicode = 004B;
userData = {
com.typemytype.robofont.mark = (
0.713,
0.6,
1,
1
);
};
},
{
color = 10;
glyphname = L;
layers = (
{
anchors = (
{
name = bottom;
position = "{258, 0}";
},
{
name = top;
position = "{155, 691}";
}
);
layerId = "CBC04B6C-E875-491C-A1C2-2B8D0972DDA1";
paths = (
{
closed = 1;
nodes = (
"463 0 LINE",
"482 171 LINE",
"435 171 LINE",
"400 68 LINE",
"180 68 LINE",
"180 627 LINE",
"244 635 LINE",
"240 691 LINE",
"54 691 LINE",
"54 631 LINE {name = hr00;}",
"111 627 LINE",
"111 64 LINE",
"54 56 LINE",
"61 0 LINE"
);
}
);
width = 496;
},
{
anchors = (
{
name = bottom;
position = "{263, 0}";
},
{
name = top;
position = "{178, 691}";
}
);
layerId = "682D4A5D-117B-492A-B436-118C610C28E8";
paths = (
{
closed = 1;
nodes = (
"499 0 LINE",
"520 204 LINE {name = hr01;}",
"441 204 LINE",
"404 105 LINE {name = hr02;}",
"235 105 LINE",
"235 586 LINE",
"310 600 LINE",
"295 691 LINE",
"41 691 LINE {name = hr00;}",
"41 602 LINE",
"104 595 LINE",
"104 101 LINE",
"39 88 LINE",
"53 0 LINE"
);
}
);
width = 524;
}
);
unicode = 004C;
userData = {
com.typemytype.robofont.mark = (
0.713,
0.6,
1,
1
);
};
},
{
color = 10;
glyphname = M;
layers = (
{
layerId = "CBC04B6C-E875-491C-A1C2-2B8D0972DDA1";
paths = (
{
closed = 1;
nodes = (
"238 0 LINE",
"238 56 LINE",
"175 66 LINE",
"175 623 LINE",
"371 15 LINE",
"458 15 LINE",
"651 636 LINE",
"651 68 LINE",
"595 55 LINE",
"600 0 LINE",
"780 0 LINE",
"780 55 LINE",
"720 67 LINE",
"720 626 LINE",
"772 631 LINE",
"766 691 LINE",
"608 691 LINE",
"421 87 LINE",
"226 691 LINE {name = hr00;}",
"55 691 LINE",
"55 632 LINE",
"112 627 LINE",
"112 68 LINE",
"54 56 LINE",
"62 0 LINE"
);
}
);
width = 831;
},
{
layerId = "682D4A5D-117B-492A-B436-118C610C28E8";
paths = (
{
closed = 1;
nodes = (
"251 0 LINE",
"250 87 LINE",
"204 98 LINE",
"204 590 LINE",
"367 13 LINE",
"501 13 LINE",
"668 597 LINE",
"668 103 LINE",
"624 90 LINE",
"633 0 LINE",
"845 0 LINE",
"845 87 LINE",
"794 94 LINE",
"794 586 LINE",
"849 598 LINE",
"834 691 LINE",
"595 691 LINE",
"450 178 LINE",
"306 691 LINE",
"49 691 LINE",
"49 597 LINE {name = hr00;}",
"104 591 LINE",
"104 95 LINE",
"45 87 LINE",
"51 0 LINE"
);
}
);
width = 895;
}
);
leftKerningGroup = H;
rightKerningGroup = H;
unicode = 004D;
userData = {
com.typemytype.robofont.mark = (
0.713,
0.6,
1,
1
);
};
},
{
color = 10;
glyphname = N;
layers = (
{
anchors = (
{
name = bottom;
position = "{347, 0}";
},
{
name = top;
position = "{317, 691}";
}
);
layerId = "CBC04B6C-E875-491C-A1C2-2B8D0972DDA1";
paths = (
{
closed = 1;
nodes = (
"241 0 LINE",
"241 56 LINE",
"174 66 LINE",
"174 629 LINE {name = hr00;}",
"449 0 LINE",
"554 0 LINE",
"554 623 LINE",
"615 635 LINE",
"605 691 LINE",
"427 691 LINE",
"427 635 LINE",
"491 625 LINE",
"491 75 LINE",
"221 691 LINE",
"54 691 LINE",
"54 632 LINE",
"112 627 LINE",
"112 68 LINE",
"54 56 LINE",
"62 0 LINE"
);
}
);
width = 659;
},
{
anchors = (
{
name = bottom;
position = "{368, 0}";
},
{
name = top;
position = "{358, 691}";
}
);
layerId = "682D4A5D-117B-492A-B436-118C610C28E8";
paths = (
{
closed = 1;
nodes = (
"261 0 LINE",
"262 88 LINE",
"211 104 LINE",
"211 563 LINE",
"428 0 LINE {name = hr00;}",
"630 0 LINE",
"630 586 LINE",
"697 598 LINE",
"682 691 LINE",
"467 691 LINE",
"467 600 LINE",
"525 593 LINE",
"525 96 LINE",
"298 691 LINE",
"42 691 LINE",
"42 598 LINE",
"106 591 LINE",
"106 100 LINE",
"37 87 LINE",
"53 0 LINE"
);
}
);
width = 727;
}
);
leftKerningGroup = H;
rightKerningGroup = N;
unicode = 004E;
userData = {
com.typemytype.robofont.mark = (
0.713,
0.6,
1,
1
);
};
},
{
color = 10;
glyphname = O;
layers = (
{
anchors = (
{
name = bottom;
position = "{322, 0}";
},
{
name = top;
position = "{322, 691}";
}
);
layerId = "CBC04B6C-E875-491C-A1C2-2B8D0972DDA1";
paths = (
{
closed = 1;
nodes = (
"513 -4 OFFCURVE",
"595 175 OFFCURVE",
"595 343 CURVE SMOOTH",
"595 511 OFFCURVE",
"513 691 OFFCURVE",
"323 691 CURVE SMOOTH",
"133 691 OFFCURVE",
"50 511 OFFCURVE",
"50 343 CURVE SMOOTH",
"50 175 OFFCURVE",
"133 -4 OFFCURVE",
"323 -4 CURVE SMOOTH {name = hr00;}"
);
},
{
closed = 1;
nodes = (
"177 64 OFFCURVE",
"121 205 OFFCURVE",
"121 341 CURVE SMOOTH",
"121 477 OFFCURVE",
"177 623 OFFCURVE",
"323 623 CURVE SMOOTH",
"469 623 OFFCURVE",
"524 477 OFFCURVE",
"524 341 CURVE SMOOTH",
"524 205 OFFCURVE",
"469 64 OFFCURVE",
"323 64 CURVE SMOOTH"
);
}
);
width = 645;
},
{
anchors = (
{
name = bottom;
position = "{327, 0}";
},
{
name = top;
position = "{328, 691}";
}
);
layerId = "682D4A5D-117B-492A-B436-118C610C28E8";
paths = (
{
closed = 1;
nodes = (
"517 -4 OFFCURVE",
"619 141 OFFCURVE",
"619 345 CURVE SMOOTH",
"619 550 OFFCURVE",
"517 693 OFFCURVE",
"328 693 CURVE SMOOTH",
"139 693 OFFCURVE",
"36 550 OFFCURVE",
"36 345 CURVE SMOOTH",
"36 141 OFFCURVE",
"139 -4 OFFCURVE",
"328 -4 CURVE SMOOTH {name = hr00;}"
);
},
{
closed = 1;
nodes = (
"233 101 OFFCURVE",
"173 207 OFFCURVE",
"173 343 CURVE SMOOTH",
"173 480 OFFCURVE",
"233 588 OFFCURVE",
"328 588 CURVE SMOOTH",
"422 588 OFFCURVE",
"482 480 OFFCURVE",
"482 343 CURVE SMOOTH",
"482 207 OFFCURVE",
"422 101 OFFCURVE",
"328 101 CURVE SMOOTH"
);
}
);
width = 655;
}
);
leftKerningGroup = O;
rightKerningGroup = O;
unicode = 004F;
userData = {
com.typemytype.robofont.mark = (
0.713,
0.6,
1,
1
);
};
},
{
color = 10;
glyphname = Oslash;
layers = (
{
layerId = "CBC04B6C-E875-491C-A1C2-2B8D0972DDA1";
paths = (
{
closed = 1;
nodes = (
"158 -42 LINE",
"193 30 LINE",
"229 8 OFFCURVE",
"272 -4 OFFCURVE",
"323 -4 CURVE SMOOTH {name = hr00;}",
"513 -4 OFFCURVE",
"595 175 OFFCURVE",
"595 343 CURVE SMOOTH",
"595 450 OFFCURVE",
"561 562 OFFCURVE",
"488 629 CURVE",
"538 731 LINE",
"539 745 LINE",
"472 745 LINE",
"433 666 LINE",
"401 682 OFFCURVE",
"365 691 OFFCURVE",
"323 691 CURVE SMOOTH",
"133 691 OFFCURVE",
"50 511 OFFCURVE",
"50 343 CURVE SMOOTH",
"50 244 OFFCURVE",
"79 141 OFFCURVE",
"141 73 CURVE",
"91 -29 LINE",
"94 -42 LINE"
);
},
{
closed = 1;
nodes = (
"137 194 OFFCURVE",
"121 268 OFFCURVE",
"121 341 CURVE SMOOTH",
"121 477 OFFCURVE",
"177 623 OFFCURVE",
"323 623 CURVE SMOOTH",
"353 623 OFFCURVE",
"380 616 OFFCURVE",
"403 605 CURVE",
"174 140 LINE"
);
},
{
closed = 1;
nodes = (
"283 64 OFFCURVE",
"251 74 OFFCURVE",
"224 92 CURVE",
"456 564 LINE",
"504 509 OFFCURVE",
"524 423 OFFCURVE",
"524 341 CURVE SMOOTH",
"524 205 OFFCURVE",
"469 64 OFFCURVE",
"323 64 CURVE SMOOTH"
);
}
);
width = 645;
},
{
layerId = "682D4A5D-117B-492A-B436-118C610C28E8";
paths = (
{
closed = 1;
nodes = (
"201 -63 LINE",
"234 10 LINE",
"262 1 OFFCURVE",
"293 -4 OFFCURVE",
"328 -4 CURVE SMOOTH {name = hr00;}",
"517 -4 OFFCURVE",
"619 141 OFFCURVE",
"619 345 CURVE SMOOTH",
"619 466 OFFCURVE",
"583 566 OFFCURVE",
"515 627 CURVE",
"563 733 LINE",
"563 757 LINE",
"436 757 LINE",
"403 684 LINE",
"380 690 OFFCURVE",
"355 693 OFFCURVE",
"328 693 CURVE SMOOTH",
"139 693 OFFCURVE",
"36 550 OFFCURVE",
"36 345 CURVE SMOOTH",
"36 233 OFFCURVE",
"66 139 OFFCURVE",
"125 77 CURVE",
"72 -40 LINE",
"76 -63 LINE"
);
},
{
closed = 1;
nodes = (
"179 257 OFFCURVE",
"173 298 OFFCURVE",
"173 343 CURVE SMOOTH",
"173 480 OFFCURVE",
"233 588 OFFCURVE",
"328 588 CURVE SMOOTH",
"338 588 OFFCURVE",
"347 587 OFFCURVE",
"357 584 CURVE",
"191 221 LINE"
);
},
{
closed = 1;
nodes = (
"311 101 OFFCURVE",
"295 104 OFFCURVE",
"280 111 CURVE",
"453 492 LINE",
"472 451 OFFCURVE",
"482 399 OFFCURVE",
"482 343 CURVE SMOOTH",
"482 207 OFFCURVE",
"422 101 OFFCURVE",
"328 101 CURVE SMOOTH"
);
}
);
width = 655;
}
);
leftKerningGroup = O;
rightKerningGroup = O;
unicode = 00D8;
userData = {
com.typemytype.robofont.mark = (
0.713,
0.6,
1,
1
);
};
},
{
color = 10;
glyphname = OE;
layers = (
{
layerId = "CBC04B6C-E875-491C-A1C2-2B8D0972DDA1";
paths = (
{
closed = 1;
nodes = (
"350 -4 OFFCURVE",
"369 -3 OFFCURVE",
"387 0 CURVE SMOOTH",
"799 0 LINE",
"818 171 LINE {name = hr03;}",
"771 171 LINE",
"736 68 LINE {name = hr02;}",
"516 68 LINE",
"516 314 LINE",
"688 314 LINE",
"688 377 LINE",
"516 377 LINE",
"516 623 LINE",
"726 623 LINE {name = hr01;}",
"760 520 LINE",
"808 520 LINE",
"788 691 LINE",
"323 695 LINE",
"142 695 OFFCURVE",
"48 507 OFFCURVE",
"48 343 CURVE SMOOTH",
"48 176 OFFCURVE",
"137 -4 OFFCURVE",
"331 -4 CURVE SMOOTH {name = hr00;}"
);
},
{
closed = 1;
nodes = (
"184 64 OFFCURVE",
"119 205 OFFCURVE",
"119 341 CURVE SMOOTH",
"119 477 OFFCURVE",
"200 624 OFFCURVE",
"336 624 CURVE SMOOTH",
"384 624 OFFCURVE",
"417 617 OFFCURVE",
"447 591 CURVE",
"447 102 LINE {name = hr04;}",
"416 74 OFFCURVE",
"376 64 OFFCURVE",
"331 64 CURVE SMOOTH"
);
}
);
width = 858;
},
{
layerId = "682D4A5D-117B-492A-B436-118C610C28E8";
paths = (
{
closed = 1;
nodes = (
"338 -1 OFFCURVE",
"357 -1 OFFCURVE",
"377 0 CURVE SMOOTH {name = hr01;}",
"823 0 LINE",
"844 204 LINE {name = hr02;}",
"765 204 LINE",
"728 105 LINE {name = hr03;}",
"559 105 LINE",
"559 303 LINE",
"711 303 LINE",
"711 408 LINE",
"559 408 LINE",
"559 586 LINE",
"721 586 LINE",
"762 487 LINE {name = hr04;}",
"840 487 LINE",
"821 691 LINE",
"318 691 LINE SMOOTH {name = hr00;}",
"159 691 OFFCURVE",
"36 550 OFFCURVE",
"36 345 CURVE SMOOTH",
"36 141 OFFCURVE",
"139 -1 OFFCURVE",
"328 -1 CURVE SMOOTH"
);
},
{
closed = 1;
nodes = (
"223 104 OFFCURVE",
"173 207 OFFCURVE",
"173 343 CURVE SMOOTH",
"173 480 OFFCURVE",
"233 586 OFFCURVE",
"348 586 CURVE SMOOTH",
"390 586 OFFCURVE",
"417 573 OFFCURVE",
"428 562 CURVE",
"428 129 LINE",
"411 114 OFFCURVE",
"373 104 OFFCURVE",
"348 104 CURVE SMOOTH"
);
}
);
width = 879;
}
);
leftKerningGroup = O;
rightKerningGroup = E;
unicode = 0152;
userData = {
com.typemytype.robofont.mark = (
0.713,
0.6,
1,
1
);
};
},
{
color = 10;
glyphname = P;
layers = (
{
layerId = "CBC04B6C-E875-491C-A1C2-2B8D0972DDA1";
paths = (
{
closed = 1;
nodes = (
"321 0 LINE",
"321 51 LINE",
"181 70 LINE",
"181 264 LINE",
"238 264 LINE SMOOTH",
"370 264 OFFCURVE",
"494 328 OFFCURVE",
"494 481 CURVE SMOOTH",
"494 580 OFFCURVE",
"436 691 OFFCURVE",
"219 691 CURVE SMOOTH",
"55 691 LINE",
"55 632 LINE",
"112 627 LINE",
"112 68 LINE",
"55 55 LINE",
"62 0 LINE"
);
},
{
closed = 1;
nodes = (
"181 623 LINE",
"245 623 LINE SMOOTH",
"347 623 OFFCURVE",
"423 579 OFFCURVE",
"423 480 CURVE SMOOTH",
"423 405 OFFCURVE",
"393 332 OFFCURVE",
"235 332 CURVE SMOOTH {name = hr00;}",
"181 332 LINE"
);
}
);
width = 520;
},
{
layerId = "682D4A5D-117B-492A-B436-118C610C28E8";
paths = (
{
closed = 1;
nodes = (
"384 0 LINE",
"390 83 LINE",
"238 106 LINE",
"238 223 LINE",
"285 223 LINE SMOOTH",
"477 223 OFFCURVE",
"571 319 OFFCURVE",
"571 461 CURVE SMOOTH",
"571 603 OFFCURVE",
"478 691 OFFCURVE",
"289 691 CURVE SMOOTH",
"39 691 LINE",
"39 600 LINE",
"107 593 LINE",
"107 100 LINE",
"37 86 LINE",
"51 0 LINE"
);
},
{
closed = 1;
nodes = (
"238 586 LINE",
"293 586 LINE SMOOTH",
"390 586 OFFCURVE",
"434 538 OFFCURVE",
"434 464 CURVE SMOOTH",
"434 381 OFFCURVE",
"403 330 OFFCURVE",
"247 328 CURVE",
"238 328 LINE {name = hr00;}"
);
}
);
width = 585;
}
);
leftKerningGroup = H;
unicode = 0050;
userData = {
com.typemytype.robofont.mark = (
0.713,
0.6,
1,
1
);
};
},
{
color = 10;
glyphname = Thorn;
layers = (
{
layerId = "CBC04B6C-E875-491C-A1C2-2B8D0972DDA1";
paths = (
{
closed = 1;
nodes = (
"291 0 LINE",
"291 51 LINE",
"181 64 LINE",
"181 175 LINE",
"221 175 LINE SMOOTH {name = hr01;}",
"355 175 OFFCURVE",
"475 226 OFFCURVE",
"475 371 CURVE SMOOTH",
"475 516 OFFCURVE",
"357 561 OFFCURVE",
"224 561 CURVE SMOOTH",
"181 561 LINE",
"181 627 LINE",
"236 635 LINE",
"232 691 LINE",
"55 691 LINE",
"55 631 LINE",
"112 627 LINE",
"112 64 LINE {name = hr00;}",
"58 56 LINE",
"63 0 LINE"
);
},
{
closed = 1;
nodes = (
"181 492 LINE",
"218 492 LINE SMOOTH",
"322 492 OFFCURVE",
"402 470 OFFCURVE",
"402 370 CURVE SMOOTH",
"402 270 OFFCURVE",
"320 244 OFFCURVE",
"217 244 CURVE SMOOTH {name = hr02;}",
"181 244 LINE"
);
}
);
width = 500;
},
{
layerId = "682D4A5D-117B-492A-B436-118C610C28E8";
paths = (
{
closed = 1;
nodes = (
"354 0 LINE",
"354 87 LINE",
"240 99 LINE",
"240 147 LINE",
"279 146 LINE SMOOTH",
"457 146 OFFCURVE",
"545 229 OFFCURVE",
"545 352 CURVE SMOOTH",
"545 475 OFFCURVE",
"456 559 OFFCURVE",
"276 559 CURVE",
"240 558 LINE",
"240 586 LINE",
"315 598 LINE",
"301 691 LINE {name = hr01;}",
"40 691 LINE",
"40 600 LINE",
"108 593 LINE",
"108 102 LINE",
"40 89 LINE",
"40 0 LINE {name = hr00;}"
);
},
{
closed = 1;
nodes = (
"240 453 LINE",
"253 453 LINE SMOOTH",
"382 448 OFFCURVE",
"409 405 OFFCURVE",
"409 352 CURVE SMOOTH",
"409 298 OFFCURVE",
"382 255 OFFCURVE",
"253 251 CURVE SMOOTH",
"240 251 LINE"
);
}
);
width = 556;
}
);
leftKerningGroup = I;
unicode = 00DE;
userData = {
com.typemytype.robofont.mark = (
0.713,
0.6,
1,
1
);
};
},
{
color = 10;
glyphname = Q;
layers = (
{
layerId = "CBC04B6C-E875-491C-A1C2-2B8D0972DDA1";
paths = (
{
closed = 1;
nodes = (
"515 -4 OFFCURVE",
"600 175 OFFCURVE",
"600 343 CURVE SMOOTH",
"600 511 OFFCURVE",
"515 691 OFFCURVE",
"325 691 CURVE SMOOTH",
"135 691 OFFCURVE",
"50 511 OFFCURVE",
"50 343 CURVE SMOOTH",
"50 175 OFFCURVE",
"135 -4 OFFCURVE",
"325 -4 CURVE SMOOTH"
);
},
{
closed = 1;
nodes = (
"501 -130 LINE",
"496 -102 LINE",
"283 -29 LINE {name = hr00;}",
"260 -56 LINE",
"417 -191 LINE"
);
},
{
closed = 1;
nodes = (
"179 64 OFFCURVE",
"123 205 OFFCURVE",
"123 341 CURVE SMOOTH",
"123 477 OFFCURVE",
"179 624 OFFCURVE",
"325 624 CURVE SMOOTH",
"471 624 OFFCURVE",
"526 477 OFFCURVE",
"526 341 CURVE SMOOTH",
"526 205 OFFCURVE",
"471 64 OFFCURVE",
"325 64 CURVE SMOOTH"
);
}
);
width = 649;
},
{
layerId = "682D4A5D-117B-492A-B436-118C610C28E8";
paths = (
{
closed = 1;
nodes = (
"517 -4 OFFCURVE",
"619 141 OFFCURVE",
"619 345 CURVE SMOOTH",
"619 550 OFFCURVE",
"517 693 OFFCURVE",
"328 693 CURVE SMOOTH",
"139 693 OFFCURVE",
"36 550 OFFCURVE",
"36 345 CURVE SMOOTH",
"36 141 OFFCURVE",
"139 -4 OFFCURVE",
"328 -4 CURVE SMOOTH"
);
},
{
closed = 1;
nodes = (
"529 -129 LINE",
"522 -91 LINE",
"314 -15 LINE",
"259 -72 LINE {name = hr00;}",
"435 -227 LINE"
);
},
{
closed = 1;
nodes = (
"233 101 OFFCURVE",
"173 207 OFFCURVE",
"173 343 CURVE SMOOTH",
"173 480 OFFCURVE",
"233 588 OFFCURVE",
"328 588 CURVE SMOOTH",
"422 588 OFFCURVE",
"482 480 OFFCURVE",
"482 343 CURVE SMOOTH",
"482 207 OFFCURVE",
"422 101 OFFCURVE",
"328 101 CURVE SMOOTH"
);
}
);
width = 655;
}
);
leftKerningGroup = O;
rightKerningGroup = O;
unicode = 0051;
userData = {
com.typemytype.robofont.mark = (
0.713,
0.6,
1,
1
);
};
},
{
color = 10;
glyphname = R;
layers = (
{
anchors = (
{
name = bottom;
position = "{308, 0}";
},
{
name = top;
position = "{191, 691}";
}
);
layerId = "CBC04B6C-E875-491C-A1C2-2B8D0972DDA1";
paths = (
{
closed = 1;
nodes = (
"259 0 LINE",
"259 51 LINE",
"181 70 LINE",
"181 264 LINE",
"224 264 OFFCURVE",
"246 264 OFFCURVE",
"272 266 CURVE",
"392 0 LINE",
"510 0 LINE",
"510 51 LINE",
"445 65 LINE",
"343 282 LINE",
"428 310 OFFCURVE",
"494 373 OFFCURVE",
"494 481 CURVE SMOOTH",
"494 627 OFFCURVE",
"383 691 OFFCURVE",
"229 691 CURVE SMOOTH",
"55 691 LINE",
"55 632 LINE",
"112 627 LINE",
"112 68 LINE",
"55 55 LINE {name = hr00;}",
"62 0 LINE"
);
},
{
closed = 1;
nodes = (
"181 623 LINE",
"255 623 LINE SMOOTH",
"350 623 OFFCURVE",
"423 582 OFFCURVE",
"423 480 CURVE SMOOTH",
"423 363 OFFCURVE",
"334 332 OFFCURVE",
"235 332 CURVE SMOOTH",
"181 332 LINE"
);
}
);
width = 544;
},
{
anchors = (
{
name = bottom;
position = "{324, 0}";
},
{
name = top;
position = "{250, 691}";
}
);
layerId = "682D4A5D-117B-492A-B436-118C610C28E8";
paths = (
{
closed = 1;
nodes = (
"290 0 LINE",
"290 87 LINE",
"238 95 LINE",
"238 232 LINE",
"263 232 OFFCURVE",
"288 233 OFFCURVE",
"311 235 CURVE",
"415 0 LINE",
"584 0 LINE",
"584 87 LINE",
"521 97 LINE",
"433 265 LINE",
"520 301 OFFCURVE",
"572 368 OFFCURVE",
"572 466 CURVE SMOOTH",
"572 597 OFFCURVE",
"480 691 OFFCURVE",
"284 691 CURVE SMOOTH",
"39 691 LINE",
"39 600 LINE",
"107 593 LINE",
"107 99 LINE",
"38 85 LINE",
"47 0 LINE {name = hr00;}"
);
},
{
closed = 1;
nodes = (
"238 585 LINE",
"250 585 LINE SMOOTH",
"396 583 OFFCURVE",
"437 539 OFFCURVE",
"437 463 CURVE SMOOTH",
"437 393 OFFCURVE",
"389 338 OFFCURVE",
"271 338 CURVE SMOOTH",
"238 338 LINE"
);
}
);
width = 612;
}
);
leftKerningGroup = H;
unicode = 0052;
userData = {
com.typemytype.robofont.mark = (
0.713,
0.6,
1,
1
);
};
},
{
color = 10;
glyphname = S;
layers = (
{
anchors = (
{
name = bottom;
position = "{231, 0}";
},
{
name = top;
position = "{257, 691}";
}
);
layerId = "CBC04B6C-E875-491C-A1C2-2B8D0972DDA1";
paths = (
{
closed = 1;
nodes = (
"346 -4 OFFCURVE",
"446 67 OFFCURVE",
"446 189 CURVE SMOOTH",
"446 258 OFFCURVE",
"417 324 OFFCURVE",
"296 380 CURVE SMOOTH",
"219 415 OFFCURVE",
"125 439 OFFCURVE",
"125 528 CURVE SMOOTH",
"125 592 OFFCURVE",
"189 624 OFFCURVE",
"249 624 CURVE SMOOTH",
"277 624 OFFCURVE",
"302 622 OFFCURVE",
"327 611 CURVE",
"369 505 LINE",
"424 505 LINE",
"411 659 LINE",
"362 678 OFFCURVE",
"313 691 OFFCURVE",
"257 691 CURVE SMOOTH",
"149 691 OFFCURVE",
"54 626 OFFCURVE",
"54 520 CURVE SMOOTH",
"54 388 OFFCURVE",
"183 356 OFFCURVE",
"289 304 CURVE SMOOTH",
"357 270 OFFCURVE",
"375 232 OFFCURVE",
"375 181 CURVE SMOOTH",
"375 101 OFFCURVE",
"302 64 OFFCURVE",
"233 64 CURVE SMOOTH",
"204 64 OFFCURVE",
"164 72 OFFCURVE",
"139 84 CURVE",
"112 183 LINE {name = hr00;}",
"54 183 LINE",
"65 29 LINE",
"116 5 OFFCURVE",
"176 -4 OFFCURVE",
"233 -4 CURVE SMOOTH"
);
}
);
width = 491;
},
{
anchors = (
{
name = bottom;
position = "{240, 6}";
},
{
name = top;
position = "{278, 691}";
}
);
layerId = "682D4A5D-117B-492A-B436-118C610C28E8";
paths = (
{
closed = 1;
nodes = (
"361 -4 OFFCURVE",
"489 52 OFFCURVE",
"489 201 CURVE SMOOTH",
"489 297 OFFCURVE",
"433 347 OFFCURVE",
"315 403 CURVE SMOOTH",
"257 431 OFFCURVE",
"180 457 OFFCURVE",
"180 511 CURVE SMOOTH",
"180 553 OFFCURVE",
"212 587 OFFCURVE",
"282 587 CURVE SMOOTH",
"305 587 OFFCURVE",
"333 583 OFFCURVE",
"350 581 CURVE",
"399 475 LINE {name = hr01;}",
"483 475 LINE",
"468 665 LINE",
"416 680 OFFCURVE",
"347 692 OFFCURVE",
"278 692 CURVE SMOOTH",
"149 692 OFFCURVE",
"44 619 OFFCURVE",
"44 504 CURVE SMOOTH",
"44 385 OFFCURVE",
"123 343 OFFCURVE",
"226 295 CURVE SMOOTH",
"311 256 OFFCURVE",
"352 237 OFFCURVE",
"352 183 CURVE SMOOTH {name = hr00;}",
"352 125 OFFCURVE",
"297 101 OFFCURVE",
"234 101 CURVE SMOOTH",
"197 101 OFFCURVE",
"165 112 OFFCURVE",
"148 116 CURVE",
"140 227 LINE",
"56 234 LINE",
"36 41 LINE",
"89 20 OFFCURVE",
"162 -4 OFFCURVE",
"240 -4 CURVE SMOOTH"
);
}
);
width = 528;
}
);
unicode = 0053;
userData = {
com.typemytype.robofont.mark = (
0.713,
0.6,
1,
1
);
};
},
{
color = 10;
glyphname = T;
layers = (
{
anchors = (
{
name = bar;
position = "{298, 339}";
},
{
name = bottom;
position = "{280, 0}";
},
{
name = top;
position = "{275, 691}";
}
);
layerId = "CBC04B6C-E875-491C-A1C2-2B8D0972DDA1";
paths = (
{
closed = 1;
nodes = (
"423 0 LINE",
"423 52 LINE",
"308 70 LINE",
"308 623 LINE",
"444 623 LINE {name = hr02;}",
"483 526 LINE",
"529 526 LINE",
"506 691 LINE",
"41 691 LINE",
"18 526 LINE",
"64 526 LINE {name = hr01;}",
"103 623 LINE",
"240 623 LINE",
"240 70 LINE",
"127 52 LINE",
"127 0 LINE {name = hr00;}"
);
}
);
width = 547;
},
{
anchors = (
{
name = bar;
position = "{331, 353}";
},
{
name = bottom;
position = "{312, 0}";
},
{
name = top;
position = "{315, 691}";
}
);
layerId = "682D4A5D-117B-492A-B436-118C610C28E8";
paths = (
{
closed = 1;
nodes = (
"478 0 LINE",
"488 80 LINE",
"372 102 LINE",
"372 586 LINE",
"486 586 LINE",
"530 487 LINE",
"606 487 LINE",
"584 691 LINE",
"29 691 LINE",
"10 486 LINE {name = hr01;}",
"87 486 LINE",
"130 586 LINE {name = hr02;}",
"243 586 LINE",
"243 102 LINE",
"128 80 LINE",
"138 0 LINE {name = hr00;}"
);
}
);
width = 615;
}
);
unicode = 0054;
userData = {
com.typemytype.robofont.mark = (
0.713,
0.6,
1,
1
);
};
},
{
color = 10;
glyphname = U;
layers = (
{
anchors = (
{
name = bottom;
position = "{311, 0}";
},
{
name = ogonek;
position = "{362, 14}";
},
{
name = top;
position = "{313, 691}";
}
);
layerId = "CBC04B6C-E875-491C-A1C2-2B8D0972DDA1";
paths = (
{
closed = 1;
nodes = (
"437 -4 OFFCURVE",
"536 71 OFFCURVE",
"536 202 CURVE SMOOTH",
"536 627 LINE",
"591 635 LINE",
"587 691 LINE",
"417 691 LINE",
"417 631 LINE {name = hr00;}",
"474 627 LINE",
"474 213 LINE SMOOTH",
"474 104 OFFCURVE",
"402 63 OFFCURVE",
"319 63 CURVE SMOOTH",
"222 63 OFFCURVE",
"164 118 OFFCURVE",
"164 213 CURVE SMOOTH",
"164 627 LINE",
"219 635 LINE",
"215 691 LINE",
"38 691 LINE",
"38 631 LINE",
"96 627 LINE",
"96 202 LINE SMOOTH",
"96 77 OFFCURVE",
"187 -4 OFFCURVE",
"313 -4 CURVE SMOOTH"
);
}
);
width = 628;
},
{
anchors = (
{
name = bottom;
position = "{352, 0}";
},
{
name = ogonek;
position = "{371, 9}";
},
{
name = top;
position = "{355, 691}";
}
);
layerId = "682D4A5D-117B-492A-B436-118C610C28E8";
paths = (
{
closed = 1;
nodes = (
"503 -4 OFFCURVE",
"584 93 OFFCURVE",
"584 248 CURVE SMOOTH",
"584 587 LINE",
"643 600 LINE {name = hr01;}",
"643 691 LINE",
"415 691 LINE",
"415 603 LINE",
"479 594 LINE {name = hr02;}",
"479 251 LINE SMOOTH",
"479 146 OFFCURVE",
"433 101 OFFCURVE",
"353 101 CURVE SMOOTH",
"253 101 OFFCURVE",
"219 150 OFFCURVE",
"219 250 CURVE SMOOTH",
"219 592 LINE {name = hr00;}",
"290 603 LINE",
"290 691 LINE",
"21 691 LINE",
"21 602 LINE",
"88 593 LINE",
"88 248 LINE SMOOTH",
"88 90 OFFCURVE",
"153 -4 OFFCURVE",
"353 -4 CURVE SMOOTH"
);
}
);
width = 670;
}
);
leftKerningGroup = U;
rightKerningGroup = U;
unicode = 0055;
userData = {
com.typemytype.robofont.mark = (
0.713,
0.6,
1,
1
);
};
},
{
color = 10;
glyphname = V;
layers = (
{
layerId = "CBC04B6C-E875-491C-A1C2-2B8D0972DDA1";
paths = (
{
closed = 1;
nodes = (
"312 0 LINE",
"520 626 LINE",
"560 644 LINE",
"560 691 LINE",
"364 691 LINE",
"364 646 LINE",
"455 629 LINE",
"284 111 LINE",
"117 626 LINE",
"205 647 LINE",
"205 691 LINE {name = hr00;}",
"8 691 LINE",
"8 644 LINE",
"44 626 LINE",
"247 0 LINE"
);
}
);
width = 562;
},
{
layerId = "682D4A5D-117B-492A-B436-118C610C28E8";
paths = (
{
closed = 1;
nodes = (
"391 0 LINE",
"598 595 LINE",
"635 602 LINE",
"635 691 LINE",
"402 691 LINE",
"402 613 LINE",
"493 595 LINE",
"338 130 LINE",
"181 595 LINE",
"258 612 LINE",
"244 691 LINE",
"4 691 LINE {name = hr00;}",
"4 602 LINE",
"40 595 LINE",
"250 0 LINE"
);
}
);
width = 639;
}
);
unicode = 0056;
userData = {
com.typemytype.robofont.mark = (
0.713,
0.6,
1,
1
);
};
},
{
color = 10;
glyphname = W;
layers = (
{
anchors = (
{
name = bottom;
position = "{436, 0}";
},
{
name = top;
position = "{430, 691}";
}
);
layerId = "CBC04B6C-E875-491C-A1C2-2B8D0972DDA1";
paths = (
{
closed = 1;
nodes = (
"281 0 LINE",
"431 576 LINE",
"582 0 LINE",
"673 0 LINE",
"806 626 LINE",
"846 644 LINE",
"846 691 LINE",
"664 691 LINE",
"664 646 LINE",
"742 629 LINE",
"628 82 LINE",
"476 668 LINE",
"391 668 LINE",
"236 88 LINE",
"123 626 LINE",
"201 647 LINE",
"201 691 LINE {name = hr00;}",
"13 691 LINE",
"13 644 LINE",
"52 626 LINE",
"181 0 LINE"
);
}
);
width = 856;
},
{
anchors = (
{
name = bottom;
position = "{503, 0}";
},
{
name = top;
position = "{511, 691}";
}
);
layerId = "682D4A5D-117B-492A-B436-118C610C28E8";
paths = (
{
closed = 1;
nodes = (
"356 0 LINE",
"491 507 LINE",
"632 0 LINE",
"800 0 LINE",
"910 583 LINE",
"988 603 LINE",
"988 691 LINE",
"739 691 LINE {name = hr00;}",
"728 615 LINE",
"812 602 LINE",
"734 129 LINE",
"585 678 LINE {name = hr01;}",
"443 678 LINE",
"279 183 LINE",
"207 602 LINE",
"277 612 LINE",
"260 691 LINE {name = hr02;}",
"16 691 LINE",
"16 601 LINE",
"71 588 LINE",
"181 0 LINE"
);
}
);
width = 985;
}
);
unicode = 0057;
userData = {
com.typemytype.robofont.mark = (
0.713,
0.6,
1,
1
);
};
},
{
color = 10;
glyphname = X;
layers = (
{
layerId = "CBC04B6C-E875-491C-A1C2-2B8D0972DDA1";
paths = (
{
closed = 1;
nodes = (
"197 0 LINE",
"197 48 LINE",
"139 58 LINE",
"276 289 LINE",
"418 58 LINE",
"356 52 LINE",
"356 0 LINE",
"554 0 LINE",
"554 52 LINE",
"490 75 LINE",
"325 341 LINE",
"492 630 LINE",
"537 637 LINE",
"537 691 LINE",
"358 691 LINE",
"358 643 LINE",
"417 633 LINE",
"288 401 LINE",
"146 633 LINE",
"217 648 LINE",
"217 691 LINE",
"22 691 LINE",
"22 638 LINE",
"69 627 LINE",
"240 347 LINE",
"65 61 LINE",
"20 54 LINE",
"20 0 LINE {name = hr00;}"
);
}
);
width = 566;
},
{
layerId = "682D4A5D-117B-492A-B436-118C610C28E8";
paths = (
{
closed = 1;
nodes = (
"238 0 LINE",
"238 70 LINE",
"183 76 LINE",
"273 232 LINE",
"363 77 LINE",
"306 71 LINE",
"306 0 LINE",
"577 0 LINE",
"577 71 LINE",
"513 93 LINE",
"370 335 LINE",
"536 593 LINE",
"577 601 LINE",
"577 691 LINE",
"354 691 LINE {name = hr00;}",
"354 614 LINE",
"412 596 LINE",
"312 437 LINE",
"221 598 LINE",
"291 613 LINE",
"277 691 LINE",
"24 691 LINE",
"24 604 LINE",
"66 592 LINE",
"216 332 LINE",
"59 79 LINE",
"13 71 LINE",
"13 0 LINE"
);
}
);
width = 594;
}
);
unicode = 0058;
userData = {
com.typemytype.robofont.mark = (
0.713,
0.6,
1,
1
);
};
},
{
color = 10;
glyphname = Y;
layers = (
{
anchors = (
{
name = bottom;
position = "{269, 0}";
},
{
name = top;
position = "{272, 691}";
}
);
layerId = "CBC04B6C-E875-491C-A1C2-2B8D0972DDA1";
paths = (
{
closed = 1;
nodes = (
"411 0 LINE",
"420 52 LINE",
"305 70 LINE",
"305 243 LINE",
"486 621 LINE",
"529 631 LINE",
"529 691 LINE",
"357 691 LINE",
"357 637 LINE",
"418 629 LINE",
"278 330 LINE",
"126 628 LINE",
"189 638 LINE",
"189 691 LINE {name = hr00;}",
"7 691 LINE",
"7 631 LINE",
"50 622 LINE",
"237 257 LINE",
"237 70 LINE",
"121 52 LINE",
"131 0 LINE"
);
}
);
width = 539;
},
{
anchors = (
{
name = bottom;
position = "{301, 0}";
},
{
name = top;
position = "{303, 691}";
}
);
layerId = "682D4A5D-117B-492A-B436-118C610C28E8";
paths = (
{
closed = 1;
nodes = (
"466 0 LINE",
"475 73 LINE",
"360 96 LINE",
"360 251 LINE",
"538 592 LINE",
"582 603 LINE",
"582 691 LINE",
"361 691 LINE",
"361 612 LINE",
"422 601 LINE",
"310 382 LINE",
"186 598 LINE",
"257 612 LINE",
"242 691 LINE",
"-2 691 LINE {name = hr00;}",
"-2 602 LINE",
"38 592 LINE",
"229 252 LINE",
"229 96 LINE",
"115 73 LINE",
"125 0 LINE"
);
}
);
width = 583;
}
);
leftKerningGroup = Y;
rightKerningGroup = Y;
unicode = 0059;
userData = {
com.typemytype.robofont.mark = (
0.713,
0.6,
1,
1
);
};
},
{
color = 10;
glyphname = Z;
layers = (
{
anchors = (
{
name = bottom;
position = "{280, 0}";
},
{
name = top;
position = "{272, 691}";
}
);
layerId = "CBC04B6C-E875-491C-A1C2-2B8D0972DDA1";
paths = (
{
closed = 1;
nodes = (
"493 0 LINE",
"493 170 LINE",
"446 170 LINE",
"426 68 LINE",
"127 68 LINE",
"487 604 LINE {name = hr00;}",
"477 691 LINE",
"52 691 LINE",
"52 521 LINE",
"99 521 LINE",
"119 623 LINE",
"415 623 LINE",
"47 75 LINE",
"56 0 LINE"
);
}
);
width = 542;
},
{
anchors = (
{
name = bottom;
position = "{297, 0}";
},
{
name = top;
position = "{311, 691}";
}
);
layerId = "682D4A5D-117B-492A-B436-118C610C28E8";
paths = (
{
closed = 1;
nodes = (
"518 0 LINE",
"518 215 LINE",
"438 215 LINE",
"420 105 LINE {name = hr01;}",
"205 105 LINE",
"527 598 LINE",
"507 691 LINE",
"47 691 LINE",
"47 476 LINE",
"125 476 LINE",
"144 586 LINE {name = hr02;}",
"365 586 LINE",
"28 79 LINE",
"47 0 LINE {name = hr00;}"
);
}
);
width = 562;
}
);
unicode = 005A;
userData = {
com.typemytype.robofont.mark = (
0.713,
0.6,
1,
1
);
};
},
{
color = 3;
export = 0;
glyphname = Hbar;
layers = (
{
components = (
{
name = H;
}
);
layerId = "CBC04B6C-E875-491C-A1C2-2B8D0972DDA1";
paths = (
{
closed = 1;
nodes = (
"629 481 LINE",
"629 539 LINE",
"34 539 LINE",
"34 481 LINE"
);
}
);
width = 656;
},
{
components = (
{
name = H;
}
);
layerId = "682D4A5D-117B-492A-B436-118C610C28E8";
paths = (
{
closed = 1;
nodes = (
"25 455 LINE",
"665 455 LINE",
"665 528 LINE",
"25 528 LINE"
);
}
);
width = 702;
}
);
unicode = 0126;
},
{
color = 3;
export = 0;
glyphname = Lslash;
layers = (
{
components = (
{
name = L;
}
);
layerId = "CBC04B6C-E875-491C-A1C2-2B8D0972DDA1";
paths = (
{
closed = 1;
nodes = (
"38 307 LINE",
"295 457 LINE",
"295 508 LINE",
"38 358 LINE"
);
}
);
width = 496;
},
{
components = (
{
name = L;
}
);
layerId = "682D4A5D-117B-492A-B436-118C610C28E8";
paths = (
{
closed = 1;
nodes = (
"38 267 LINE",
"295 417 LINE",
"295 508 LINE",
"38 358 LINE"
);
}
);
width = 524;
}
);
unicode = 0141;
},
{
color = 3;
export = 0;
glyphname = Eng;
layers = (
{
anchors = (
{
name = bottom;
position = "{347, 0}";
},
{
name = top;
position = "{317, 691}";
}
);
layerId = "CBC04B6C-E875-491C-A1C2-2B8D0972DDA1";
paths = (
{
closed = 1;
nodes = (
"462 -194 OFFCURVE",
"554 -190 OFFCURVE",
"554 -46 CURVE SMOOTH",
"554 623 LINE",
"615 635 LINE",
"605 691 LINE",
"427 691 LINE",
"427 635 LINE",
"491 625 LINE",
"491 75 LINE",
"221 691 LINE",
"54 691 LINE",
"54 632 LINE",
"112 627 LINE",
"112 68 LINE",
"54 56 LINE",
"62 0 LINE",
"241 0 LINE",
"241 56 LINE",
"174 66 LINE",
"174 629 LINE",
"449 0 LINE",
"491 0 LINE",
"491 -67 LINE SMOOTH",
"491 -112 OFFCURVE",
"463 -128 OFFCURVE",
"435 -128 CURVE SMOOTH",
"391 -128 OFFCURVE",
"360 -101 OFFCURVE",
"347 -88 CURVE",
"308 -146 LINE",
"340 -174 OFFCURVE",
"385 -194 OFFCURVE",
"430 -194 CURVE SMOOTH"
);
}
);
width = 659;
},
{
anchors = (
{
name = bottom;
position = "{368, 0}";
},
{
name = top;
position = "{358, 691}";
}
);
layerId = "682D4A5D-117B-492A-B436-118C610C28E8";
paths = (
{
closed = 1;
nodes = (
"545 -234 OFFCURVE",
"630 -209 OFFCURVE",
"630 -55 CURVE SMOOTH",
"630 586 LINE",
"697 598 LINE",
"682 691 LINE",
"467 691 LINE",
"467 600 LINE",
"525 593 LINE",
"525 96 LINE",
"298 691 LINE",
"42 691 LINE",
"42 598 LINE",
"106 591 LINE",
"106 100 LINE",
"37 87 LINE",
"53 0 LINE",
"261 0 LINE",
"262 88 LINE",
"211 104 LINE",
"211 563 LINE",
"428 0 LINE",
"499 0 LINE",
"499 -94 LINE SMOOTH",
"499 -113 OFFCURVE",
"492 -120 OFFCURVE",
"482 -120 CURVE SMOOTH",
"464 -120 OFFCURVE",
"436 -101 OFFCURVE",
"398 -70 CURVE",
"328 -171 LINE",
"359 -199 OFFCURVE",
"422 -234 OFFCURVE",
"485 -234 CURVE SMOOTH"
);
}
);
width = 727;
}
);
leftKerningGroup = H;
rightKerningGroup = N;
unicode = 014A;
userData = {
com.typemytype.robofont.mark = (
0.713,
0.6,
1,
1
);
};
},
{
color = 10;
glyphname = a;
layers = (
{
anchors = (
{
name = bottom;
position = "{209, 0}";
},
{
name = ogonek;
position = "{348, 18}";
},
{
name = top;
position = "{215, 481}";
}
);
layerId = "CBC04B6C-E875-491C-A1C2-2B8D0972DDA1";
paths = (
{
closed = 1;
nodes = (
"238 -4 OFFCURVE",
"278 12 OFFCURVE",
"308 40 CURVE",
"314 15 OFFCURVE",
"330 -4 OFFCURVE",
"366 -4 CURVE SMOOTH",
"386 -4 OFFCURVE",
"407 2 OFFCURVE",
"421 17 CURVE",
"410 55 LINE",
"404 53 OFFCURVE",
"396 50 OFFCURVE",
"389 50 CURVE SMOOTH",
"371 50 OFFCURVE",
"366 64 OFFCURVE",
"366 79 CURVE SMOOTH {name = hr00;}",
"366 337 LINE SMOOTH",
"366 423 OFFCURVE",
"319 479 OFFCURVE",
"209 479 CURVE SMOOTH",
"141 479 OFFCURVE",
"71 445 OFFCURVE",
"48 371 CURVE",
"130 356 LINE",
"146 409 LINE",
"163 420 OFFCURVE",
"195 422 OFFCURVE",
"215 422 CURVE SMOOTH",
"268 422 OFFCURVE",
"303 395 OFFCURVE",
"303 352 CURVE SMOOTH",
"303 288 LINE",
"206 286 OFFCURVE",
"41 263 OFFCURVE",
"41 128 CURVE SMOOTH",
"41 45 OFFCURVE",
"110 -4 OFFCURVE",
"190 -4 CURVE SMOOTH"
);
},
{
closed = 1;
nodes = (
"141 53 OFFCURVE",
"107 85 OFFCURVE",
"107 131 CURVE SMOOTH",
"107 219 OFFCURVE",
"235 231 OFFCURVE",
"303 232 CURVE",
"303 108 LINE",
"280 73 OFFCURVE",
"238 53 OFFCURVE",
"197 53 CURVE SMOOTH"
);
}
);
width = 448;
},
{
anchors = (
{
name = bottom;
position = "{239, 0}";
},
{
name = ogonek;
position = "{326, 14}";
},
{
name = top;
position = "{223, 491}";
}
);
layerId = "682D4A5D-117B-492A-B436-118C610C28E8";
paths = (
{
closed = 1;
nodes = (
"220 -4 OFFCURVE",
"259 17 OFFCURVE",
"286 44 CURVE",
"300 15 OFFCURVE",
"326 -4 OFFCURVE",
"366 -4 CURVE SMOOTH",
"407 -4 OFFCURVE",
"437 21 OFFCURVE",
"446 29 CURVE",
"428 85 LINE",
"426 85 OFFCURVE",
"420 83 OFFCURVE",
"413 83 CURVE SMOOTH",
"404 83 OFFCURVE",
"395 87 OFFCURVE",
"395 105 CURVE SMOOTH",
"395 330 LINE SMOOTH {name = hr00;}",
"395 452 OFFCURVE",
"308 491 OFFCURVE",
"223 491 CURVE SMOOTH",
"130 491 OFFCURVE",
"58 437 OFFCURVE",
"30 374 CURVE",
"154 320 LINE",
"180 394 LINE",
"187 397 OFFCURVE",
"198 397 OFFCURVE",
"209 397 CURVE SMOOTH",
"254 397 OFFCURVE",
"274 381 OFFCURVE",
"274 367 CURVE SMOOTH",
"274 288 LINE",
"165 285 OFFCURVE",
"29 246 OFFCURVE",
"29 129 CURVE SMOOTH",
"29 54 OFFCURVE",
"81 -4 OFFCURVE",
"174 -4 CURVE SMOOTH"
);
},
{
closed = 1;
nodes = (
"167 92 OFFCURVE",
"153 115 OFFCURVE",
"153 138 CURVE SMOOTH",
"153 190 OFFCURVE",
"224 202 OFFCURVE",
"274 204 CURVE",
"274 139 LINE",
"264 117 OFFCURVE",
"235 92 OFFCURVE",
"198 92 CURVE SMOOTH"
);
}
);
width = 463;
}
);
leftKerningGroup = a;
rightKerningGroup = a;
unicode = 0061;
userData = {
com.typemytype.robofont.mark = (
0.713,
0.6,
1,
1
);
};
},
{
color = 10;
glyphname = aacute;
layers = (
{
components = (
{
name = a;
},
{
name = acutecomb;
transform = "{1, 0, 0, 1, 215, 0}";
}
);
layerId = "CBC04B6C-E875-491C-A1C2-2B8D0972DDA1";
width = 448;
},
{
components = (
{
name = a;
},
{
name = acutecomb;
transform = "{1, 0, 0, 1, 223, 0}";
}
);
layerId = "682D4A5D-117B-492A-B436-118C610C28E8";
width = 463;
},
{
associatedMasterId = "CBC04B6C-E875-491C-A1C2-2B8D0972DDA1";
components = (
{
name = a;
}
);
layerId = "50E1C7F4-21AD-4889-8F63-DC09BA64F52E";
name = "Jul 26 18, 23:16";
paths = (
{
closed = 1;
nodes = (
"253 725 LINE",
"280 725 LINE",
"324 673 LINE",
"184 553 LINE",
"149 586 LINE"
);
}
);
width = 448;
}
);
leftKerningGroup = a;
rightKerningGroup = a;
unicode = 00E1;
userData = {
com.typemytype.robofont.mark = (
0.713,
0.6,
1,
1
);
};
},
{
color = 10;
glyphname = ae;
layers = (
{
layerId = "CBC04B6C-E875-491C-A1C2-2B8D0972DDA1";
paths = (
{
closed = 1;
nodes = (
"258 -4 OFFCURVE",
"323 32 OFFCURVE",
"346 79 CURVE",
"385 24 OFFCURVE",
"446 -2 OFFCURVE",
"504 -2 CURVE SMOOTH",
"571 -2 OFFCURVE",
"604 12 OFFCURVE",
"635 36 CURVE",
"617 91 LINE",
"597 72 OFFCURVE",
"563 56 OFFCURVE",
"520 56 CURVE SMOOTH",
"461 56 OFFCURVE",
"378 86 OFFCURVE",
"369 209 CURVE",
"406 209 LINE SMOOTH",
"518 209 OFFCURVE",
"664 218 OFFCURVE",
"664 352 CURVE SMOOTH",
"664 436 OFFCURVE",
"603 481 OFFCURVE",
"511 481 CURVE SMOOTH",
"450 481 OFFCURVE",
"392 451 OFFCURVE",
"353 399 CURVE",
"327 460 OFFCURVE",
"265 479 OFFCURVE",
"207 479 CURVE SMOOTH",
"140 479 OFFCURVE",
"59 443 OFFCURVE",
"48 371 CURVE",
"130 356 LINE",
"146 409 LINE",
"157 418 OFFCURVE",
"183 422 OFFCURVE",
"206 422 CURVE SMOOTH",
"276 422 OFFCURVE",
"303 373 OFFCURVE",
"303 352 CURVE SMOOTH {name = hr00;}",
"303 267 LINE",
"279 267 LINE SMOOTH",
"165 267 OFFCURVE",
"41 250 OFFCURVE",
"41 123 CURVE SMOOTH",
"41 60 OFFCURVE",
"94 -4 OFFCURVE",
"196 -4 CURVE SMOOTH {name = hr01;}"
);
},
{
closed = 1;
nodes = (
"147 54 OFFCURVE",
"107 85 OFFCURVE",
"107 133 CURVE SMOOTH",
"107 205 OFFCURVE",
"192 211 OFFCURVE",
"270 211 CURVE SMOOTH",
"303 211 LINE",
"303 107 LINE",
"289 83 OFFCURVE",
"250 54 OFFCURVE",
"196 54 CURVE SMOOTH"
);
},
{
closed = 1;
nodes = (
"371 267 LINE",
"382 374 OFFCURVE",
"445 423 OFFCURVE",
"508 423 CURVE SMOOTH",
"555 423 OFFCURVE",
"598 397 OFFCURVE",
"598 346 CURVE SMOOTH",
"598 277 OFFCURVE",
"501 266 OFFCURVE",
"427 266 CURVE"
);
}
);
width = 698;
},
{
layerId = "682D4A5D-117B-492A-B436-118C610C28E8";
paths = (
{
closed = 1;
nodes = (
"234 -4 OFFCURVE",
"291 31 OFFCURVE",
"325 75 CURVE",
"369 20 OFFCURVE",
"436 -4 OFFCURVE",
"503 -4 CURVE SMOOTH",
"585 -4 OFFCURVE",
"649 35 OFFCURVE",
"666 56 CURVE",
"643 143 LINE",
"619 120 OFFCURVE",
"566 91 OFFCURVE",
"517 91 CURVE SMOOTH",
"445 91 OFFCURVE",
"410 138 OFFCURVE",
"402 198 CURVE",
"453 197 LINE",
"567 197 OFFCURVE",
"667 233 OFFCURVE",
"667 354 CURVE SMOOTH",
"667 438 OFFCURVE",
"582 491 OFFCURVE",
"499 491 CURVE SMOOTH {name = hr00;}",
"449 491 OFFCURVE",
"397 476 OFFCURVE",
"356 442 CURVE",
"323 477 OFFCURVE",
"273 491 OFFCURVE",
"223 491 CURVE SMOOTH",
"130 491 OFFCURVE",
"58 437 OFFCURVE",
"30 374 CURVE",
"154 320 LINE",
"180 394 LINE",
"187 397 OFFCURVE",
"198 397 OFFCURVE",
"209 397 CURVE SMOOTH",
"254 397 OFFCURVE",
"274 381 OFFCURVE",
"274 367 CURVE SMOOTH",
"274 288 LINE",
"265 288 LINE SMOOTH",
"158 283 OFFCURVE",
"29 243 OFFCURVE",
"29 129 CURVE SMOOTH",
"29 54 OFFCURVE",
"81 -4 OFFCURVE",
"174 -4 CURVE SMOOTH"
);
},
{
closed = 1;
nodes = (
"167 92 OFFCURVE",
"153 115 OFFCURVE",
"153 138 CURVE SMOOTH",
"153 187 OFFCURVE",
"217 201 OFFCURVE",
"267 204 CURVE SMOOTH",
"274 204 LINE",
"274 140 LINE",
"265 118 OFFCURVE",
"236 92 OFFCURVE",
"198 92 CURVE SMOOTH"
);
},
{
closed = 1;
nodes = (
"403 282 LINE",
"408 344 OFFCURVE",
"452 397 OFFCURVE",
"501 397 CURVE SMOOTH",
"528 397 OFFCURVE",
"546 380 OFFCURVE",
"546 350 CURVE SMOOTH",
"546 297 OFFCURVE",
"487 281 OFFCURVE",
"436 281 CURVE"
);
}
);
width = 698;
}
);
leftKerningGroup = a;
rightKerningGroup = e;
unicode = 00E6;
userData = {
com.typemytype.robofont.mark = (
0.713,
0.6,
1,
1
);
};
},
{
color = 10;
glyphname = b;
layers = (
{
layerId = "CBC04B6C-E875-491C-A1C2-2B8D0972DDA1";
paths = (
{
closed = 1;
nodes = (
"127 22 LINE",
"159 4 OFFCURVE",
"196 -4 OFFCURVE",
"235 -4 CURVE SMOOTH",
"377 -4 OFFCURVE",
"442 116 OFFCURVE",
"442 242 CURVE SMOOTH",
"442 368 OFFCURVE",
"380 479 OFFCURVE",
"247 479 CURVE SMOOTH",
"207 479 OFFCURVE",
"167 466 OFFCURVE",
"138 442 CURVE",
"138 697 LINE {name = hr00;}",
"111 727 LINE",
"6 709 LINE {name = hr01;}",
"14 657 LINE",
"75 661 LINE",
"75 0 LINE",
"91 0 LINE"
);
},
{
closed = 1;
nodes = (
"199 53 OFFCURVE",
"164 64 OFFCURVE",
"138 85 CURVE",
"138 371 LINE",
"156 402 OFFCURVE",
"204 422 OFFCURVE",
"241 422 CURVE SMOOTH",
"343 422 OFFCURVE",
"376 323 OFFCURVE",
"376 237 CURVE SMOOTH {name = hr02;}",
"376 148 OFFCURVE",
"341 53 OFFCURVE",
"233 53 CURVE SMOOTH"
);
}
);
width = 484;
},
{
layerId = "682D4A5D-117B-492A-B436-118C610C28E8";
paths = (
{
closed = 1;
nodes = (
"149 17 LINE",
"175 3 OFFCURVE",
"208 -4 OFFCURVE",
"245 -4 CURVE SMOOTH",
"355 -4 OFFCURVE",
"468 55 OFFCURVE",
"468 251 CURVE SMOOTH",
"468 401 OFFCURVE",
"390 491 OFFCURVE",
"271 491 CURVE SMOOTH",
"233 491 OFFCURVE",
"205 482 OFFCURVE",
"184 472 CURVE",
"184 701 LINE",
"150 736 LINE",
"1 716 LINE",
"12 648 LINE",
"64 651 LINE {name = hr00;}",
"64 23 LINE",
"96 -4 LINE"
);
},
{
closed = 1;
nodes = (
"223 90 OFFCURVE",
"196 95 OFFCURVE",
"184 103 CURVE",
"184 379 LINE",
"199 390 OFFCURVE",
"222 397 OFFCURVE",
"247 397 CURVE SMOOTH",
"303 397 OFFCURVE",
"344 350 OFFCURVE",
"344 246 CURVE SMOOTH",
"344 138 OFFCURVE",
"299 90 OFFCURVE",
"245 90 CURVE SMOOTH"
);
}
);
width = 499;
}
);
rightKerningGroup = b;
unicode = 0062;
userData = {
com.typemytype.robofont.mark = (
0.713,
0.6,
1,
1
);
};
},
{
color = 10;
glyphname = c;
layers = (
{
anchors = (
{
name = bottom;
position = "{254, 0}";
},
{
name = top;
position = "{271, 481}";
}
);
layerId = "CBC04B6C-E875-491C-A1C2-2B8D0972DDA1";
paths = (
{
closed = 1;
nodes = (
"295 -4 OFFCURVE",
"342 5 OFFCURVE",
"377 31 CURVE",
"360 80 LINE",
"328 61 OFFCURVE",
"297 53 OFFCURVE",
"258 53 CURVE SMOOTH",
"142 53 OFFCURVE",
"109 143 OFFCURVE",
"109 232 CURVE SMOOTH",
"109 322 OFFCURVE",
"136 422 OFFCURVE",
"244 422 CURVE SMOOTH",
"280 420 LINE",
"339 373 LINE {name = hr00;}",
"383 442 LINE",
"358 460 OFFCURVE",
"308 479 OFFCURVE",
"249 479 CURVE SMOOTH",
"103 479 OFFCURVE",
"43 361 OFFCURVE",
"43 233 CURVE SMOOTH",
"43 110 OFFCURVE",
"105 -4 OFFCURVE",
"248 -4 CURVE SMOOTH"
);
}
);
width = 405;
},
{
anchors = (
{
name = bottom;
position = "{261, 0}";
},
{
name = top;
position = "{264, 491}";
}
);
layerId = "682D4A5D-117B-492A-B436-118C610C28E8";
paths = (
{
closed = 1;
nodes = (
"313 -4 OFFCURVE",
"372 15 OFFCURVE",
"408 52 CURVE {name = hr00;}",
"382 139 LINE",
"366 125 OFFCURVE",
"327 91 OFFCURVE",
"270 91 CURVE SMOOTH",
"188 91 OFFCURVE",
"154 160 OFFCURVE",
"154 238 CURVE SMOOTH",
"154 331 OFFCURVE",
"192 397 OFFCURVE",
"243 397 CURVE SMOOTH",
"251 397 LINE",
"294 337 LINE",
"415 402 LINE",
"408 416 OFFCURVE",
"365 491 OFFCURVE",
"248 491 CURVE SMOOTH",
"149 491 OFFCURVE",
"30 433 OFFCURVE",
"30 233 CURVE SMOOTH",
"30 66 OFFCURVE",
"147 -4 OFFCURVE",
"249 -4 CURVE SMOOTH"
);
}
);
width = 431;
}
);
leftKerningGroup = o;
rightKerningGroup = c;
unicode = 0063;
userData = {
com.typemytype.robofont.mark = (
0.713,
0.6,
1,
1
);
};
},
{
color = 10;
glyphname = ccedilla;
layers = (
{
components = (
{
name = c;
},
{
name = cedillacomb;
transform = "{1, 0, 0, 1, 2, 0}";
}
);
layerId = "CBC04B6C-E875-491C-A1C2-2B8D0972DDA1";
width = 405;
},
{
components = (
{
name = c;
},
{
name = cedillacomb;
transform = "{1, 0, 0, 1, 141, -1}";
}
);
layerId = "682D4A5D-117B-492A-B436-118C610C28E8";
width = 431;
},
{
associatedMasterId = "682D4A5D-117B-492A-B436-118C610C28E8";
layerId = "5BCC99CB-1B84-4664-917E-754AD544BCB0";
name = "Jul 27 18, 10:31";
paths = (
{
closed = 1;
nodes = (
"405 68 OFFCURVE",
"389 121 OFFCURVE",
"383 139 CURVE",
"367 125 OFFCURVE",
"328 91 OFFCURVE",
"271 91 CURVE SMOOTH",
"189 91 OFFCURVE",
"155 160 OFFCURVE",
"155 238 CURVE SMOOTH",
"155 335 OFFCURVE",
"191 397 OFFCURVE",
"252 397 CURVE",
"295 337 LINE",
"416 402 LINE",
"409 416 OFFCURVE",
"366 491 OFFCURVE",
"249 491 CURVE SMOOTH",
"150 491 OFFCURVE",
"31 433 OFFCURVE",
"31 233 CURVE SMOOTH",
"31 90 OFFCURVE",
"116 18 OFFCURVE",
"205 0 CURVE",
"184 -62 LINE",
"196 -78 LINE",
"244 -78 OFFCURVE",
"266 -94 OFFCURVE",
"266 -127 CURVE SMOOTH",
"266 -166 OFFCURVE",
"219 -169 OFFCURVE",
"214 -169 CURVE",
"159 -129 LINE",
"125 -203 LINE",
"150 -213 OFFCURVE",
"187 -221 OFFCURVE",
"216 -221 CURVE SMOOTH",
"297 -221 OFFCURVE",
"343 -179 OFFCURVE",
"343 -125 CURVE SMOOTH",
"343 -76 OFFCURVE",
"314 -48 OFFCURVE",
"267 -38 CURVE",
"279 -3 LINE",
"332 2 OFFCURVE",
"378 21 OFFCURVE",
"409 52 CURVE {name = hr00;}"
);
}
);
width = 431;
},
{
associatedMasterId = "CBC04B6C-E875-491C-A1C2-2B8D0972DDA1";
layerId = "B7B74A77-CBFB-4109-A12D-387370A8F055";
name = "Jul 27 18, 10:31";
paths = (
{
closed = 1;
nodes = (
"205 -60 LINE",
"225 -3 LINE",
"98 8 OFFCURVE",
"43 116 OFFCURVE",
"43 233 CURVE SMOOTH",
"43 361 OFFCURVE",
"103 479 OFFCURVE",
"249 479 CURVE SMOOTH",
"308 479 OFFCURVE",
"358 460 OFFCURVE",
"383 442 CURVE",
"339 373 LINE",
"280 420 LINE",
"270 422 OFFCURVE",
"253 422 OFFCURVE",
"244 422 CURVE SMOOTH",
"136 422 OFFCURVE",
"109 322 OFFCURVE",
"109 232 CURVE SMOOTH",
"109 143 OFFCURVE",
"142 53 OFFCURVE",
"258 53 CURVE SMOOTH",
"297 53 OFFCURVE",
"328 61 OFFCURVE",
"360 80 CURVE",
"377 31 LINE",
"349 10 OFFCURVE",
"313 0 OFFCURVE",
"276 -3 CURVE",
"266 -32 LINE",
"303 -35 OFFCURVE",
"343 -60 OFFCURVE",
"343 -112 CURVE SMOOTH",
"343 -160 OFFCURVE",
"309 -196 OFFCURVE",
"241 -196 CURVE SMOOTH",
"205 -196 OFFCURVE",
"181 -185 OFFCURVE",
"157 -176 CURVE",
"188 -116 LINE",
"243 -150 LINE",
"269 -150 OFFCURVE",
"289 -136 OFFCURVE",
"289 -113 CURVE SMOOTH",
"289 -95 OFFCURVE",
"272 -73 OFFCURVE",
"224 -73 CURVE SMOOTH",
"218 -73 LINE {name = hr00;}"
);
}
);
width = 406;
}
);
leftKerningGroup = o;
rightKerningGroup = c;
unicode = 00E7;
userData = {
com.typemytype.robofont.mark = (
0.713,
0.6,
1,
1
);
};
},
{
color = 10;
glyphname = d;
layers = (
{
anchors = (
{
name = bar;
position = "{380, 569}";
},
{
name = top;
position = "{308, 727}";
}
);
layerId = "CBC04B6C-E875-491C-A1C2-2B8D0972DDA1";
paths = (
{
closed = 1;
nodes = (
"282 -4 OFFCURVE",
"322 9 OFFCURVE",
"352 37 CURVE",
"359 16 OFFCURVE",
"374 -4 OFFCURVE",
"408 -4 CURVE SMOOTH",
"420 -4 OFFCURVE",
"449 1 OFFCURVE",
"464 15 CURVE",
"453 55 LINE",
"447 53 OFFCURVE",
"439 50 OFFCURVE",
"432 50 CURVE SMOOTH",
"414 50 OFFCURVE",
"409 64 OFFCURVE",
"409 79 CURVE SMOOTH",
"409 697 LINE",
"382 727 LINE",
"277 709 LINE",
"285 657 LINE {name = hr00;}",
"346 661 LINE",
"346 459 LINE",
"322 470 OFFCURVE",
"291 479 OFFCURVE",
"250 479 CURVE SMOOTH",
"110 479 OFFCURVE",
"42 369 OFFCURVE",
"42 235 CURVE SMOOTH",
"42 118 OFFCURVE",
"105 -4 OFFCURVE",
"240 -4 CURVE SMOOTH"
);
},
{
closed = 1;
nodes = (
"144 53 OFFCURVE",
"108 154 OFFCURVE",
"108 239 CURVE SMOOTH",
"108 329 OFFCURVE",
"146 422 OFFCURVE",
"254 422 CURVE SMOOTH",
"288 422 OFFCURVE",
"323 412 OFFCURVE",
"346 387 CURVE",
"346 104 LINE",
"325 71 OFFCURVE",
"284 53 OFFCURVE",
"246 53 CURVE SMOOTH"
);
}
);
width = 495;
},
{
anchors = (
{
name = bar;
position = "{376, 571}";
},
{
name = top;
position = "{333, 754}";
}
);
layerId = "682D4A5D-117B-492A-B436-118C610C28E8";
paths = (
{
closed = 1;
nodes = (
"266 -4 OFFCURVE",
"303 10 OFFCURVE",
"327 38 CURVE",
"341 12 OFFCURVE",
"366 -4 OFFCURVE",
"406 -4 CURVE SMOOTH",
"455 -4 OFFCURVE",
"486 27 OFFCURVE",
"495 37 CURVE",
"476 89 LINE",
"474 88 OFFCURVE",
"464 83 OFFCURVE",
"454 83 CURVE SMOOTH",
"444 83 OFFCURVE",
"435 88 OFFCURVE",
"435 105 CURVE SMOOTH",
"435 700 LINE",
"400 737 LINE",
"252 716 LINE",
"263 648 LINE",
"314 648 LINE {name = hr00;}",
"314 478 LINE",
"294 486 OFFCURVE",
"271 491 OFFCURVE",
"243 491 CURVE SMOOTH",
"157 491 OFFCURVE",
"31 437 OFFCURVE",
"31 234 CURVE SMOOTH",
"31 85 OFFCURVE",
"111 -4 OFFCURVE",
"221 -4 CURVE SMOOTH"
);
},
{
closed = 1;
nodes = (
"188 91 OFFCURVE",
"155 139 OFFCURVE",
"155 233 CURVE SMOOTH",
"155 366 OFFCURVE",
"207 398 OFFCURVE",
"255 398 CURVE SMOOTH",
"279 398 OFFCURVE",
"302 388 OFFCURVE",
"314 378 CURVE",
"314 140 LINE",
"307 112 OFFCURVE",
"272 91 OFFCURVE",
"244 91 CURVE SMOOTH"
);
}
);
width = 514;
}
);
leftKerningGroup = d;
unicode = 0064;
userData = {
com.typemytype.robofont.mark = (
0.713,
0.6,
1,
1
);
};
},
{
color = 10;
glyphname = eth;
layers = (
{
layerId = "CBC04B6C-E875-491C-A1C2-2B8D0972DDA1";
paths = (
{
closed = 1;
nodes = (
"423 -4 OFFCURVE",
"459 170 OFFCURVE",
"459 298 CURVE SMOOTH",
"459 410 OFFCURVE",
"422 502 OFFCURVE",
"370 574 CURVE",
"483 633 LINE",
"450 692 LINE",
"331 622 LINE",
"286 670 OFFCURVE",
"235 705 OFFCURVE",
"188 728 CURVE",
"159 675 LINE",
"198 654 OFFCURVE",
"239 625 OFFCURVE",
"275 589 CURVE",
"169 528 LINE {name = hr00;}",
"197 482 LINE",
"314 544 LINE",
"343 505 OFFCURVE",
"365 461 OFFCURVE",
"378 411 CURVE",
"348 438 OFFCURVE",
"303 458 OFFCURVE",
"237 458 CURVE SMOOTH",
"120 458 OFFCURVE",
"43 361 OFFCURVE",
"43 231 CURVE SMOOTH",
"43 101 OFFCURVE",
"113 -4 OFFCURVE",
"253 -4 CURVE SMOOTH"
);
},
{
closed = 1;
nodes = (
"184 53 OFFCURVE",
"111 98 OFFCURVE",
"111 230 CURVE SMOOTH",
"111 327 OFFCURVE",
"157 401 OFFCURVE",
"241 401 CURVE SMOOTH",
"306 401 OFFCURVE",
"382 360 OFFCURVE",
"390 275 CURVE",
"387 177 OFFCURVE",
"366 53 OFFCURVE",
"249 53 CURVE SMOOTH"
);
}
);
width = 511;
},
{
layerId = "682D4A5D-117B-492A-B436-118C610C28E8";
paths = (
{
closed = 1;
nodes = (
"470 -4 OFFCURVE",
"510 207 OFFCURVE",
"510 326 CURVE SMOOTH",
"510 436 OFFCURVE",
"463 526 OFFCURVE",
"399 595 CURVE",
"462 633 LINE",
"396 735 LINE",
"313 669 LINE",
"270 700 OFFCURVE",
"224 722 OFFCURVE",
"185 736 CURVE",
"133 615 LINE {name = hr00;}",
"152 607 OFFCURVE",
"177 597 OFFCURVE",
"203 582 CURVE",
"133 526 LINE",
"170 459 LINE",
"283 526 LINE",
"320 495 OFFCURVE",
"352 456 OFFCURVE",
"369 408 CURVE",
"342 433 OFFCURVE",
"299 455 OFFCURVE",
"236 455 CURVE SMOOTH",
"112 455 OFFCURVE",
"29 356 OFFCURVE",
"29 218 CURVE SMOOTH",
"29 99 OFFCURVE",
"117 -4 OFFCURVE",
"254 -4 CURVE SMOOTH"
);
},
{
closed = 1;
nodes = (
"198 101 OFFCURVE",
"155 164 OFFCURVE",
"155 225 CURVE SMOOTH",
"155 289 OFFCURVE",
"181 356 OFFCURVE",
"267 356 CURVE SMOOTH",
"312 356 OFFCURVE",
"370 328 OFFCURVE",
"381 254 CURVE",
"372 155 OFFCURVE",
"334 101 OFFCURVE",
"263 101 CURVE SMOOTH"
);
}
);
width = 545;
}
);
unicode = 00F0;
userData = {
com.typemytype.robofont.mark = (
0.713,
0.6,
1,
1
);
};
},
{
color = 10;
glyphname = e;
layers = (
{
anchors = (
{
name = bottom;
position = "{260, 0}";
},
{
name = ogonek;
position = "{338, 26}";
},
{
name = top;
position = "{260, 481}";
}
);
layerId = "CBC04B6C-E875-491C-A1C2-2B8D0972DDA1";
paths = (
{
closed = 1;
nodes = (
"308 -4 OFFCURVE",
"360 6 OFFCURVE",
"398 34 CURVE",
"381 88 LINE",
"350 65 OFFCURVE",
"306 52 OFFCURVE",
"264 52 CURVE SMOOTH {name = hr00;}",
"171 52 OFFCURVE",
"124 108 OFFCURVE",
"111 185 CURVE",
"119 185 LINE SMOOTH",
"243 185 OFFCURVE",
"401 207 OFFCURVE",
"401 348 CURVE SMOOTH",
"401 431 OFFCURVE",
"333 479 OFFCURVE",
"252 479 CURVE SMOOTH",
"120 479 OFFCURVE",
"42 369 OFFCURVE",
"42 232 CURVE SMOOTH",
"42 101 OFFCURVE",
"113 -4 OFFCURVE",
"259 -4 CURVE SMOOTH"
);
},
{
closed = 1;
nodes = (
"112 339 OFFCURVE",
"159 422 OFFCURVE",
"251 422 CURVE SMOOTH",
"290 422 OFFCURVE",
"335 401 OFFCURVE",
"335 348 CURVE SMOOTH",
"335 248 OFFCURVE",
"200 244 OFFCURVE",
"125 244 CURVE SMOOTH",
"108 244 LINE"
);
}
);
width = 443;
},
{
anchors = (
{
name = bottom;
position = "{262, 0}";
},
{
name = ogonek;
position = "{335, 54}";
},
{
name = top;
position = "{266, 491}";
}
);
layerId = "682D4A5D-117B-492A-B436-118C610C28E8";
paths = (
{
closed = 1;
nodes = (
"339 -4 OFFCURVE",
"402 32 OFFCURVE",
"420 56 CURVE",
"397 143 LINE",
"373 120 OFFCURVE",
"338 91 OFFCURVE",
"277 91 CURVE SMOOTH",
"196 91 OFFCURVE",
"164 138 OFFCURVE",
"156 198 CURVE",
"207 197 LINE SMOOTH",
"322 197 OFFCURVE",
"424 243 OFFCURVE",
"424 354 CURVE SMOOTH",
"424 448 OFFCURVE",
"336 491 OFFCURVE",
"253 491 CURVE SMOOTH {name = hr00;}",
"146 491 OFFCURVE",
"30 415 OFFCURVE",
"30 239 CURVE SMOOTH",
"30 74 OFFCURVE",
"143 -4 OFFCURVE",
"257 -4 CURVE SMOOTH"
);
},
{
closed = 1;
nodes = (
"162 344 OFFCURVE",
"206 396 OFFCURVE",
"255 396 CURVE SMOOTH",
"282 396 OFFCURVE",
"301 380 OFFCURVE",
"301 350 CURVE SMOOTH",
"301 297 OFFCURVE",
"241 281 OFFCURVE",
"190 281 CURVE SMOOTH",
"157 282 LINE"
);
}
);
width = 454;
}
);
leftKerningGroup = o;
rightKerningGroup = e;
unicode = 0065;
userData = {
com.typemytype.robofont.mark = (
0.713,
0.6,
1,
1
);
};
},
{
color = 10;
glyphname = eacute;
layers = (
{
components = (
{
name = e;
},
{
name = acutecomb;
transform = "{1, 0, 0, 1, 260, 0}";
}
);
layerId = "CBC04B6C-E875-491C-A1C2-2B8D0972DDA1";
width = 443;
},
{
components = (
{
name = e;
},
{
name = acutecomb;
transform = "{1, 0, 0, 1, 266, 0}";
}
);
layerId = "682D4A5D-117B-492A-B436-118C610C28E8";
width = 454;
},
{
associatedMasterId = "682D4A5D-117B-492A-B436-118C610C28E8";
layerId = "06E6168D-EF72-4528-87D4-C80291E7FF63";
name = "Jul 27 18, 10:50";
paths = (
{
closed = 1;
nodes = (
"146 491 OFFCURVE",
"30 415 OFFCURVE",
"30 239 CURVE SMOOTH",
"30 74 OFFCURVE",
"143 -4 OFFCURVE",
"257 -4 CURVE SMOOTH",
"339 -4 OFFCURVE",
"402 32 OFFCURVE",
"420 56 CURVE",
"397 143 LINE",
"373 120 OFFCURVE",
"338 91 OFFCURVE",
"277 91 CURVE SMOOTH",
"196 91 OFFCURVE",
"164 138 OFFCURVE",
"156 198 CURVE",
"170 197 OFFCURVE",
"189 197 OFFCURVE",
"207 197 CURVE SMOOTH",
"322 197 OFFCURVE",
"424 243 OFFCURVE",
"424 354 CURVE SMOOTH",
"424 448 OFFCURVE",
"336 491 OFFCURVE",
"253 491 CURVE SMOOTH {name = hr00;}"
);
},
{
closed = 1;
nodes = (
"162 344 OFFCURVE",
"206 396 OFFCURVE",
"255 396 CURVE SMOOTH",
"282 396 OFFCURVE",
"301 380 OFFCURVE",
"301 350 CURVE SMOOTH",
"301 297 OFFCURVE",
"241 281 OFFCURVE",
"190 281 CURVE SMOOTH",
"180 281 OFFCURVE",
"164 281 OFFCURVE",
"157 282 CURVE"
);
},
{
closed = 1;
nodes = (
"374 630 LINE",
"297 736 LINE",
"261 722 LINE",
"135 561 LINE",
"181 509 LINE"
);
}
);
width = 454;
},
{
associatedMasterId = "CBC04B6C-E875-491C-A1C2-2B8D0972DDA1";
layerId = "C3995EC7-17E9-44E8-B1D7-4EA336C6B027";
name = "Jul 27 18, 10:50";
paths = (
{
closed = 1;
nodes = (
"306 52 OFFCURVE",
"350 65 OFFCURVE",
"381 88 CURVE",
"398 34 LINE",
"360 6 OFFCURVE",
"308 -4 OFFCURVE",
"259 -4 CURVE SMOOTH",
"113 -4 OFFCURVE",
"42 101 OFFCURVE",
"42 232 CURVE SMOOTH",
"42 369 OFFCURVE",
"120 479 OFFCURVE",
"252 479 CURVE SMOOTH",
"333 479 OFFCURVE",
"401 431 OFFCURVE",
"401 348 CURVE SMOOTH",
"401 204 OFFCURVE",
"236 186 OFFCURVE",
"111 185 CURVE",
"124 108 OFFCURVE",
"171 52 OFFCURVE",
"264 52 CURVE SMOOTH {name = hr00;}"
);
},
{
closed = 1;
nodes = (
"200 244 OFFCURVE",
"335 248 OFFCURVE",
"335 348 CURVE SMOOTH",
"335 401 OFFCURVE",
"290 422 OFFCURVE",
"251 422 CURVE SMOOTH",
"159 422 OFFCURVE",
"112 339 OFFCURVE",
"108 244 CURVE",
"125 244 LINE SMOOTH"
);
},
{
closed = 1;
nodes = (
"281 725 LINE",
"308 725 LINE",
"352 673 LINE",
"212 553 LINE",
"177 586 LINE"
);
}
);
width = 443;
}
);
leftKerningGroup = o;
rightKerningGroup = e;
unicode = 00E9;
userData = {
com.typemytype.robofont.mark = (
0.713,
0.6,
1,
1
);
};
},
{
color = 10;
glyphname = ecircumflex;
layers = (
{
components = (
{
name = e;
},
{
name = circumflexcomb;
transform = "{1, 0, 0, 1, 260, 0}";
}
);
layerId = "CBC04B6C-E875-491C-A1C2-2B8D0972DDA1";
width = 443;
},
{
components = (
{
name = e;
},
{
name = circumflexcomb;
transform = "{1, 0, 0, 1, 266, 0}";
}
);
layerId = "682D4A5D-117B-492A-B436-118C610C28E8";
width = 454;
},
{
associatedMasterId = "682D4A5D-117B-492A-B436-118C610C28E8";
layerId = "15096337-5BA1-4960-9F7C-99E1BF134165";
name = "Jul 27 18, 10:56";
paths = (
{
closed = 1;
nodes = (
"185 529 LINE",
"252 581 LINE",
"319 529 LINE",
"397 529 LINE",
"403 540 LINE",
"269 700 LINE",
"236 700 LINE",
"103 541 LINE",
"108 529 LINE {name = hr00;}"
);
},
{
closed = 1;
nodes = (
"146 491 OFFCURVE",
"30 415 OFFCURVE",
"30 239 CURVE SMOOTH",
"30 74 OFFCURVE",
"143 -4 OFFCURVE",
"257 -4 CURVE SMOOTH",
"339 -4 OFFCURVE",
"402 32 OFFCURVE",
"420 56 CURVE",
"397 143 LINE",
"373 120 OFFCURVE",
"338 91 OFFCURVE",
"277 91 CURVE SMOOTH",
"196 91 OFFCURVE",
"164 138 OFFCURVE",
"156 198 CURVE",
"170 197 OFFCURVE",
"189 197 OFFCURVE",
"207 197 CURVE SMOOTH",
"322 197 OFFCURVE",
"424 243 OFFCURVE",
"424 354 CURVE SMOOTH",
"424 448 OFFCURVE",
"336 491 OFFCURVE",
"253 491 CURVE SMOOTH"
);
},
{
closed = 1;
nodes = (
"162 344 OFFCURVE",
"206 396 OFFCURVE",
"255 396 CURVE SMOOTH {name = hr01;}",
"282 396 OFFCURVE",
"301 380 OFFCURVE",
"301 350 CURVE SMOOTH",
"301 297 OFFCURVE",
"241 281 OFFCURVE",
"190 281 CURVE SMOOTH",
"180 281 OFFCURVE",
"164 281 OFFCURVE",
"157 282 CURVE"
);
}
);
width = 454;
},
{
associatedMasterId = "CBC04B6C-E875-491C-A1C2-2B8D0972DDA1";
layerId = "1B4E2D95-D998-45EF-9104-E2DCECBCA93A";
name = "Jul 27 18, 10:56";
paths = (
{
closed = 1;
nodes = (
"236 691 LINE",
"252 691 LINE",
"368 550 LINE",
"365 544 LINE",
"310 544 LINE",
"244 602 LINE",
"178 544 LINE {name = hr01;}",
"124 544 LINE",
"120 548 LINE {name = hr00;}"
);
},
{
closed = 1;
nodes = (
"306 52 OFFCURVE",
"350 65 OFFCURVE",
"381 88 CURVE",
"398 34 LINE",
"360 6 OFFCURVE",
"308 -4 OFFCURVE",
"259 -4 CURVE SMOOTH",
"113 -4 OFFCURVE",
"42 101 OFFCURVE",
"42 232 CURVE SMOOTH",
"42 369 OFFCURVE",
"120 479 OFFCURVE",
"252 479 CURVE SMOOTH",
"333 479 OFFCURVE",
"401 431 OFFCURVE",
"401 348 CURVE SMOOTH",
"401 204 OFFCURVE",
"236 186 OFFCURVE",
"111 185 CURVE",
"124 108 OFFCURVE",
"171 52 OFFCURVE",
"264 52 CURVE SMOOTH"
);
},
{
closed = 1;
nodes = (
"200 244 OFFCURVE",
"335 248 OFFCURVE",
"335 348 CURVE SMOOTH",
"335 401 OFFCURVE",
"290 422 OFFCURVE",
"251 422 CURVE SMOOTH",
"159 422 OFFCURVE",
"112 339 OFFCURVE",
"108 244 CURVE",
"125 244 LINE SMOOTH"
);
}
);
width = 443;
}
);
leftKerningGroup = o;
rightKerningGroup = e;
unicode = 00EA;
userData = {
com.typemytype.robofont.mark = (
0.713,
0.6,
1,
1
);
};
},
{
color = 10;
glyphname = edieresis;
layers = (
{
components = (
{
name = e;
},
{
name = dieresiscomb;
transform = "{1, 0, 0, 1, 260, 0}";
}
);
layerId = "CBC04B6C-E875-491C-A1C2-2B8D0972DDA1";
width = 443;
},
{
components = (
{
name = e;
},
{
name = dieresiscomb;
transform = "{1, 0, 0, 1, 266, 0}";
}
);
layerId = "682D4A5D-117B-492A-B436-118C610C28E8";
width = 454;
},
{
associatedMasterId = "682D4A5D-117B-492A-B436-118C610C28E8";
layerId = "0CEB2726-D77C-46B6-BAED-96DAFA622160";
name = "Jul 27 18, 10:58";
paths = (
{
closed = 1;
nodes = (
"102 600 OFFCURVE",
"129 572 OFFCURVE",
"164 572 CURVE SMOOTH",
"198 572 OFFCURVE",
"226 600 OFFCURVE",
"226 634 CURVE SMOOTH",
"226 669 OFFCURVE",
"198 696 OFFCURVE",
"164 696 CURVE SMOOTH",
"129 696 OFFCURVE",
"102 669 OFFCURVE",
"102 634 CURVE SMOOTH {name = hr00;}"
);
},
{
closed = 1;
nodes = (
"263 600 OFFCURVE",
"291 572 OFFCURVE",
"325 572 CURVE SMOOTH",
"360 572 OFFCURVE",
"387 600 OFFCURVE",
"387 634 CURVE SMOOTH",
"387 669 OFFCURVE",
"360 696 OFFCURVE",
"325 696 CURVE SMOOTH",
"291 696 OFFCURVE",
"263 669 OFFCURVE",
"263 634 CURVE SMOOTH"
);
},
{
closed = 1;
nodes = (
"146 491 OFFCURVE",
"30 415 OFFCURVE",
"30 239 CURVE SMOOTH {name = hr01;}",
"30 74 OFFCURVE",
"143 -4 OFFCURVE",
"257 -4 CURVE SMOOTH",
"339 -4 OFFCURVE",
"402 32 OFFCURVE",
"420 56 CURVE",
"397 143 LINE",
"373 120 OFFCURVE",
"338 91 OFFCURVE",
"277 91 CURVE SMOOTH",
"196 91 OFFCURVE",
"164 138 OFFCURVE",
"156 198 CURVE",
"170 197 OFFCURVE",
"189 197 OFFCURVE",
"207 197 CURVE SMOOTH",
"322 197 OFFCURVE",
"424 243 OFFCURVE",
"424 354 CURVE SMOOTH",
"424 448 OFFCURVE",
"336 491 OFFCURVE",
"253 491 CURVE SMOOTH"
);
},
{
closed = 1;
nodes = (
"162 344 OFFCURVE",
"206 396 OFFCURVE",
"255 396 CURVE SMOOTH",
"282 396 OFFCURVE",
"301 380 OFFCURVE",
"301 350 CURVE SMOOTH",
"301 297 OFFCURVE",
"241 281 OFFCURVE",
"190 281 CURVE SMOOTH",
"180 281 OFFCURVE",
"164 281 OFFCURVE",
"157 282 CURVE"
);
}
);
width = 454;
},
{
associatedMasterId = "CBC04B6C-E875-491C-A1C2-2B8D0972DDA1";
layerId = "AD0E2716-13DA-4B47-89EC-175A9DFF623C";
name = "Jul 27 18, 10:58";
paths = (
{
closed = 1;
nodes = (
"122 646 OFFCURVE",
"143 668 OFFCURVE",
"171 668 CURVE SMOOTH",
"196 668 OFFCURVE",
"219 646 OFFCURVE",
"219 619 CURVE SMOOTH",
"219 594 OFFCURVE",
"196 570 OFFCURVE",
"171 570 CURVE SMOOTH",
"143 570 OFFCURVE",
"122 594 OFFCURVE",
"122 619 CURVE SMOOTH {name = hr00;}"
);
},
{
closed = 1;
nodes = (
"262 646 OFFCURVE",
"282 668 OFFCURVE",
"310 668 CURVE SMOOTH",
"335 668 OFFCURVE",
"357 646 OFFCURVE",
"357 619 CURVE SMOOTH",
"357 594 OFFCURVE",
"335 570 OFFCURVE",
"310 570 CURVE SMOOTH",
"282 570 OFFCURVE",
"262 594 OFFCURVE",
"262 619 CURVE SMOOTH"
);
},
{
closed = 1;
nodes = (
"306 52 OFFCURVE",
"350 65 OFFCURVE",
"381 88 CURVE",
"398 34 LINE",
"360 6 OFFCURVE",
"308 -4 OFFCURVE",
"259 -4 CURVE SMOOTH {name = hr01;}",
"113 -4 OFFCURVE",
"42 101 OFFCURVE",
"42 232 CURVE SMOOTH",
"42 369 OFFCURVE",
"120 479 OFFCURVE",
"252 479 CURVE SMOOTH",
"333 479 OFFCURVE",
"401 431 OFFCURVE",
"401 348 CURVE SMOOTH",
"401 204 OFFCURVE",
"236 186 OFFCURVE",
"111 185 CURVE",
"124 108 OFFCURVE",
"171 52 OFFCURVE",
"264 52 CURVE SMOOTH"
);
},
{
closed = 1;
nodes = (
"200 244 OFFCURVE",
"335 248 OFFCURVE",
"335 348 CURVE SMOOTH",
"335 401 OFFCURVE",
"290 422 OFFCURVE",
"251 422 CURVE SMOOTH",
"159 422 OFFCURVE",
"112 339 OFFCURVE",
"108 244 CURVE",
"125 244 LINE SMOOTH"
);
}
);
width = 443;
}
);
leftKerningGroup = o;
rightKerningGroup = e;
unicode = 00EB;
userData = {
com.typemytype.robofont.mark = (
0.713,
0.6,
1,
1
);
};
},
{
color = 10;
glyphname = egrave;
layers = (
{
components = (
{
name = e;
},
{
name = gravecomb;
transform = "{1, 0, 0, 1, 260, 0}";
}
);
layerId = "CBC04B6C-E875-491C-A1C2-2B8D0972DDA1";
width = 443;
},
{
components = (
{
name = e;
},
{
name = gravecomb;
transform = "{1, 0, 0, 1, 266, 0}";
}
);
layerId = "682D4A5D-117B-492A-B436-118C610C28E8";
width = 454;
},
{
associatedMasterId = "682D4A5D-117B-492A-B436-118C610C28E8";
layerId = "5AB15F8D-CC5C-4180-A59F-FCB77D2208BB";
name = "Jul 27 18, 10:59";
paths = (
{
closed = 1;
nodes = (
"146 491 OFFCURVE",
"30 415 OFFCURVE",
"30 239 CURVE SMOOTH",
"30 74 OFFCURVE",
"143 -4 OFFCURVE",
"257 -4 CURVE SMOOTH",
"339 -4 OFFCURVE",
"402 32 OFFCURVE",
"420 56 CURVE",
"397 143 LINE",
"373 120 OFFCURVE",
"338 91 OFFCURVE",
"277 91 CURVE SMOOTH",
"196 91 OFFCURVE",
"164 138 OFFCURVE",
"156 198 CURVE",
"170 197 OFFCURVE",
"189 197 OFFCURVE",
"207 197 CURVE SMOOTH",
"322 197 OFFCURVE",
"424 243 OFFCURVE",
"424 354 CURVE SMOOTH",
"424 448 OFFCURVE",
"336 491 OFFCURVE",
"253 491 CURVE SMOOTH {name = hr00;}"
);
},
{
closed = 1;
nodes = (
"162 344 OFFCURVE",
"206 396 OFFCURVE",
"255 396 CURVE SMOOTH",
"282 396 OFFCURVE",
"301 380 OFFCURVE",
"301 350 CURVE SMOOTH",
"301 297 OFFCURVE",
"241 281 OFFCURVE",
"190 281 CURVE SMOOTH",
"180 281 OFFCURVE",
"164 281 OFFCURVE",
"157 282 CURVE"
);
},
{
closed = 1;
nodes = (
"102 630 LINE",
"179 736 LINE",
"215 722 LINE",
"341 561 LINE",
"295 509 LINE"
);
}
);
width = 454;
},
{
associatedMasterId = "CBC04B6C-E875-491C-A1C2-2B8D0972DDA1";
layerId = "C3357D83-DAA0-4CD5-AAF3-47B06B48D70E";
name = "Jul 27 18, 10:59";
paths = (
{
closed = 1;
nodes = (
"306 52 OFFCURVE",
"350 65 OFFCURVE",
"381 88 CURVE",
"398 34 LINE",
"360 6 OFFCURVE",
"308 -4 OFFCURVE",
"259 -4 CURVE SMOOTH",
"113 -4 OFFCURVE",
"42 101 OFFCURVE",
"42 232 CURVE SMOOTH",
"42 369 OFFCURVE",
"120 479 OFFCURVE",
"252 479 CURVE SMOOTH",
"333 479 OFFCURVE",
"401 431 OFFCURVE",
"401 348 CURVE SMOOTH",
"401 204 OFFCURVE",
"236 186 OFFCURVE",
"111 185 CURVE",
"124 108 OFFCURVE",
"171 52 OFFCURVE",
"264 52 CURVE SMOOTH {name = hr00;}"
);
},
{
closed = 1;
nodes = (
"200 244 OFFCURVE",
"335 248 OFFCURVE",
"335 348 CURVE SMOOTH",
"335 401 OFFCURVE",
"290 422 OFFCURVE",
"251 422 CURVE SMOOTH",
"159 422 OFFCURVE",
"112 339 OFFCURVE",
"108 244 CURVE",
"125 244 LINE SMOOTH"
);
},
{
closed = 1;
nodes = (
"129 673 LINE",
"173 726 LINE",
"199 726 LINE",
"303 586 LINE",
"269 553 LINE"
);
}
);
width = 443;
}
);
leftKerningGroup = o;
rightKerningGroup = e;
unicode = 00E8;
userData = {
com.typemytype.robofont.mark = (
0.713,
0.6,
1,
1
);
};
},
{
color = 10;
glyphname = f;
layers = (
{
layerId = "CBC04B6C-E875-491C-A1C2-2B8D0972DDA1";
paths = (
{
closed = 1;
nodes = (
"274 0 LINE",
"274 45 LINE",
"164 61 LINE",
"164 422 LINE",
"279 422 LINE",
"279 473 LINE SMOOTH",
"279 476 OFFCURVE",
"277 479 OFFCURVE",
"274 479 CURVE SMOOTH",
"164 479 LINE",
"164 608 LINE SMOOTH",
"164 639 OFFCURVE",
"170 670 OFFCURVE",
"212 670 CURVE SMOOTH",
"230 670 LINE",
"286 622 LINE",
"335 690 LINE",
"302 710 OFFCURVE",
"263 727 OFFCURVE",
"223 727 CURVE SMOOTH",
"137 727 OFFCURVE",
"101 673 OFFCURVE",
"101 596 CURVE SMOOTH",
"101 479 LINE",
"31 479 LINE",
"24 468 LINE",
"38 422 LINE {name = hr00;}",
"101 422 LINE",
"101 58 LINE",
"42 44 LINE",
"50 0 LINE"
);
}
);
width = 311;
},
{
layerId = "682D4A5D-117B-492A-B436-118C610C28E8";
paths = (
{
closed = 1;
nodes = (
"315 0 LINE",
"316 63 LINE",
"220 74 LINE",
"220 400 LINE",
"339 400 LINE {name = hr00;}",
"339 485 LINE SMOOTH",
"339 489 OFFCURVE",
"338 491 OFFCURVE",
"334 491 CURVE SMOOTH",
"220 491 LINE",
"220 592 LINE SMOOTH",
"220 618 OFFCURVE",
"231 639 OFFCURVE",
"255 639 CURVE SMOOTH",
"260 639 LINE",
"300 584 LINE",
"414 653 LINE",
"367 719 OFFCURVE",
"301 734 OFFCURVE",
"261 734 CURVE SMOOTH",
"178 734 OFFCURVE",
"100 683 OFFCURVE",
"100 541 CURVE SMOOTH",
"100 491 LINE",
"19 491 LINE",
"12 481 LINE",
"27 400 LINE",
"99 400 LINE",
"99 76 LINE",
"45 63 LINE",
"59 0 LINE"
);
}
);
width = 359;
}
);
unicode = 0066;
userData = {
com.typemytype.robofont.mark = (
0.713,
0.6,
1,
1
);
};
},
{
color = 10;
glyphname = g;
layers = (
{
anchors = (
{
name = top;
position = "{225, 481}";
}
);
layerId = "CBC04B6C-E875-491C-A1C2-2B8D0972DDA1";
paths = (
{
closed = 1;
nodes = (
"319 -265 OFFCURVE",
"421 -209 OFFCURVE",
"421 -94 CURVE SMOOTH",
"421 3 OFFCURVE",
"345 32 OFFCURVE",
"261 54 CURVE {name = hr02;}",
"156 82 LINE",
"153 103 LINE",
"174 134 LINE",
"190 130 OFFCURVE",
"208 128 OFFCURVE",
"226 128 CURVE SMOOTH",
"331 128 OFFCURVE",
"406 200 OFFCURVE",
"406 304 CURVE SMOOTH",
"406 341 OFFCURVE",
"396 374 OFFCURVE",
"379 401 CURVE {name = hr01;}",
"466 412 LINE",
"456 480 LINE",
"437 483 LINE",
"346 438 LINE",
"315 464 OFFCURVE",
"274 479 OFFCURVE",
"226 479 CURVE SMOOTH {name = hr00;}",
"121 479 OFFCURVE",
"47 407 OFFCURVE",
"47 303 CURVE SMOOTH",
"47 240 OFFCURVE",
"74 190 OFFCURVE",
"118 159 CURVE",
"99 139 OFFCURVE",
"81 115 OFFCURVE",
"81 87 CURVE SMOOTH",
"81 61 OFFCURVE",
"94 44 OFFCURVE",
"114 31 CURVE {name = hr03;}",
"70 10 OFFCURVE",
"22 -35 OFFCURVE",
"22 -105 CURVE SMOOTH",
"22 -209 OFFCURVE",
"116 -265 OFFCURVE",
"217 -265 CURVE SMOOTH"
);
},
{
closed = 1;
nodes = (
"165 -202 OFFCURVE",
"85 -172 OFFCURVE",
"85 -103 CURVE SMOOTH",
"85 -49 OFFCURVE",
"129 -11 OFFCURVE",
"178 6 CURVE {name = hr04;}",
"260 -15 OFFCURVE",
"364 -25 OFFCURVE",
"364 -102 CURVE SMOOTH",
"364 -165 OFFCURVE",
"291 -202 OFFCURVE",
"220 -202 CURVE SMOOTH"
);
},
{
closed = 1;
nodes = (
"154 185 OFFCURVE",
"113 236 OFFCURVE",
"113 304 CURVE SMOOTH",
"113 372 OFFCURVE",
"154 422 OFFCURVE",
"226 422 CURVE SMOOTH",
"298 422 OFFCURVE",
"340 372 OFFCURVE",
"340 304 CURVE SMOOTH",
"340 236 OFFCURVE",
"298 185 OFFCURVE",
"226 185 CURVE SMOOTH"
);
}
);
width = 476;
},
{
anchors = (
{
name = top;
position = "{232, 491}";
}
);
layerId = "682D4A5D-117B-492A-B436-118C610C28E8";
paths = (
{
closed = 1;
nodes = (
"345 -272 OFFCURVE",
"449 -202 OFFCURVE",
"449 -81 CURVE SMOOTH",
"449 -8 OFFCURVE",
"398 39 OFFCURVE",
"292 61 CURVE SMOOTH",
"190 82 LINE",
"188 96 LINE",
"206 123 LINE",
"214 122 OFFCURVE",
"223 122 OFFCURVE",
"232 122 CURVE SMOOTH",
"331 122 OFFCURVE",
"432 182 OFFCURVE",
"432 302 CURVE SMOOTH {name = hr01;}",
"432 335 OFFCURVE",
"424 365 OFFCURVE",
"411 390 CURVE",
"504 401 LINE",
"493 500 LINE",
"470 503 LINE",
"361 448 LINE",
"325 476 OFFCURVE",
"278 491 OFFCURVE",
"232 491 CURVE SMOOTH {name = hr00;}",
"134 491 OFFCURVE",
"33 423 OFFCURVE",
"33 302 CURVE SMOOTH",
"33 233 OFFCURVE",
"66 184 OFFCURVE",
"112 155 CURVE",
"91 135 OFFCURVE",
"75 108 OFFCURVE",
"75 73 CURVE SMOOTH",
"75 44 OFFCURVE",
"84 22 OFFCURVE",
"99 6 CURVE",
"56 -19 OFFCURVE",
"22 -60 OFFCURVE",
"22 -123 CURVE SMOOTH",
"22 -208 OFFCURVE",
"96 -272 OFFCURVE",
"215 -272 CURVE SMOOTH"
);
},
{
closed = 1;
nodes = (
"156 -152 OFFCURVE",
"131 -119 OFFCURVE",
"131 -93 CURVE SMOOTH",
"131 -73 OFFCURVE",
"141 -52 OFFCURVE",
"170 -34 CURVE",
"250 -60 OFFCURVE",
"353 -58 OFFCURVE",
"353 -98 CURVE SMOOTH {name = hr03;}",
"353 -131 OFFCURVE",
"297 -152 OFFCURVE",
"242 -152 CURVE SMOOTH"
);
},
{
closed = 1;
nodes = (
"180 216 OFFCURVE",
"157 259 OFFCURVE",
"157 307 CURVE SMOOTH",
"157 354 OFFCURVE",
"180 397 OFFCURVE",
"232 397 CURVE SMOOTH",
"285 397 OFFCURVE",
"308 354 OFFCURVE",
"308 307 CURVE SMOOTH",
"308 259 OFFCURVE",
"285 216 OFFCURVE",
"232 216 CURVE SMOOTH"
);
}
);
width = 503;
}
);
unicode = 0067;
userData = {
com.typemytype.robofont.mark = (
0.713,
0.6,
1,
1
);
};
},
{
color = 10;
glyphname = h;
layers = (
{
anchors = (
{
name = bar;
position = "{153, 590}";
}
);
layerId = "CBC04B6C-E875-491C-A1C2-2B8D0972DDA1";
paths = (
{
closed = 1;
nodes = (
"207 0 LINE",
"207 45 LINE",
"151 58 LINE",
"151 379 LINE",
"181 406 OFFCURVE",
"225 422 OFFCURVE",
"266 422 CURVE SMOOTH",
"322 422 OFFCURVE",
"351 391 OFFCURVE",
"351 327 CURVE SMOOTH",
"351 58 LINE",
"291 44 LINE",
"295 0 LINE",
"475 0 LINE",
"475 44 LINE",
"414 58 LINE",
"414 334 LINE SMOOTH",
"414 429 OFFCURVE",
"363 479 OFFCURVE",
"271 479 CURVE SMOOTH",
"228 479 OFFCURVE",
"186 465 OFFCURVE",
"151 441 CURVE",
"151 697 LINE {name = hr00;}",
"122 727 LINE",
"24 710 LINE",
"33 661 LINE",
"88 661 LINE",
"88 58 LINE",
"30 44 LINE",
"35 0 LINE"
);
}
);
width = 498;
},
{
anchors = (
{
name = bar;
position = "{189, 583}";
}
);
layerId = "682D4A5D-117B-492A-B436-118C610C28E8";
paths = (
{
closed = 1;
nodes = (
"257 0 LINE",
"258 64 LINE",
"201 75 LINE",
"201 356 LINE",
"210 367 OFFCURVE",
"249 393 OFFCURVE",
"288 393 CURVE SMOOTH",
"327 393 OFFCURVE",
"350 374 OFFCURVE",
"350 331 CURVE SMOOTH",
"350 75 LINE {name = hr00;}",
"300 64 LINE",
"300 0 LINE",
"525 0 LINE",
"526 64 LINE",
"471 76 LINE",
"471 359 LINE SMOOTH",
"471 450 OFFCURVE",
"400 491 OFFCURVE",
"317 491 CURVE SMOOTH",
"273 491 OFFCURVE",
"226 473 OFFCURVE",
"201 455 CURVE",
"201 700 LINE",
"166 737 LINE",
"18 716 LINE",
"28 648 LINE",
"80 648 LINE",
"80 77 LINE",
"23 64 LINE",
"35 0 LINE"
);
}
);
width = 547;
}
);
leftKerningGroup = h;
rightKerningGroup = n;
unicode = 0068;
userData = {
com.typemytype.robofont.mark = (
0.713,
0.6,
1,
1
);
};
},
{
color = 10;
glyphname = i;
layers = (
{
layerId = "CBC04B6C-E875-491C-A1C2-2B8D0972DDA1";
paths = (
{
closed = 1;
nodes = (
"221 0 LINE",
"221 44 LINE",
"160 59 LINE",
"160 451 LINE {name = hr00;}",
"133 481 LINE",
"34 463 LINE",
"43 412 LINE",
"97 416 LINE",
"97 58 LINE",
"37 43 LINE",
"46 0 LINE"
);
},
{
closed = 1;
nodes = (
"140 619 OFFCURVE",
"164 642 OFFCURVE",
"164 671 CURVE SMOOTH",
"164 700 OFFCURVE",
"140 724 OFFCURVE",
"111 724 CURVE SMOOTH",
"82 724 OFFCURVE",
"59 700 OFFCURVE",
"59 671 CURVE SMOOTH",
"59 642 OFFCURVE",
"82 619 OFFCURVE",
"111 619 CURVE SMOOTH"
);
}
);
width = 249;
},
{
layerId = "682D4A5D-117B-492A-B436-118C610C28E8";
paths = (
{
closed = 1;
nodes = (
"264 0 LINE",
"264 64 LINE",
"209 75 LINE",
"209 456 LINE",
"175 492 LINE",
"26 466 LINE",
"37 398 LINE",
"88 398 LINE {name = hr01;}",
"88 77 LINE",
"32 64 LINE",
"43 0 LINE"
);
},
{
closed = 1;
nodes = (
"181 590 OFFCURVE",
"213 623 OFFCURVE",
"213 663 CURVE SMOOTH",
"213 702 OFFCURVE",
"181 735 OFFCURVE",
"141 735 CURVE SMOOTH",
"101 735 OFFCURVE",
"68 702 OFFCURVE",
"68 663 CURVE SMOOTH {name = hr00;}",
"68 623 OFFCURVE",
"101 590 OFFCURVE",
"141 590 CURVE SMOOTH"
);
}
);
width = 288;
}
);
leftKerningGroup = i;
rightKerningGroup = i;
unicode = 0069;
userData = {
com.typemytype.robofont.mark = (
0.713,
0.6,
1,
1
);
};
},
{
color = 10;
glyphname = j;
layers = (
{
layerId = "CBC04B6C-E875-491C-A1C2-2B8D0972DDA1";
paths = (
{
closed = 1;
nodes = (
"136 -273 OFFCURVE",
"155 -218 OFFCURVE",
"155 -166 CURVE SMOOTH",
"155 451 LINE",
"128 481 LINE",
"15 462 LINE",
"23 411 LINE",
"92 416 LINE",
"92 -156 LINE SMOOTH",
"92 -189 OFFCURVE",
"90 -217 OFFCURVE",
"60 -217 CURVE SMOOTH",
"37 -217 OFFCURVE",
"18 -201 OFFCURVE",
"7 -190 CURVE",
"-26 -238 LINE",
"-15 -248 OFFCURVE",
"16 -273 OFFCURVE",
"59 -273 CURVE SMOOTH"
);
},
{
closed = 1;
nodes = (
"134 619 OFFCURVE",
"158 642 OFFCURVE",
"158 671 CURVE SMOOTH",
"158 700 OFFCURVE",
"134 724 OFFCURVE",
"105 724 CURVE SMOOTH",
"76 724 OFFCURVE",
"53 700 OFFCURVE",
"53 671 CURVE SMOOTH {name = hr00;}",
"53 642 OFFCURVE",
"76 619 OFFCURVE",
"105 619 CURVE SMOOTH"
);
}
);
width = 228;
},
{
layerId = "682D4A5D-117B-492A-B436-118C610C28E8";
paths = (
{
closed = 1;
nodes = (
"107 -268 OFFCURVE",
"200 -258 OFFCURVE",
"200 -103 CURVE SMOOTH",
"200 456 LINE {name = hr00;}",
"165 492 LINE",
"17 466 LINE",
"28 398 LINE",
"79 398 LINE",
"79 -105 LINE SMOOTH",
"79 -137 OFFCURVE",
"78 -161 OFFCURVE",
"55 -161 CURVE SMOOTH",
"44 -161 OFFCURVE",
"34 -154 OFFCURVE",
"27 -148 CURVE",
"-27 -233 LINE",
"1 -257 OFFCURVE",
"34 -268 OFFCURVE",
"67 -268 CURVE SMOOTH"
);
},
{
closed = 1;
nodes = (
"164 590 OFFCURVE",
"197 623 OFFCURVE",
"197 663 CURVE SMOOTH",
"197 702 OFFCURVE",
"164 735 OFFCURVE",
"124 735 CURVE SMOOTH",
"85 735 OFFCURVE",
"52 702 OFFCURVE",
"52 663 CURVE SMOOTH {name = hr01;}",
"52 623 OFFCURVE",
"85 590 OFFCURVE",
"124 590 CURVE SMOOTH"
);
}
);
width = 264;
}
);
unicode = 006A;
userData = {
com.typemytype.robofont.mark = (
0.713,
0.6,
1,
1
);
};
},
{
color = 10;
glyphname = k;
layers = (
{
anchors = (
{
name = bottom;
position = "{255, 0}";
}
);
layerId = "CBC04B6C-E875-491C-A1C2-2B8D0972DDA1";
paths = (
{
closed = 1;
nodes = (
"207 0 LINE",
"207 45 LINE",
"151 58 LINE",
"151 194 LINE",
"210 250 LINE",
"338 0 LINE",
"437 0 LINE",
"437 44 LINE",
"385 55 LINE",
"262 297 LINE",
"430 454 LINE",
"416 481 LINE",
"278 481 LINE",
"286 434 LINE",
"327 434 LINE",
"151 271 LINE",
"151 697 LINE {name = hr00;}",
"124 727 LINE",
"24 710 LINE",
"33 661 LINE",
"88 661 LINE",
"88 58 LINE",
"30 44 LINE",
"35 0 LINE"
);
}
);
width = 458;
},
{
anchors = (
{
name = bottom;
position = "{268, 0}";
}
);
layerId = "682D4A5D-117B-492A-B436-118C610C28E8";
paths = (
{
closed = 1;
nodes = (
"247 0 LINE",
"248 64 LINE",
"201 75 LINE",
"201 149 LINE",
"250 198 LINE",
"343 0 LINE",
"494 0 LINE",
"493 62 LINE",
"446 73 LINE",
"339 287 LINE",
"478 426 LINE",
"443 491 LINE",
"266 491 LINE",
"276 413 LINE",
"329 413 LINE",
"201 272 LINE",
"201 700 LINE",
"166 737 LINE {name = hr00;}",
"18 716 LINE",
"28 648 LINE",
"80 648 LINE",
"80 77 LINE",
"23 64 LINE",
"35 0 LINE"
);
}
);
width = 509;
}
);
leftKerningGroup = h;
unicode = 006B;
userData = {
com.typemytype.robofont.mark = (
0.713,
0.6,
1,
1
);
};
},
{
color = 10;
glyphname = l;
layers = (
{
anchors = (
{
name = bottom;
position = "{118, 0}";
},
{
name = top;
position = "{101, 727}";
}
);
layerId = "CBC04B6C-E875-491C-A1C2-2B8D0972DDA1";
paths = (
{
closed = 1;
nodes = (
"213 0 LINE",
"213 44 LINE",
"152 57 LINE",
"152 697 LINE {name = hr00;}",
"123 727 LINE",
"25 710 LINE",
"34 661 LINE",
"89 661 LINE",
"89 58 LINE",
"25 44 LINE",
"30 0 LINE"
);
}
);
width = 241;
},
{
anchors = (
{
name = bottom;
position = "{151, 0}";
},
{
name = top;
position = "{134, 737}";
}
);
layerId = "682D4A5D-117B-492A-B436-118C610C28E8";
paths = (
{
closed = 1;
nodes = (
"265 0 LINE",
"265 63 LINE",
"200 79 LINE",
"200 700 LINE",
"165 737 LINE {name = hr00;}",
"16 716 LINE",
"27 648 LINE",
"79 648 LINE",
"79 77 LINE",
"23 63 LINE",
"34 0 LINE"
);
}
);
width = 284;
}
);
unicode = 006C;
userData = {
com.typemytype.robofont.mark = (
0.713,
0.6,
1,
1
);
};
},
{
color = 10;
glyphname = m;
layers = (
{
layerId = "CBC04B6C-E875-491C-A1C2-2B8D0972DDA1";
paths = (
{
closed = 1;
nodes = (
"219 0 LINE",
"219 44 LINE",
"158 59 LINE",
"158 380 LINE",
"188 407 OFFCURVE",
"232 422 OFFCURVE",
"273 422 CURVE SMOOTH",
"329 422 OFFCURVE",
"358 391 OFFCURVE",
"358 327 CURVE SMOOTH {name = hr02;}",
"358 58 LINE",
"298 44 LINE",
"302 0 LINE",
"482 0 LINE",
"482 44 LINE",
"421 58 LINE",
"421 372 LINE",
"463 417 OFFCURVE",
"505 422 OFFCURVE",
"535 422 CURVE SMOOTH",
"591 422 OFFCURVE",
"620 391 OFFCURVE",
"620 327 CURVE SMOOTH",
"620 58 LINE {name = hr01;}",
"560 44 LINE",
"564 0 LINE",
"744 0 LINE",
"744 44 LINE",
"683 58 LINE {name = hr00;}",
"683 334 LINE SMOOTH",
"683 429 OFFCURVE",
"631 479 OFFCURVE",
"535 479 CURVE SMOOTH",
"513 479 OFFCURVE",
"456 478 OFFCURVE",
"395 429 CURVE",
"370 463 OFFCURVE",
"329 479 OFFCURVE",
"278 479 CURVE SMOOTH",
"242 479 OFFCURVE",
"192 465 OFFCURVE",
"155 440 CURVE",
"133 481 LINE",
"32 463 LINE",
"41 416 LINE",
"95 420 LINE",
"95 58 LINE",
"40 43 LINE",
"46 0 LINE"
);
}
);
width = 767;
},
{
layerId = "682D4A5D-117B-492A-B436-118C610C28E8";
paths = (
{
closed = 1;
nodes = (
"265 0 LINE",
"266 63 LINE",
"209 75 LINE",
"209 356 LINE",
"218 367 OFFCURVE",
"257 393 OFFCURVE",
"296 393 CURVE SMOOTH {name = hr02;}",
"335 393 OFFCURVE",
"358 374 OFFCURVE",
"358 331 CURVE SMOOTH",
"358 75 LINE {name = hr00;}",
"310 64 LINE",
"310 0 LINE",
"530 0 LINE",
"531 64 LINE",
"478 74 LINE",
"478 356 LINE",
"487 367 OFFCURVE",
"526 393 OFFCURVE",
"565 393 CURVE SMOOTH",
"604 393 OFFCURVE",
"627 374 OFFCURVE",
"627 331 CURVE SMOOTH",
"627 75 LINE",
"571 63 LINE",
"571 0 LINE",
"798 0 LINE",
"799 64 LINE",
"748 76 LINE",
"748 359 LINE SMOOTH",
"748 450 OFFCURVE",
"679 491 OFFCURVE",
"597 491 CURVE SMOOTH",
"545 491 OFFCURVE",
"496 479 OFFCURVE",
"448 444 CURVE",
"420 476 OFFCURVE",
"375 491 OFFCURVE",
"325 491 CURVE SMOOTH",
"281 491 OFFCURVE",
"234 473 OFFCURVE",
"209 455 CURVE",
"174 492 LINE {name = hr01;}",
"26 466 LINE",
"37 398 LINE",
"88 398 LINE",
"88 77 LINE",
"30 63 LINE",
"43 0 LINE"
);
}
);
width = 821;
}
);
leftKerningGroup = n;
rightKerningGroup = n;
unicode = 006D;
userData = {
com.typemytype.robofont.mark = (
0.713,
0.6,
1,
1
);
};
},
{
color = 10;
glyphname = n;
layers = (
{
anchors = (
{
name = bottom;
position = "{258, 0}";
},
{
name = top;
position = "{267, 481}";
}
);
layerId = "CBC04B6C-E875-491C-A1C2-2B8D0972DDA1";
paths = (
{
closed = 1;
nodes = (
"219 0 LINE",
"219 44 LINE",
"158 59 LINE",
"158 380 LINE",
"188 407 OFFCURVE",
"232 422 OFFCURVE",
"273 422 CURVE SMOOTH",
"329 422 OFFCURVE",
"358 391 OFFCURVE",
"358 327 CURVE SMOOTH",
"358 58 LINE",
"298 44 LINE",
"302 0 LINE {name = hr01;}",
"482 0 LINE",
"482 44 LINE",
"421 58 LINE {name = hr00;}",
"421 334 LINE SMOOTH",
"421 429 OFFCURVE",
"370 479 OFFCURVE",
"278 479 CURVE SMOOTH",
"234 479 OFFCURVE",
"191 465 OFFCURVE",
"155 440 CURVE",
"133 481 LINE",
"32 463 LINE",
"41 416 LINE",
"95 420 LINE",
"95 58 LINE {name = hr02;}",
"40 43 LINE",
"46 0 LINE"
);
}
);
width = 505;
},
{
anchors = (
{
name = bottom;
position = "{286, 0}";
},
{
name = top;
position = "{268, 492}";
}
);
layerId = "682D4A5D-117B-492A-B436-118C610C28E8";
paths = (
{
closed = 1;
nodes = (
"265 0 LINE",
"266 63 LINE",
"209 75 LINE",
"209 356 LINE",
"218 367 OFFCURVE",
"257 393 OFFCURVE",
"296 393 CURVE SMOOTH {name = hr01;}",
"335 393 OFFCURVE",
"358 374 OFFCURVE",
"358 331 CURVE SMOOTH",
"358 75 LINE",
"308 64 LINE",
"308 0 LINE",
"533 0 LINE",
"534 64 LINE",
"479 73 LINE",
"479 359 LINE SMOOTH",
"479 450 OFFCURVE",
"408 491 OFFCURVE",
"325 491 CURVE SMOOTH {name = hr02;}",
"281 491 OFFCURVE",
"234 473 OFFCURVE",
"209 455 CURVE",
"174 492 LINE {name = hr00;}",
"26 466 LINE",
"37 398 LINE",
"88 398 LINE",
"88 77 LINE",
"32 64 LINE",
"43 0 LINE"
);
}
);
width = 555;
}
);
leftKerningGroup = n;
rightKerningGroup = n;
unicode = 006E;
userData = {
com.typemytype.robofont.mark = (
0.713,
0.6,
1,
1
);
};
},
{
color = 10;
glyphname = ntilde;
layers = (
{
components = (
{
name = n;
},
{
name = tildecomb;
transform = "{1, 0, 0, 1, 267, 0}";
}
);
layerId = "CBC04B6C-E875-491C-A1C2-2B8D0972DDA1";
width = 505;
},
{
components = (
{
name = n;
},
{
name = tildecomb;
transform = "{1, 0, 0, 1, 268, 1}";
}
);
layerId = "682D4A5D-117B-492A-B436-118C610C28E8";
width = 555;
},
{
associatedMasterId = "682D4A5D-117B-492A-B436-118C610C28E8";
layerId = "DA745368-40D1-4022-ADF5-E7F3C78CBDBB";
name = "Jul 27 18, 11:24";
paths = (
{
closed = 1;
nodes = (
"340 651 OFFCURVE",
"294 691 OFFCURVE",
"242 691 CURVE SMOOTH",
"170 691 OFFCURVE",
"134 637 OFFCURVE",
"123 609 CURVE",
"122 590 LINE",
"186 548 LINE",
"193 570 OFFCURVE",
"211 596 OFFCURVE",
"247 596 CURVE SMOOTH",
"288 596 OFFCURVE",
"316 555 OFFCURVE",
"365 555 CURVE SMOOTH {name = hr01;}",
"406 555 OFFCURVE",
"441 594 OFFCURVE",
"465 628 CURVE",
"392 698 LINE {name = hr02;}",
"355 647 LINE {name = hr00;}"
);
},
{
closed = 1;
nodes = (
"152 489 OFFCURVE",
"62 471 OFFCURVE",
"26 466 CURVE",
"37 398 LINE",
"88 398 LINE",
"88 77 LINE",
"32 64 LINE",
"43 0 LINE",
"265 0 LINE",
"265 9 OFFCURVE",
"266 38 OFFCURVE",
"266 63 CURVE",
"209 75 LINE",
"209 356 LINE",
"218 367 OFFCURVE",
"257 393 OFFCURVE",
"296 393 CURVE SMOOTH",
"335 393 OFFCURVE",
"358 374 OFFCURVE",
"358 331 CURVE SMOOTH",
"358 75 LINE",
"308 64 LINE",
"308 0 LINE",
"533 0 LINE",
"533 9 OFFCURVE",
"534 39 OFFCURVE",
"534 64 CURVE",
"479 73 LINE",
"479 359 LINE SMOOTH",
"479 450 OFFCURVE",
"408 491 OFFCURVE",
"325 491 CURVE SMOOTH",
"281 491 OFFCURVE",
"234 473 OFFCURVE",
"209 455 CURVE",
"174 492 LINE"
);
}
);
width = 555;
},
{
associatedMasterId = "CBC04B6C-E875-491C-A1C2-2B8D0972DDA1";
layerId = "FE24D3A8-48BD-4023-87F2-FA6F948D9308";
name = "Jul 27 18, 11:24";
paths = (
{
closed = 1;
nodes = (
"408 601 LINE",
"382 579 OFFCURVE",
"361 563 OFFCURVE",
"325 563 CURVE SMOOTH",
"276 563 OFFCURVE",
"254 600 OFFCURVE",
"216 600 CURVE",
"186 598 OFFCURVE",
"168 580 OFFCURVE",
"158 554 CURVE",
"115 580 LINE",
"116 597 LINE",
"134 629 OFFCURVE",
"161 663 OFFCURVE",
"209 663 CURVE SMOOTH",
"248 663 OFFCURVE",
"285 633 OFFCURVE",
"318 622 CURVE",
"371 663 LINE {name = hr00;}"
);
},
{
closed = 1;
nodes = (
"482 44 LINE",
"482 0 LINE",
"302 0 LINE",
"298 44 LINE",
"358 58 LINE",
"358 327 LINE SMOOTH",
"358 391 OFFCURVE",
"329 422 OFFCURVE",
"273 422 CURVE SMOOTH",
"232 422 OFFCURVE",
"188 407 OFFCURVE",
"158 380 CURVE",
"158 59 LINE",
"219 44 LINE",
"219 0 LINE",
"46 0 LINE",
"40 43 LINE",
"95 58 LINE",
"95 420 LINE",
"41 416 LINE",
"32 463 LINE",
"133 481 LINE",
"155 440 LINE {name = hr01;}",
"191 465 OFFCURVE",
"234 479 OFFCURVE",
"278 479 CURVE SMOOTH",
"370 479 OFFCURVE",
"421 429 OFFCURVE",
"421 334 CURVE SMOOTH",
"421 58 LINE"
);
}
);
width = 505;
}
);
leftKerningGroup = n;
rightKerningGroup = n;
unicode = 00F1;
userData = {
com.typemytype.robofont.mark = (
0.713,
0.6,
1,
1
);
};
},
{
color = 10;
glyphname = o;
layers = (
{
anchors = (
{
name = bottom;
position = "{244, 0}";
},
{
name = top;
position = "{243, 480}";
}
);
layerId = "CBC04B6C-E875-491C-A1C2-2B8D0972DDA1";
paths = (
{
closed = 1;
nodes = (
"386 -4 OFFCURVE",
"447 116 OFFCURVE",
"447 240 CURVE SMOOTH",
"447 364 OFFCURVE",
"386 481 OFFCURVE",
"244 481 CURVE SMOOTH",
"111 481 OFFCURVE",
"42 369 OFFCURVE",
"42 240 CURVE SMOOTH {name = hr00;}",
"42 117 OFFCURVE",
"105 -4 OFFCURVE",
"244 -4 CURVE SMOOTH"
);
},
{
closed = 1;
nodes = (
"148 54 OFFCURVE",
"108 144 OFFCURVE",
"108 228 CURVE SMOOTH",
"108 304 OFFCURVE",
"141 423 OFFCURVE",
"244 423 CURVE SMOOTH",
"345 423 OFFCURVE",
"381 319 OFFCURVE",
"381 235 CURVE SMOOTH",
"381 149 OFFCURVE",
"346 54 OFFCURVE",
"244 54 CURVE SMOOTH"
);
}
);
width = 489;
},
{
anchors = (
{
name = bottom;
position = "{248, -3}";
},
{
name = top;
position = "{249, 491}";
}
);
layerId = "682D4A5D-117B-492A-B436-118C610C28E8";
paths = (
{
closed = 1;
nodes = (
"359 -4 OFFCURVE",
"470 83 OFFCURVE",
"470 246 CURVE SMOOTH",
"470 408 OFFCURVE",
"359 491 OFFCURVE",
"249 491 CURVE SMOOTH",
"139 491 OFFCURVE",
"29 408 OFFCURVE",
"29 246 CURVE SMOOTH {name = hr00;}",
"29 83 OFFCURVE",
"139 -4 OFFCURVE",
"249 -4 CURVE SMOOTH"
);
},
{
closed = 1;
nodes = (
"197 90 OFFCURVE",
"153 128 OFFCURVE",
"153 240 CURVE SMOOTH",
"153 353 OFFCURVE",
"197 397 OFFCURVE",
"249 397 CURVE SMOOTH",
"302 397 OFFCURVE",
"346 353 OFFCURVE",
"346 240 CURVE SMOOTH",
"346 128 OFFCURVE",
"302 90 OFFCURVE",
"249 90 CURVE SMOOTH"
);
}
);
width = 499;
}
);
leftKerningGroup = o;
rightKerningGroup = o;
unicode = 006F;
userData = {
com.typemytype.robofont.mark = (
0.713,
0.6,
1,
1
);
};
},
{
color = 10;
glyphname = odieresis;
layers = (
{
layerId = "CBC04B6C-E875-491C-A1C2-2B8D0972DDA1";
paths = (
{
closed = 1;
nodes = (
"386 -4 OFFCURVE",
"447 116 OFFCURVE",
"447 240 CURVE SMOOTH",
"447 364 OFFCURVE",
"386 481 OFFCURVE",
"244 481 CURVE SMOOTH",
"111 481 OFFCURVE",
"42 369 OFFCURVE",
"42 240 CURVE SMOOTH",
"42 117 OFFCURVE",
"105 -4 OFFCURVE",
"244 -4 CURVE SMOOTH"
);
},
{
closed = 1;
nodes = (
"148 54 OFFCURVE",
"108 144 OFFCURVE",
"108 228 CURVE SMOOTH",
"108 304 OFFCURVE",
"141 423 OFFCURVE",
"244 423 CURVE SMOOTH",
"345 423 OFFCURVE",
"381 319 OFFCURVE",
"381 235 CURVE SMOOTH",
"381 149 OFFCURVE",
"346 54 OFFCURVE",
"244 54 CURVE SMOOTH"
);
},
{
closed = 1;
nodes = (
"206 570 OFFCURVE",
"229 594 OFFCURVE",
"229 619 CURVE SMOOTH",
"229 646 OFFCURVE",
"206 668 OFFCURVE",
"181 668 CURVE SMOOTH",
"153 668 OFFCURVE",
"132 646 OFFCURVE",
"132 619 CURVE SMOOTH {name = hr00;}",
"132 594 OFFCURVE",
"153 570 OFFCURVE",
"181 570 CURVE SMOOTH"
);
},
{
closed = 1;
nodes = (
"345 570 OFFCURVE",
"367 594 OFFCURVE",
"367 619 CURVE SMOOTH",
"367 646 OFFCURVE",
"345 668 OFFCURVE",
"320 668 CURVE SMOOTH",
"292 668 OFFCURVE",
"272 646 OFFCURVE",
"272 619 CURVE SMOOTH",
"272 594 OFFCURVE",
"292 570 OFFCURVE",
"320 570 CURVE SMOOTH"
);
}
);
width = 489;
},
{
layerId = "682D4A5D-117B-492A-B436-118C610C28E8";
paths = (
{
closed = 1;
nodes = (
"359 -4 OFFCURVE",
"470 83 OFFCURVE",
"470 246 CURVE SMOOTH",
"470 408 OFFCURVE",
"359 491 OFFCURVE",
"249 491 CURVE SMOOTH",
"139 491 OFFCURVE",
"29 408 OFFCURVE",
"29 246 CURVE SMOOTH {name = hr01;}",
"29 83 OFFCURVE",
"139 -4 OFFCURVE",
"249 -4 CURVE SMOOTH"
);
},
{
closed = 1;
nodes = (
"197 90 OFFCURVE",
"153 128 OFFCURVE",
"153 240 CURVE SMOOTH",
"153 353 OFFCURVE",
"197 397 OFFCURVE",
"249 397 CURVE SMOOTH",
"302 397 OFFCURVE",
"346 353 OFFCURVE",
"346 240 CURVE SMOOTH",
"346 128 OFFCURVE",
"302 90 OFFCURVE",
"249 90 CURVE SMOOTH"
);
},
{
closed = 1;
nodes = (
"202 572 OFFCURVE",
"229 600 OFFCURVE",
"229 634 CURVE SMOOTH",
"229 669 OFFCURVE",
"202 696 OFFCURVE",
"167 696 CURVE SMOOTH",
"132 696 OFFCURVE",
"105 669 OFFCURVE",
"105 634 CURVE SMOOTH {name = hr00;}",
"105 600 OFFCURVE",
"132 572 OFFCURVE",
"167 572 CURVE SMOOTH"
);
},
{
closed = 1;
nodes = (
"363 572 OFFCURVE",
"391 600 OFFCURVE",
"391 634 CURVE SMOOTH",
"391 669 OFFCURVE",
"363 696 OFFCURVE",
"329 696 CURVE SMOOTH",
"294 696 OFFCURVE",
"267 669 OFFCURVE",
"267 634 CURVE SMOOTH",
"267 600 OFFCURVE",
"294 572 OFFCURVE",
"329 572 CURVE SMOOTH"
);
}
);
width = 499;
}
);
leftKerningGroup = o;
rightKerningGroup = o;
unicode = 00F6;
userData = {
com.typemytype.robofont.mark = (
0.713,
0.6,
1,
1
);
};
},
{
color = 10;
glyphname = oslash;
layers = (
{
layerId = "CBC04B6C-E875-491C-A1C2-2B8D0972DDA1";
paths = (
{
closed = 1;
nodes = (
"111 -90 LINE {name = hr00;}",
"162 12 LINE",
"186 2 OFFCURVE",
"213 -4 OFFCURVE",
"244 -4 CURVE SMOOTH",
"386 -4 OFFCURVE",
"447 116 OFFCURVE",
"447 240 CURVE SMOOTH",
"447 316 OFFCURVE",
"424 390 OFFCURVE",
"373 435 CURVE",
"449 587 LINE",
"450 602 LINE",
"399 602 LINE",
"330 463 LINE",
"305 474 OFFCURVE",
"277 481 OFFCURVE",
"244 481 CURVE SMOOTH",
"111 481 OFFCURVE",
"42 369 OFFCURVE",
"42 240 CURVE SMOOTH",
"42 163 OFFCURVE",
"66 87 OFFCURVE",
"119 41 CURVE",
"60 -77 LINE",
"63 -90 LINE"
);
},
{
closed = 1;
nodes = (
"120 133 OFFCURVE",
"108 181 OFFCURVE",
"108 228 CURVE SMOOTH",
"108 304 OFFCURVE",
"141 423 OFFCURVE",
"244 423 CURVE SMOOTH",
"266 423 OFFCURVE",
"286 417 OFFCURVE",
"302 408 CURVE",
"148 99 LINE"
);
},
{
closed = 1;
nodes = (
"223 54 OFFCURVE",
"205 58 OFFCURVE",
"189 66 CURVE",
"342 373 LINE",
"369 335 OFFCURVE",
"381 282 OFFCURVE",
"381 235 CURVE SMOOTH",
"381 149 OFFCURVE",
"346 54 OFFCURVE",
"244 54 CURVE SMOOTH"
);
}
);
width = 489;
},
{
layerId = "682D4A5D-117B-492A-B436-118C610C28E8";
paths = (
{
closed = 1;
nodes = (
"167 -105 LINE",
"209 0 LINE",
"222 -3 OFFCURVE",
"236 -4 OFFCURVE",
"249 -4 CURVE SMOOTH",
"359 -4 OFFCURVE",
"470 83 OFFCURVE",
"470 246 CURVE SMOOTH",
"470 335 OFFCURVE",
"436 400 OFFCURVE",
"388 440 CURVE",
"442 572 LINE",
"443 585 LINE",
"325 585 LINE",
"285 488 LINE",
"273 490 OFFCURVE",
"261 491 OFFCURVE",
"249 491 CURVE SMOOTH",
"139 491 OFFCURVE",
"29 408 OFFCURVE",
"29 246 CURVE SMOOTH {name = hr00;}",
"29 158 OFFCURVE",
"60 93 OFFCURVE",
"107 51 CURVE",
"49 -92 LINE",
"52 -105 LINE"
);
},
{
closed = 1;
nodes = (
"155 195 OFFCURVE",
"153 216 OFFCURVE",
"153 240 CURVE SMOOTH",
"153 337 OFFCURVE",
"186 383 OFFCURVE",
"228 394 CURVE SMOOTH",
"235 396 OFFCURVE",
"241 397 OFFCURVE",
"248 397 CURVE",
"159 178 LINE"
);
},
{
closed = 1;
nodes = (
"264 91 OFFCURVE",
"256 90 OFFCURVE",
"249 90 CURVE",
"337 315 LINE",
"343 294 OFFCURVE",
"346 270 OFFCURVE",
"346 240 CURVE SMOOTH",
"346 144 OFFCURVE",
"313 102 OFFCURVE",
"270 92 CURVE SMOOTH"
);
}
);
width = 499;
},
{
associatedMasterId = "CBC04B6C-E875-491C-A1C2-2B8D0972DDA1";
layerId = "A43E62C1-805F-4C57-8C71-F68EC9DCAED7";
name = "Jul 27 18, 11:27";
paths = (
{
closed = 1;
nodes = (
"63 -90 LINE",
"60 -77 LINE",
"119 41 LINE",
"66 87 OFFCURVE",
"42 163 OFFCURVE",
"42 240 CURVE SMOOTH",
"42 369 OFFCURVE",
"111 481 OFFCURVE",
"244 481 CURVE SMOOTH",
"277 481 OFFCURVE",
"305 474 OFFCURVE",
"330 463 CURVE",
"399 602 LINE",
"450 602 LINE",
"449 587 LINE",
"373 435 LINE",
"424 390 OFFCURVE",
"447 316 OFFCURVE",
"447 240 CURVE SMOOTH",
"447 116 OFFCURVE",
"386 -4 OFFCURVE",
"244 -4 CURVE SMOOTH",
"213 -4 OFFCURVE",
"186 2 OFFCURVE",
"162 12 CURVE",
"111 -90 LINE {name = hr00;}"
);
},
{
closed = 1;
nodes = (
"108 181 OFFCURVE",
"120 133 OFFCURVE",
"148 99 CURVE",
"302 408 LINE",
"286 417 OFFCURVE",
"266 423 OFFCURVE",
"244 423 CURVE SMOOTH",
"141 423 OFFCURVE",
"108 304 OFFCURVE",
"108 228 CURVE SMOOTH"
);
},
{
closed = 1;
nodes = (
"346 54 OFFCURVE",
"381 149 OFFCURVE",
"381 235 CURVE SMOOTH",
"381 282 OFFCURVE",
"369 335 OFFCURVE",
"342 373 CURVE",
"189 66 LINE",
"205 58 OFFCURVE",
"223 54 OFFCURVE",
"244 54 CURVE SMOOTH"
);
}
);
width = 489;
},
{
associatedMasterId = "682D4A5D-117B-492A-B436-118C610C28E8";
layerId = "C97B2BB2-E452-4C03-9DE5-D0990ACA0F57";
name = "Jul 27 18, 11:27";
paths = (
{
closed = 1;
nodes = (
"29 158 OFFCURVE",
"60 93 OFFCURVE",
"107 51 CURVE",
"49 -92 LINE",
"52 -105 LINE",
"167 -105 LINE",
"209 0 LINE",
"222 -3 OFFCURVE",
"236 -4 OFFCURVE",
"249 -4 CURVE SMOOTH",
"359 -4 OFFCURVE",
"470 83 OFFCURVE",
"470 246 CURVE SMOOTH",
"470 335 OFFCURVE",
"436 400 OFFCURVE",
"388 440 CURVE",
"442 572 LINE",
"443 585 LINE",
"325 585 LINE",
"285 488 LINE",
"273 490 OFFCURVE",
"261 491 OFFCURVE",
"249 491 CURVE SMOOTH",
"139 491 OFFCURVE",
"29 408 OFFCURVE",
"29 246 CURVE SMOOTH {name = hr00;}"
);
},
{
closed = 1;
nodes = (
"346 128 OFFCURVE",
"302 90 OFFCURVE",
"249 90 CURVE",
"337 315 LINE",
"343 294 OFFCURVE",
"346 270 OFFCURVE",
"346 240 CURVE SMOOTH"
);
},
{
closed = 1;
nodes = (
"153 352 OFFCURVE",
"196 396 OFFCURVE",
"248 397 CURVE",
"159 178 LINE",
"155 195 OFFCURVE",
"153 216 OFFCURVE",
"153 240 CURVE SMOOTH"
);
}
);
width = 499;
}
);
leftKerningGroup = o;
rightKerningGroup = o;
unicode = 00F8;
userData = {
com.typemytype.robofont.mark = (
0.713,
0.6,
1,
1
);
};
},
{
color = 10;
glyphname = oe;
layers = (
{
layerId = "CBC04B6C-E875-491C-A1C2-2B8D0972DDA1";
paths = (
{
closed = 1;
nodes = (
"327 -4 OFFCURVE",
"382 37 OFFCURVE",
"414 96 CURVE",
"448 36 OFFCURVE",
"509 -3 OFFCURVE",
"598 -3 CURVE SMOOTH",
"647 -3 OFFCURVE",
"699 7 OFFCURVE",
"737 35 CURVE",
"720 89 LINE",
"689 66 OFFCURVE",
"645 53 OFFCURVE",
"603 53 CURVE SMOOTH",
"510 53 OFFCURVE",
"463 109 OFFCURVE",
"450 186 CURVE",
"467 186 LINE SMOOTH",
"600 189 OFFCURVE",
"740 211 OFFCURVE",
"740 349 CURVE SMOOTH",
"740 432 OFFCURVE",
"672 480 OFFCURVE",
"591 480 CURVE SMOOTH",
"518 480 OFFCURVE",
"455 439 OFFCURVE",
"418 375 CURVE",
"387 437 OFFCURVE",
"331 481 OFFCURVE",
"244 481 CURVE SMOOTH",
"111 481 OFFCURVE",
"42 369 OFFCURVE",
"42 240 CURVE SMOOTH {name = hr00;}",
"42 117 OFFCURVE",
"105 -4 OFFCURVE",
"244 -4 CURVE SMOOTH"
);
},
{
closed = 1;
nodes = (
"148 54 OFFCURVE",
"108 144 OFFCURVE",
"108 228 CURVE SMOOTH {name = hr01;}",
"108 304 OFFCURVE",
"141 423 OFFCURVE",
"244 423 CURVE SMOOTH",
"345 423 OFFCURVE",
"381 319 OFFCURVE",
"381 235 CURVE SMOOTH",
"378 120 OFFCURVE",
"329 54 OFFCURVE",
"244 54 CURVE SMOOTH"
);
},
{
closed = 1;
nodes = (
"451 340 OFFCURVE",
"498 423 OFFCURVE",
"590 423 CURVE SMOOTH {name = hr02;}",
"629 423 OFFCURVE",
"674 402 OFFCURVE",
"674 349 CURVE SMOOTH",
"674 249 OFFCURVE",
"539 245 OFFCURVE",
"464 245 CURVE SMOOTH",
"447 245 LINE"
);
}
);
width = 782;
},
{
layerId = "682D4A5D-117B-492A-B436-118C610C28E8";
paths = (
{
closed = 1;
nodes = (
"306 -4 OFFCURVE",
"364 20 OFFCURVE",
"406 66 CURVE",
"450 19 OFFCURVE",
"511 -4 OFFCURVE",
"573 -4 CURVE SMOOTH",
"655 -4 OFFCURVE",
"718 32 OFFCURVE",
"736 56 CURVE",
"713 143 LINE",
"689 120 OFFCURVE",
"654 91 OFFCURVE",
"593 91 CURVE SMOOTH",
"512 91 OFFCURVE",
"480 138 OFFCURVE",
"472 198 CURVE",
"523 197 LINE SMOOTH",
"638 197 OFFCURVE",
"740 243 OFFCURVE",
"740 354 CURVE SMOOTH",
"740 448 OFFCURVE",
"652 491 OFFCURVE",
"569 491 CURVE SMOOTH {name = hr00;}",
"511 491 OFFCURVE",
"452 469 OFFCURVE",
"408 421 CURVE",
"366 467 OFFCURVE",
"307 491 OFFCURVE",
"249 491 CURVE SMOOTH",
"139 491 OFFCURVE",
"29 408 OFFCURVE",
"29 246 CURVE SMOOTH",
"29 83 OFFCURVE",
"139 -4 OFFCURVE",
"249 -4 CURVE SMOOTH"
);
},
{
closed = 1;
nodes = (
"197 90 OFFCURVE",
"153 128 OFFCURVE",
"153 240 CURVE SMOOTH",
"153 353 OFFCURVE",
"197 397 OFFCURVE",
"249 397 CURVE SMOOTH",
"302 397 OFFCURVE",
"346 353 OFFCURVE",
"346 240 CURVE SMOOTH",
"346 128 OFFCURVE",
"302 90 OFFCURVE",
"249 90 CURVE SMOOTH"
);
},
{
closed = 1;
nodes = (
"478 344 OFFCURVE",
"522 396 OFFCURVE",
"571 396 CURVE SMOOTH",
"598 396 OFFCURVE",
"617 380 OFFCURVE",
"617 350 CURVE SMOOTH",
"617 297 OFFCURVE",
"557 281 OFFCURVE",
"506 281 CURVE SMOOTH",
"473 282 LINE"
);
}
);
width = 770;
}
);
leftKerningGroup = o;
rightKerningGroup = e;
unicode = 0153;
userData = {
com.typemytype.robofont.mark = (
0.713,
0.6,
1,
1
);
};
},
{
color = 10;
glyphname = p;
layers = (
{
layerId = "CBC04B6C-E875-491C-A1C2-2B8D0972DDA1";
paths = (
{
closed = 1;
nodes = (
"275 -273 LINE",
"275 -229 LINE",
"154 -208 LINE",
"154 16 LINE",
"183 2 OFFCURVE",
"216 -4 OFFCURVE",
"251 -4 CURVE SMOOTH",
"393 -4 OFFCURVE",
"458 116 OFFCURVE",
"458 242 CURVE SMOOTH",
"458 368 OFFCURVE",
"396 479 OFFCURVE",
"263 479 CURVE SMOOTH",
"223 479 OFFCURVE",
"183 466 OFFCURVE",
"154 445 CURVE",
"127 481 LINE",
"22 463 LINE",
"30 412 LINE {name = hr00;}",
"91 416 LINE",
"91 -215 LINE",
"32 -229 LINE",
"41 -273 LINE"
);
},
{
closed = 1;
nodes = (
"215 53 OFFCURVE",
"180 64 OFFCURVE",
"154 85 CURVE",
"154 371 LINE",
"172 402 OFFCURVE",
"220 422 OFFCURVE",
"257 422 CURVE SMOOTH",
"359 422 OFFCURVE",
"392 323 OFFCURVE",
"392 237 CURVE SMOOTH",
"392 148 OFFCURVE",
"357 53 OFFCURVE",
"249 53 CURVE SMOOTH"
);
}
);
width = 500;
},
{
layerId = "682D4A5D-117B-492A-B436-118C610C28E8";
paths = (
{
closed = 1;
nodes = (
"318 -273 LINE",
"319 -208 LINE",
"201 -182 LINE",
"201 4 LINE",
"220 -1 OFFCURVE",
"240 -4 OFFCURVE",
"261 -4 CURVE SMOOTH",
"371 -4 OFFCURVE",
"484 55 OFFCURVE",
"484 251 CURVE SMOOTH",
"484 401 OFFCURVE",
"406 491 OFFCURVE",
"287 491 CURVE SMOOTH",
"243 491 OFFCURVE",
"212 480 OFFCURVE",
"189 468 CURVE",
"166 491 LINE {name = hr00;}",
"16 467 LINE",
"29 395 LINE",
"80 402 LINE",
"80 -195 LINE",
"29 -210 LINE",
"45 -273 LINE"
);
},
{
closed = 1;
nodes = (
"239 90 OFFCURVE",
"213 95 OFFCURVE",
"201 103 CURVE",
"201 379 LINE",
"216 390 OFFCURVE",
"239 397 OFFCURVE",
"264 397 CURVE SMOOTH",
"319 397 OFFCURVE",
"360 350 OFFCURVE",
"360 246 CURVE SMOOTH",
"360 138 OFFCURVE",
"315 90 OFFCURVE",
"261 90 CURVE SMOOTH"
);
}
);
width = 515;
}
);
rightKerningGroup = b;
unicode = 0070;
userData = {
com.typemytype.robofont.mark = (
0.713,
0.6,
1,
1
);
};
},
{
color = 10;
glyphname = thorn;
layers = (
{
layerId = "CBC04B6C-E875-491C-A1C2-2B8D0972DDA1";
paths = (
{
closed = 1;
nodes = (
"259 -273 LINE",
"259 -229 LINE",
"138 -208 LINE",
"138 -49 LINE",
"135 24 LINE",
"162 7 OFFCURVE",
"193 -4 OFFCURVE",
"239 -4 CURVE SMOOTH",
"315 -4 OFFCURVE",
"444 46 OFFCURVE",
"444 243 CURVE SMOOTH",
"444 391 OFFCURVE",
"356 481 OFFCURVE",
"248 481 CURVE SMOOTH",
"195 481 OFFCURVE",
"158 461 OFFCURVE",
"138 444 CURVE",
"138 706 LINE",
"111 735 LINE",
"6 717 LINE",
"14 666 LINE {name = hr00;}",
"75 670 LINE",
"75 -215 LINE",
"16 -229 LINE",
"25 -273 LINE"
);
},
{
closed = 1;
nodes = (
"188 54 OFFCURVE",
"152 72 OFFCURVE",
"138 87 CURVE",
"138 371 LINE",
"155 403 OFFCURVE",
"197 423 OFFCURVE",
"242 423 CURVE SMOOTH",
"300 423 OFFCURVE",
"377 383 OFFCURVE",
"377 237 CURVE SMOOTH",
"377 88 OFFCURVE",
"294 54 OFFCURVE",
"234 54 CURVE SMOOTH"
);
}
);
width = 486;
},
{
layerId = "682D4A5D-117B-492A-B436-118C610C28E8";
paths = (
{
closed = 1;
nodes = (
"305 -273 LINE",
"305 -208 LINE",
"186 -182 LINE",
"186 -7 LINE",
"184 3 LINE",
"203 -1 OFFCURVE",
"224 -4 OFFCURVE",
"247 -4 CURVE SMOOTH",
"357 -4 OFFCURVE",
"470 55 OFFCURVE",
"470 251 CURVE SMOOTH",
"470 401 OFFCURVE",
"392 491 OFFCURVE",
"273 491 CURVE SMOOTH",
"235 491 OFFCURVE",
"207 482 OFFCURVE",
"186 472 CURVE",
"186 701 LINE",
"152 736 LINE",
"3 716 LINE",
"14 648 LINE",
"66 648 LINE {name = hr00;}",
"66 -195 LINE",
"15 -210 LINE",
"21 -273 LINE"
);
},
{
closed = 1;
nodes = (
"225 90 OFFCURVE",
"198 95 OFFCURVE",
"186 103 CURVE",
"186 379 LINE",
"201 390 OFFCURVE",
"224 397 OFFCURVE",
"249 397 CURVE SMOOTH",
"305 397 OFFCURVE",
"346 350 OFFCURVE",
"346 246 CURVE SMOOTH",
"346 138 OFFCURVE",
"301 90 OFFCURVE",
"247 90 CURVE SMOOTH"
);
}
);
width = 501;
}
);
rightKerningGroup = b;
unicode = 00FE;
userData = {
com.typemytype.robofont.mark = (
0.713,
0.6,
1,
1
);
};
},
{
color = 10;
glyphname = q;
layers = (
{
layerId = "CBC04B6C-E875-491C-A1C2-2B8D0972DDA1";
paths = (
{
closed = 1;
nodes = (
"468 -273 LINE",
"468 -229 LINE",
"409 -215 LINE",
"409 470 LINE {name = hr00;}",
"374 480 LINE",
"351 451 LINE",
"324 468 OFFCURVE",
"292 481 OFFCURVE",
"246 481 CURVE SMOOTH",
"171 481 OFFCURVE",
"42 430 OFFCURVE",
"42 234 CURVE SMOOTH",
"42 83 OFFCURVE",
"129 -4 OFFCURVE",
"237 -4 CURVE SMOOTH",
"290 -4 OFFCURVE",
"326 15 OFFCURVE",
"346 32 CURVE",
"346 -202 LINE",
"225 -229 LINE",
"232 -273 LINE"
);
},
{
closed = 1;
nodes = (
"185 54 OFFCURVE",
"108 93 OFFCURVE",
"108 239 CURVE SMOOTH",
"108 387 OFFCURVE",
"190 423 OFFCURVE",
"252 423 CURVE SMOOTH",
"297 423 OFFCURVE",
"333 403 OFFCURVE",
"346 387 CURVE",
"346 104 LINE",
"331 80 OFFCURVE",
"292 54 OFFCURVE",
"243 54 CURVE SMOOTH"
);
}
);
width = 483;
},
{
layerId = "682D4A5D-117B-492A-B436-118C610C28E8";
paths = (
{
closed = 1;
nodes = (
"490 -273 LINE",
"490 -200 LINE",
"435 -181 LINE",
"435 469 LINE {name = hr00;}",
"401 493 LINE",
"343 470 LINE",
"314 483 OFFCURVE",
"278 491 OFFCURVE",
"237 491 CURVE SMOOTH {name = hr01;}",
"172 491 OFFCURVE",
"31 447 OFFCURVE",
"31 233 CURVE SMOOTH",
"31 94 OFFCURVE",
"102 -4 OFFCURVE",
"225 -4 CURVE SMOOTH",
"260 -4 OFFCURVE",
"290 4 OFFCURVE",
"314 24 CURVE",
"314 -186 LINE",
"191 -210 LINE",
"202 -273 LINE"
);
},
{
closed = 1;
nodes = (
"204 91 OFFCURVE",
"155 119 OFFCURVE",
"155 245 CURVE SMOOTH",
"155 370 OFFCURVE",
"206 398 OFFCURVE",
"252 398 CURVE SMOOTH",
"282 398 OFFCURVE",
"304 387 OFFCURVE",
"314 377 CURVE",
"314 149 LINE",
"308 114 OFFCURVE",
"276 91 OFFCURVE",
"247 91 CURVE SMOOTH"
);
}
);
width = 499;
}
);
leftKerningGroup = d;
unicode = 0071;
userData = {
com.typemytype.robofont.mark = (
0.713,
0.6,
1,
1
);
};
},
{
color = 10;
glyphname = r;
layers = (
{
anchors = (
{
name = bottom;
position = "{167, 0}";
},
{
name = top;
position = "{202, 481}";
}
);
layerId = "CBC04B6C-E875-491C-A1C2-2B8D0972DDA1";
paths = (
{
closed = 1;
nodes = (
"299 0 LINE",
"299 44 LINE",
"159 64 LINE",
"159 312 LINE SMOOTH",
"159 394 OFFCURVE",
"230 424 OFFCURVE",
"267 424 CURVE",
"301 378 LINE",
"377 415 LINE",
"356 444 OFFCURVE",
"319 481 OFFCURVE",
"260 481 CURVE SMOOTH",
"227 481 OFFCURVE",
"188 467 OFFCURVE",
"159 440 CURVE {name = hr00;}",
"132 480 LINE",
"34 463 LINE",
"42 415 LINE",
"96 415 LINE",
"96 58 LINE",
"37 44 LINE",
"46 0 LINE"
);
}
);
width = 386;
},
{
anchors = (
{
name = bottom;
position = "{218, 0}";
},
{
name = top;
position = "{233, 491}";
}
);
layerId = "682D4A5D-117B-492A-B436-118C610C28E8";
paths = (
{
closed = 1;
nodes = (
"332 0 LINE",
"331 64 LINE",
"210 99 LINE",
"210 286 LINE SMOOTH",
"210 364 OFFCURVE",
"255 391 OFFCURVE",
"280 391 CURVE",
"310 341 LINE",
"431 404 LINE",
"412 465 OFFCURVE",
"360 491 OFFCURVE",
"302 491 CURVE SMOOTH",
"267 491 OFFCURVE",
"227 472 OFFCURVE",
"200 439 CURVE",
"166 491 LINE {name = hr00;}",
"27 465 LINE",
"38 397 LINE",
"89 401 LINE",
"89 80 LINE",
"29 64 LINE",
"44 0 LINE"
);
}
);
width = 428;
}
);
leftKerningGroup = n;
unicode = 0072;
userData = {
com.typemytype.robofont.mark = (
0.713,
0.6,
1,
1
);
};
},
{
color = 10;
glyphname = s;
layers = (
{
anchors = (
{
name = bottom;
position = "{197, 0}";
},
{
name = top;
position = "{217, 481}";
}
);
layerId = "CBC04B6C-E875-491C-A1C2-2B8D0972DDA1";
paths = (
{
closed = 1;
nodes = (
"270 -4 OFFCURVE",
"351 41 OFFCURVE",
"351 130 CURVE SMOOTH",
"351 197 OFFCURVE",
"315 241 OFFCURVE",
"231 269 CURVE SMOOTH",
"146 297 OFFCURVE",
"118 312 OFFCURVE",
"118 356 CURVE SMOOTH",
"118 406 OFFCURVE",
"169 423 OFFCURVE",
"199 423 CURVE SMOOTH",
"235 423 OFFCURVE",
"252 413 OFFCURVE",
"260 406 CURVE",
"283 355 LINE",
"361 384 LINE",
"343 426 OFFCURVE",
"288 481 OFFCURVE",
"199 481 CURVE SMOOTH {name = hr00;}",
"122 481 OFFCURVE",
"52 433 OFFCURVE",
"52 350 CURVE SMOOTH",
"52 282 OFFCURVE",
"105 243 OFFCURVE",
"176 220 CURVE SMOOTH",
"259 192 OFFCURVE",
"285 172 OFFCURVE",
"285 124 CURVE SMOOTH",
"285 76 OFFCURVE",
"234 54 OFFCURVE",
"200 54 CURVE SMOOTH",
"160 54 OFFCURVE",
"140 66 OFFCURVE",
"133 70 CURVE",
"110 122 LINE",
"32 92 LINE",
"53 52 OFFCURVE",
"103 -4 OFFCURVE",
"194 -4 CURVE SMOOTH"
);
}
);
width = 397;
},
{
anchors = (
{
name = bottom;
position = "{192, 0}";
},
{
name = top;
position = "{237, 491}";
}
);
layerId = "682D4A5D-117B-492A-B436-118C610C28E8";
paths = (
{
closed = 1;
nodes = (
"296 -3 OFFCURVE",
"381 51 OFFCURVE",
"381 150 CURVE SMOOTH",
"381 217 OFFCURVE",
"336 254 OFFCURVE",
"287 280 CURVE SMOOTH",
"228 311 OFFCURVE",
"164 326 OFFCURVE",
"164 359 CURVE SMOOTH",
"164 383 OFFCURVE",
"178 397 OFFCURVE",
"208 397 CURVE SMOOTH",
"223 397 OFFCURVE",
"232 392 OFFCURVE",
"232 392 CURVE",
"256 341 LINE",
"383 392 LINE",
"362 434 OFFCURVE",
"310 491 OFFCURVE",
"213 491 CURVE SMOOTH",
"115 491 OFFCURVE",
"40 426 OFFCURVE",
"40 346 CURVE SMOOTH",
"40 289 OFFCURVE",
"73 239 OFFCURVE",
"166 202 CURVE SMOOTH",
"193 188 OFFCURVE",
"259 178 OFFCURVE",
"259 137 CURVE SMOOTH",
"259 103 OFFCURVE",
"229 91 OFFCURVE",
"209 91 CURVE SMOOTH",
"194 91 OFFCURVE",
"179 92 OFFCURVE",
"171 94 CURVE",
"145 159 LINE",
"17 110 LINE {name = hr00;}",
"38 57 OFFCURVE",
"108 -3 OFFCURVE",
"203 -3 CURVE SMOOTH"
);
}
);
width = 412;
}
);
unicode = 0073;
userData = {
com.typemytype.robofont.mark = (
0.713,
0.6,
1,
1
);
};
},
{
color = 10;
glyphname = germandbls;
layers = (
{
layerId = "CBC04B6C-E875-491C-A1C2-2B8D0972DDA1";
paths = (
{
closed = 1;
nodes = (
"377 -4 OFFCURVE",
"483 55 OFFCURVE",
"483 166 CURVE SMOOTH",
"483 254 OFFCURVE",
"448 296 OFFCURVE",
"340 344 CURVE SMOOTH",
"288 367 OFFCURVE",
"281 383 OFFCURVE",
"281 405 CURVE SMOOTH",
"281 435 OFFCURVE",
"380 485 OFFCURVE",
"380 585 CURVE SMOOTH",
"380 675 OFFCURVE",
"318 727 OFFCURVE",
"232 727 CURVE SMOOTH",
"149 727 OFFCURVE",
"87 674 OFFCURVE",
"87 558 CURVE SMOOTH",
"87 55 LINE",
"35 44 LINE {name = hr01;}",
"35 0 LINE",
"150 0 LINE",
"150 559 LINE SMOOTH",
"150 613 OFFCURVE",
"162 670 OFFCURVE",
"232 670 CURVE SMOOTH",
"285 670 OFFCURVE",
"314 629 OFFCURVE",
"314 586 CURVE SMOOTH",
"314 495 OFFCURVE",
"223 475 OFFCURVE",
"223 397 CURVE SMOOTH",
"223 351 OFFCURVE",
"255 323 OFFCURVE",
"315 292 CURVE SMOOTH",
"383 257 OFFCURVE",
"417 226 OFFCURVE",
"417 166 CURVE SMOOTH",
"417 104 OFFCURVE",
"375 53 OFFCURVE",
"302 53 CURVE",
"214 87 LINE {name = hr00;}",
"190 20 LINE",
"219 10 OFFCURVE",
"261 -4 OFFCURVE",
"302 -4 CURVE SMOOTH {name = hr02;}"
);
}
);
width = 511;
},
{
layerId = "682D4A5D-117B-492A-B436-118C610C28E8";
paths = (
{
closed = 1;
nodes = (
"469 -4 OFFCURVE",
"547 61 OFFCURVE",
"547 162 CURVE SMOOTH",
"547 219 OFFCURVE",
"527 262 OFFCURVE",
"449 319 CURVE SMOOTH",
"403 353 OFFCURVE",
"382 362 OFFCURVE",
"382 384 CURVE SMOOTH",
"382 416 OFFCURVE",
"480 439 OFFCURVE",
"480 560 CURVE SMOOTH {name = hr02;}",
"480 689 OFFCURVE",
"392 735 OFFCURVE",
"280 735 CURVE SMOOTH",
"155 735 OFFCURVE",
"79 657 OFFCURVE",
"79 531 CURVE {name = hr00;}",
"79 83 LINE",
"29 72 LINE",
"36 0 LINE",
"200 0 LINE",
"200 532 LINE SMOOTH",
"200 589 OFFCURVE",
"219 640 OFFCURVE",
"282 640 CURVE SMOOTH",
"327 640 OFFCURVE",
"357 603 OFFCURVE",
"357 558 CURVE SMOOTH",
"357 470 OFFCURVE",
"266 466 OFFCURVE",
"266 377 CURVE SMOOTH {name = hr01;}",
"266 326 OFFCURVE",
"302 297 OFFCURVE",
"339 269 CURVE SMOOTH",
"379 239 OFFCURVE",
"421 211 OFFCURVE",
"421 159 CURVE SMOOTH",
"421 98 OFFCURVE",
"356 90 OFFCURVE",
"346 90 CURVE",
"290 141 LINE",
"239 20 LINE",
"260 13 OFFCURVE",
"297 -4 OFFCURVE",
"362 -4 CURVE SMOOTH"
);
}
);
width = 562;
}
);
unicode = 00DF;
userData = {
com.typemytype.robofont.mark = (
0.713,
0.6,
1,
1
);
};
},
{
color = 10;
glyphname = t;
layers = (
{
anchors = (
{
name = bar;
position = "{182, 273}";
},
{
name = bottom;
position = "{185, 11}";
},
{
name = top;
position = "{134, 686}";
}
);
layerId = "CBC04B6C-E875-491C-A1C2-2B8D0972DDA1";
paths = (
{
closed = 1;
nodes = (
"246 -4 OFFCURVE",
"273 17 OFFCURVE",
"289 29 CURVE",
"272 80 LINE",
"263 73 OFFCURVE",
"236 54 OFFCURVE",
"208 54 CURVE SMOOTH",
"179 54 OFFCURVE",
"163 65 OFFCURVE",
"163 101 CURVE SMOOTH",
"163 424 LINE",
"275 424 LINE",
"275 473 LINE SMOOTH",
"275 477 OFFCURVE",
"273 479 OFFCURVE",
"270 479 CURVE SMOOTH",
"164 479 LINE",
"165 650 LINE",
"159 661 LINE",
"103 647 LINE",
"102 479 LINE",
"14 479 LINE",
"7 468 LINE",
"21 424 LINE {name = hr00;}",
"101 424 LINE",
"99 106 LINE",
"99 43 OFFCURVE",
"128 -4 OFFCURVE",
"191 -4 CURVE SMOOTH"
);
}
);
width = 303;
},
{
anchors = (
{
name = bar;
position = "{184, 256}";
},
{
name = bottom;
position = "{214, 26}";
},
{
name = top;
position = "{152, 660}";
}
);
layerId = "682D4A5D-117B-492A-B436-118C610C28E8";
paths = (
{
closed = 1;
nodes = (
"267 -4 OFFCURVE",
"316 21 OFFCURVE",
"334 41 CURVE",
"309 122 LINE",
"297 112 OFFCURVE",
"266 93 OFFCURVE",
"243 93 CURVE SMOOTH",
"223 93 OFFCURVE",
"212 98 OFFCURVE",
"212 139 CURVE SMOOTH",
"212 400 LINE",
"318 400 LINE {name = hr00;}",
"318 485 LINE SMOOTH",
"318 489 OFFCURVE",
"317 491 OFFCURVE",
"313 491 CURVE SMOOTH",
"212 491 LINE",
"212 666 LINE",
"203 682 LINE",
"96 659 LINE",
"94 491 LINE",
"9 491 LINE",
"2 481 LINE",
"17 400 LINE",
"93 400 LINE",
"91 138 LINE",
"91 25 OFFCURVE",
"151 -4 OFFCURVE",
"217 -4 CURVE SMOOTH"
);
}
);
width = 345;
}
);
unicode = 0074;
userData = {
com.typemytype.robofont.mark = (
0.713,
0.6,
1,
1
);
};
},
{
color = 10;
glyphname = u;
layers = (
{
anchors = (
{
name = bottom;
position = "{265, 0}";
},
{
name = ogonek;
position = "{391, 7}";
},
{
name = top;
position = "{240, 481}";
}
);
layerId = "CBC04B6C-E875-491C-A1C2-2B8D0972DDA1";
paths = (
{
closed = 1;
nodes = (
"274 -4 OFFCURVE",
"317 12 OFFCURVE",
"348 37 CURVE",
"355 10 OFFCURVE",
"371 -4 OFFCURVE",
"399 -4 CURVE SMOOTH",
"427 -4 OFFCURVE",
"448 10 OFFCURVE",
"456 19 CURVE",
"448 54 LINE",
"445 54 OFFCURVE",
"438 51 OFFCURVE",
"430 51 CURVE SMOOTH",
"418 51 OFFCURVE",
"407 56 OFFCURVE",
"407 73 CURVE SMOOTH",
"407 453 LINE",
"383 482 LINE",
"283 463 LINE",
"290 415 LINE {name = hr00;}",
"344 415 LINE",
"344 101 LINE",
"328 76 OFFCURVE",
"282 54 OFFCURVE",
"245 54 CURVE SMOOTH",
"212 54 OFFCURVE",
"145 56 OFFCURVE",
"145 159 CURVE SMOOTH",
"145 453 LINE",
"120 481 LINE",
"19 463 LINE",
"28 415 LINE",
"82 415 LINE",
"82 156 LINE SMOOTH",
"82 34 OFFCURVE",
"155 -4 OFFCURVE",
"231 -4 CURVE SMOOTH"
);
}
);
width = 490;
},
{
anchors = (
{
name = bottom;
position = "{305, 0}";
},
{
name = ogonek;
position = "{410, 17}";
},
{
name = top;
position = "{258, 491}";
}
);
layerId = "682D4A5D-117B-492A-B436-118C610C28E8";
paths = (
{
closed = 1;
nodes = (
"274 -4 OFFCURVE",
"325 11 OFFCURVE",
"356 44 CURVE",
"372 9 OFFCURVE",
"402 -4 OFFCURVE",
"437 -4 CURVE SMOOTH",
"478 -4 OFFCURVE",
"507 20 OFFCURVE",
"515 29 CURVE",
"496 85 LINE",
"494 85 OFFCURVE",
"488 83 OFFCURVE",
"482 83 CURVE SMOOTH",
"474 83 OFFCURVE",
"466 87 OFFCURVE",
"466 105 CURVE SMOOTH",
"466 454 LINE",
"431 492 LINE",
"288 465 LINE",
"300 398 LINE",
"345 401 LINE {name = hr00;}",
"345 144 LINE",
"334 117 OFFCURVE",
"300 92 OFFCURVE",
"264 92 CURVE SMOOTH",
"223 92 OFFCURVE",
"196 117 OFFCURVE",
"196 169 CURVE SMOOTH",
"196 454 LINE",
"161 492 LINE",
"13 465 LINE",
"24 398 LINE",
"75 398 LINE",
"75 146 LINE SMOOTH",
"75 44 OFFCURVE",
"136 -4 OFFCURVE",
"230 -4 CURVE SMOOTH"
);
}
);
width = 539;
}
);
leftKerningGroup = u;
rightKerningGroup = u;
unicode = 0075;
userData = {
com.typemytype.robofont.mark = (
0.713,
0.6,
1,
1
);
};
},
{
color = 10;
glyphname = v;
layers = (
{
layerId = "CBC04B6C-E875-491C-A1C2-2B8D0972DDA1";
paths = (
{
closed = 1;
nodes = (
"256 0 LINE",
"428 444 LINE",
"409 481 LINE {name = hr03;}",
"309 474 LINE",
"314 426 LINE {name = hr02;}",
"359 426 LINE",
"232 92 LINE",
"102 481 LINE {name = hr01;}",
"2 474 LINE",
"10 426 LINE",
"48 426 LINE",
"192 0 LINE {name = hr00;}"
);
}
);
width = 439;
},
{
layerId = "682D4A5D-117B-492A-B436-118C610C28E8";
paths = (
{
closed = 1;
nodes = (
"328 0 LINE {name = hr00;}",
"495 455 LINE",
"476 491 LINE",
"328 479 LINE",
"337 407 LINE {name = hr01;}",
"379 407 LINE",
"275 127 LINE",
"167 491 LINE {name = hr02;}",
"-1 479 LINE",
"7 407 LINE {name = hr03;}",
"57 407 LINE",
"189 0 LINE"
);
}
);
width = 497;
}
);
unicode = 0076;
userData = {
com.typemytype.robofont.mark = (
0.713,
0.6,
1,
1
);
};
},
{
color = 10;
glyphname = w;
layers = (
{
anchors = (
{
name = bottom;
position = "{336, 0}";
},
{
name = top;
position = "{334, 481}";
}
);
layerId = "CBC04B6C-E875-491C-A1C2-2B8D0972DDA1";
paths = (
{
closed = 1;
nodes = (
"238 0 LINE",
"337 328 LINE",
"437 0 LINE",
"523 0 LINE",
"634 454 LINE",
"620 480 LINE",
"512 475 LINE {name = hr01;}",
"521 426 LINE",
"566 426 LINE",
"485 76 LINE",
"366 445 LINE {name = hr00;}",
"313 445 LINE",
"195 71 LINE",
"117 480 LINE",
"7 475 LINE {name = hr03;}",
"15 426 LINE",
"57 426 LINE {name = hr02;}",
"142 0 LINE"
);
}
);
width = 665;
},
{
anchors = (
{
name = bottom;
position = "{364, 0}";
},
{
name = top;
position = "{376, 491}";
}
);
layerId = "682D4A5D-117B-492A-B436-118C610C28E8";
paths = (
{
closed = 1;
nodes = (
"290 0 LINE {name = hr00;}",
"370 322 LINE",
"449 0 LINE",
"606 0 LINE",
"721 455 LINE",
"699 491 LINE",
"569 479 LINE",
"577 407 LINE {name = hr01;}",
"612 407 LINE",
"542 127 LINE",
"457 474 LINE",
"314 474 LINE",
"226 131 LINE",
"157 491 LINE {name = hr02;}",
"5 479 LINE",
"12 407 LINE {name = hr03;}",
"48 407 LINE",
"132 0 LINE"
);
}
);
width = 741;
}
);
unicode = 0077;
userData = {
com.typemytype.robofont.mark = (
0.713,
0.6,
1,
1
);
};
},
{
color = 10;
glyphname = x;
layers = (
{
layerId = "CBC04B6C-E875-491C-A1C2-2B8D0972DDA1";
paths = (
{
closed = 1;
nodes = (
"109 0 LINE",
"221 188 LINE",
"343 0 LINE",
"428 0 LINE",
"428 58 LINE",
"386 58 LINE",
"271 235 LINE",
"387 426 LINE",
"420 426 LINE",
"420 479 LINE",
"350 479 LINE",
"236 289 LINE",
"113 479 LINE",
"30 479 LINE",
"30 421 LINE",
"72 421 LINE",
"186 243 LINE",
"72 52 LINE",
"30 52 LINE",
"40 0 LINE {name = hr00;}"
);
}
);
width = 456;
},
{
layerId = "682D4A5D-117B-492A-B436-118C610C28E8";
paths = (
{
closed = 1;
nodes = (
"138 0 LINE {name = hr00;}",
"218 145 LINE",
"298 0 LINE",
"444 0 LINE",
"444 73 LINE",
"402 73 LINE",
"305 247 LINE",
"403 418 LINE",
"445 418 LINE",
"445 491 LINE",
"335 491 LINE",
"256 335 LINE",
"169 491 LINE",
"27 491 LINE",
"27 418 LINE",
"69 418 LINE",
"165 243 LINE",
"68 73 LINE",
"26 73 LINE",
"26 0 LINE"
);
}
);
width = 471;
}
);
unicode = 0078;
userData = {
com.typemytype.robofont.mark = (
0.713,
0.6,
1,
1
);
};
},
{
color = 10;
glyphname = y;
layers = (
{
anchors = (
{
name = top;
position = "{223, 481}";
}
);
layerId = "CBC04B6C-E875-491C-A1C2-2B8D0972DDA1";
paths = (
{
closed = 1;
nodes = (
"171 -273 OFFCURVE",
"198 -198 OFFCURVE",
"220 -140 CURVE SMOOTH",
"297 63 OFFCURVE",
"372 272 OFFCURVE",
"436 445 CURVE {name = hr00;}",
"419 480 LINE",
"323 474 LINE {name = hr04;}",
"331 425 LINE",
"367 425 LINE",
"235 54 LINE",
"98 480 LINE",
"3 474 LINE",
"11 425 LINE",
"45 425 LINE",
"199 -47 LINE {name = hr03;}",
"173 -120 LINE SMOOTH",
"159 -159 OFFCURVE",
"139 -215 OFFCURVE",
"100 -215 CURVE SMOOTH {name = hr02;}",
"72 -215 OFFCURVE",
"50 -192 OFFCURVE",
"42 -185 CURVE",
"11 -237 LINE",
"36 -257 OFFCURVE",
"65 -273 OFFCURVE",
"99 -273 CURVE SMOOTH {name = hr01;}"
);
}
);
width = 449;
},
{
anchors = (
{
name = top;
position = "{245, 491}";
}
);
layerId = "682D4A5D-117B-492A-B436-118C610C28E8";
paths = (
{
closed = 1;
nodes = (
"179 -274 OFFCURVE",
"235 -270 OFFCURVE",
"276 -167 CURVE SMOOTH {name = hr04;}",
"305 -92 OFFCURVE",
"479 412 OFFCURVE",
"496 455 CURVE",
"476 491 LINE {name = hr00;}",
"330 480 LINE",
"338 407 LINE {name = hr01;}",
"384 407 LINE",
"280 119 LINE",
"150 491 LINE {name = hr02;}",
"0 479 LINE",
"8 407 LINE {name = hr03;}",
"46 407 LINE",
"215 -61 LINE",
"193 -121 LINE SMOOTH",
"177 -165 OFFCURVE",
"163 -180 OFFCURVE",
"142 -180 CURVE SMOOTH",
"125 -180 OFFCURVE",
"96 -154 OFFCURVE",
"83 -144 CURVE",
"29 -228 LINE",
"70 -265 OFFCURVE",
"125 -274 OFFCURVE",
"150 -274 CURVE SMOOTH"
);
}
);
width = 498;
}
);
leftKerningGroup = y;
rightKerningGroup = y;
unicode = 0079;
userData = {
com.typemytype.robofont.mark = (
0.713,
0.6,
1,
1
);
};
},
{
color = 10;
glyphname = yacute;
layers = (
{
components = (
{
name = y;
},
{
name = acutecomb;
transform = "{1, 0, 0, 1, 223, 0}";
}
);
layerId = "CBC04B6C-E875-491C-A1C2-2B8D0972DDA1";
width = 449;
},
{
components = (
{
name = y;
},
{
name = acutecomb;
transform = "{1, 0, 0, 1, 245, 0}";
}
);
layerId = "682D4A5D-117B-492A-B436-118C610C28E8";
width = 498;
},
{
associatedMasterId = "CBC04B6C-E875-491C-A1C2-2B8D0972DDA1";
layerId = "E21DB816-FA0C-44FC-B22E-E63B25BE5434";
name = "Jul 27 18, 13:37";
paths = (
{
closed = 1;
nodes = (
"372 272 OFFCURVE",
"297 63 OFFCURVE",
"220 -140 CURVE SMOOTH",
"198 -198 OFFCURVE",
"171 -273 OFFCURVE",
"99 -273 CURVE SMOOTH",
"65 -273 OFFCURVE",
"36 -257 OFFCURVE",
"11 -237 CURVE",
"42 -185 LINE",
"50 -192 OFFCURVE",
"72 -215 OFFCURVE",
"100 -215 CURVE SMOOTH",
"139 -215 OFFCURVE",
"159 -159 OFFCURVE",
"173 -120 CURVE SMOOTH",
"199 -47 LINE",
"45 425 LINE",
"11 425 LINE",
"3 474 LINE",
"98 480 LINE",
"235 54 LINE",
"367 425 LINE",
"331 425 LINE",
"323 474 LINE",
"419 480 LINE",
"436 445 LINE {name = hr00;}"
);
},
{
closed = 1;
nodes = (
"280 725 LINE",
"307 725 LINE",
"351 673 LINE",
"211 553 LINE",
"176 586 LINE"
);
}
);
visible = 1;
width = 449;
}
);
leftKerningGroup = y;
rightKerningGroup = y;
unicode = 00FD;
userData = {
com.typemytype.robofont.mark = (
0.713,
0.6,
1,
1
);
};
},
{
color = 10;
glyphname = z;
layers = (
{
anchors = (
{
name = bottom;
position = "{224, 0}";
},
{
name = top;
position = "{218, 481}";
}
);
layerId = "CBC04B6C-E875-491C-A1C2-2B8D0972DDA1";
paths = (
{
closed = 1;
nodes = (
"379 0 LINE",
"379 152 LINE",
"332 152 LINE",
"316 58 LINE",
"126 58 LINE",
"379 420 LINE {name = hr00;}",
"379 479 LINE",
"47 479 LINE",
"47 337 LINE",
"94 337 LINE",
"110 420 LINE",
"293 420 LINE",
"47 58 LINE",
"47 0 LINE"
);
}
);
width = 428;
},
{
anchors = (
{
name = bottom;
position = "{196, 0}";
},
{
name = top;
position = "{206, 491}";
}
);
layerId = "682D4A5D-117B-492A-B436-118C610C28E8";
paths = (
{
closed = 1;
nodes = (
"382 0 LINE",
"382 163 LINE",
"313 163 LINE",
"301 97 LINE {name = hr01;}",
"180 97 LINE",
"382 395 LINE",
"382 491 LINE",
"38 491 LINE",
"38 329 LINE",
"106 329 LINE",
"118 397 LINE {name = hr02;}",
"246 397 LINE",
"38 96 LINE",
"39 0 LINE {name = hr00;}"
);
}
);
width = 421;
}
);
unicode = 007A;
userData = {
com.typemytype.robofont.mark = (
0.713,
0.6,
1,
1
);
};
},
{
color = 3;
export = 0;
glyphname = dcaron;
layers = (
{
components = (
{
name = d;
}
);
layerId = "CBC04B6C-E875-491C-A1C2-2B8D0972DDA1";
paths = (
{
closed = 1;
nodes = (
"454 689 LINE",
"529 694 LINE",
"538 672 LINE",
"516 501 LINE",
"471 501 LINE {name = hr00;}"
);
}
);
width = 561;
},
{
components = (
{
name = d;
}
);
layerId = "682D4A5D-117B-492A-B436-118C610C28E8";
paths = (
{
closed = 1;
nodes = (
"574 412 LINE",
"603 639 LINE",
"586 669 LINE",
"463 659 LINE",
"499 412 LINE {name = hr00;}"
);
}
);
width = 626;
}
);
unicode = 010F;
},
{
color = 3;
export = 0;
glyphname = idotless;
layers = (
{
anchors = (
{
name = ogonek;
position = "{164, 1}";
},
{
name = top;
position = "{138, 481}";
}
);
layerId = "CBC04B6C-E875-491C-A1C2-2B8D0972DDA1";
paths = (
{
closed = 1;
nodes = (
"221 0 LINE",
"221 44 LINE",
"160 59 LINE",
"160 451 LINE {name = hr00;}",
"133 481 LINE",
"34 463 LINE",
"43 412 LINE",
"97 416 LINE",
"97 58 LINE",
"37 43 LINE",
"46 0 LINE"
);
}
);
width = 249;
},
{
anchors = (
{
name = ogonek;
position = "{184, 0}";
},
{
name = top;
position = "{153, 491}";
}
);
layerId = "682D4A5D-117B-492A-B436-118C610C28E8";
paths = (
{
closed = 1;
nodes = (
"264 0 LINE",
"264 64 LINE",
"209 75 LINE",
"209 456 LINE",
"175 492 LINE",
"26 466 LINE",
"37 398 LINE",
"88 398 LINE {name = hr01;}",
"88 77 LINE",
"32 64 LINE",
"43 0 LINE"
);
}
);
width = 288;
}
);
leftKerningGroup = i;
rightKerningGroup = i;
unicode = 0131;
userData = {
com.typemytype.robofont.mark = (
0.713,
0.6,
1,
1
);
};
},
{
color = 3;
export = 0;
glyphname = lslash;
layers = (
{
components = (
{
name = l;
}
);
layerId = "CBC04B6C-E875-491C-A1C2-2B8D0972DDA1";
paths = (
{
closed = 1;
nodes = (
"221 526 LINE",
"221 576 LINE",
"41 416 LINE",
"41 366 LINE"
);
}
);
width = 241;
},
{
components = (
{
name = l;
}
);
layerId = "682D4A5D-117B-492A-B436-118C610C28E8";
paths = (
{
closed = 1;
nodes = (
"251 496 LINE",
"251 586 LINE",
"21 406 LINE",
"21 316 LINE"
);
}
);
width = 600;
}
);
unicode = 0142;
},
{
color = 3;
export = 0;
glyphname = eng;
layers = (
{
layerId = "CBC04B6C-E875-491C-A1C2-2B8D0972DDA1";
paths = (
{
closed = 1;
nodes = (
"41 416 LINE",
"95 420 LINE",
"95 58 LINE {name = hr02;}",
"40 43 LINE",
"46 0 LINE",
"219 0 LINE",
"219 44 LINE",
"158 59 LINE",
"158 380 LINE",
"188 407 OFFCURVE",
"232 422 OFFCURVE",
"273 422 CURVE SMOOTH",
"329 422 OFFCURVE",
"358 391 OFFCURVE",
"358 327 CURVE SMOOTH",
"358 -156 LINE SMOOTH",
"358 -189 OFFCURVE",
"356 -217 OFFCURVE",
"326 -217 CURVE SMOOTH",
"303 -217 OFFCURVE",
"284 -201 OFFCURVE",
"273 -190 CURVE",
"240 -238 LINE",
"251 -248 OFFCURVE",
"282 -273 OFFCURVE",
"325 -273 CURVE SMOOTH",
"402 -273 OFFCURVE",
"421 -218 OFFCURVE",
"421 -166 CURVE SMOOTH",
"421 334 LINE SMOOTH",
"421 429 OFFCURVE",
"370 479 OFFCURVE",
"278 479 CURVE SMOOTH",
"234 479 OFFCURVE",
"191 465 OFFCURVE",
"155 440 CURVE",
"133 481 LINE",
"32 463 LINE"
);
}
);
width = 600;
},
{
layerId = "682D4A5D-117B-492A-B436-118C610C28E8";
paths = (
{
closed = 1;
nodes = (
"37 398 LINE",
"88 398 LINE",
"88 77 LINE",
"32 64 LINE",
"43 0 LINE",
"265 0 LINE",
"266 63 LINE",
"209 75 LINE",
"209 356 LINE",
"218 367 OFFCURVE",
"257 393 OFFCURVE",
"296 393 CURVE SMOOTH {name = hr01;}",
"335 393 OFFCURVE",
"358 374 OFFCURVE",
"358 331 CURVE SMOOTH",
"358 -105 LINE SMOOTH",
"358 -137 OFFCURVE",
"357 -161 OFFCURVE",
"334 -161 CURVE SMOOTH",
"323 -161 OFFCURVE",
"313 -154 OFFCURVE",
"306 -148 CURVE",
"252 -233 LINE",
"280 -257 OFFCURVE",
"313 -268 OFFCURVE",
"346 -268 CURVE SMOOTH",
"386 -268 OFFCURVE",
"479 -258 OFFCURVE",
"479 -103 CURVE SMOOTH",
"479 359 LINE SMOOTH",
"479 450 OFFCURVE",
"408 491 OFFCURVE",
"325 491 CURVE SMOOTH {name = hr02;}",
"281 491 OFFCURVE",
"234 473 OFFCURVE",
"209 455 CURVE",
"174 492 LINE {name = hr00;}",
"26 466 LINE"
);
}
);
width = 600;
}
);
unicode = 014B;
},
{
color = 10;
glyphname = ordfeminine;
layers = (
{
layerId = "CBC04B6C-E875-491C-A1C2-2B8D0972DDA1";
paths = (
{
closed = 1;
nodes = (
"151 433 OFFCURVE",
"170 440 OFFCURVE",
"184 451 CURVE",
"190 441 OFFCURVE",
"200 434 OFFCURVE",
"218 434 CURVE SMOOTH",
"238 434 OFFCURVE",
"252 443 OFFCURVE",
"260 450 CURVE",
"250 481 LINE",
"247 481 OFFCURVE",
"242 478 OFFCURVE",
"238 478 CURVE SMOOTH",
"233 478 OFFCURVE",
"230 482 OFFCURVE",
"230 491 CURVE SMOOTH {name = hr00;}",
"230 610 LINE SMOOTH",
"230 673 OFFCURVE",
"174 691 OFFCURVE",
"134 691 CURVE SMOOTH",
"98 691 OFFCURVE",
"51 672 OFFCURVE",
"43 622 CURVE {name = hr01;}",
"105 613 LINE",
"112 642 LINE",
"119 647 OFFCURVE",
"127 649 OFFCURVE",
"136 649 CURVE SMOOTH",
"174 649 OFFCURVE",
"177 622 OFFCURVE",
"177 611 CURVE SMOOTH",
"177 589 LINE",
"119 587 OFFCURVE",
"43 574 OFFCURVE",
"43 504 CURVE SMOOTH",
"43 457 OFFCURVE",
"87 433 OFFCURVE",
"126 433 CURVE SMOOTH"
);
},
{
closed = 1;
nodes = (
"104 475 OFFCURVE",
"99 496 OFFCURVE",
"99 505 CURVE SMOOTH",
"99 540 OFFCURVE",
"138 546 OFFCURVE",
"177 547 CURVE",
"177 506 LINE",
"168 485 OFFCURVE",
"157 475 OFFCURVE",
"133 475 CURVE SMOOTH {name = hr02;}"
);
}
);
width = 297;
},
{
layerId = "682D4A5D-117B-492A-B436-118C610C28E8";
paths = (
{
closed = 1;
nodes = (
"186 406 OFFCURVE",
"212 420 OFFCURVE",
"230 438 CURVE",
"240 419 OFFCURVE",
"257 406 OFFCURVE",
"284 406 CURVE SMOOTH",
"312 406 OFFCURVE",
"333 423 OFFCURVE",
"339 428 CURVE",
"326 466 LINE",
"325 466 OFFCURVE",
"321 465 OFFCURVE",
"316 465 CURVE SMOOTH",
"310 465 OFFCURVE",
"304 468 OFFCURVE",
"304 480 CURVE SMOOTH",
"304 632 LINE SMOOTH {name = hr00;}",
"304 715 OFFCURVE",
"245 741 OFFCURVE",
"188 741 CURVE SMOOTH",
"125 741 OFFCURVE",
"76 704 OFFCURVE",
"57 662 CURVE",
"141 625 LINE",
"159 675 LINE",
"163 677 OFFCURVE",
"171 677 OFFCURVE",
"178 677 CURVE SMOOTH",
"209 677 OFFCURVE",
"222 667 OFFCURVE",
"222 657 CURVE SMOOTH",
"222 604 LINE",
"148 602 OFFCURVE",
"56 575 OFFCURVE",
"56 496 CURVE SMOOTH",
"56 445 OFFCURVE",
"92 406 OFFCURVE",
"155 406 CURVE SMOOTH"
);
},
{
closed = 1;
nodes = (
"150 471 OFFCURVE",
"140 487 OFFCURVE",
"140 502 CURVE SMOOTH",
"140 537 OFFCURVE",
"188 545 OFFCURVE",
"222 547 CURVE",
"222 503 LINE",
"215 488 OFFCURVE",
"196 471 OFFCURVE",
"171 471 CURVE SMOOTH"
);
}
);
width = 385;
}
);
unicode = 00AA;
userData = {
com.typemytype.robofont.mark = (
0.713,
0.6,
1,
1
);
};
},
{
color = 10;
glyphname = ordmasculine;
layers = (
{
layerId = "CBC04B6C-E875-491C-A1C2-2B8D0972DDA1";
paths = (
{
closed = 1;
nodes = (
"208 433 OFFCURVE",
"257 475 OFFCURVE",
"257 563 CURVE SMOOTH",
"257 651 OFFCURVE",
"208 692 OFFCURVE",
"147 692 CURVE SMOOTH",
"88 692 OFFCURVE",
"39 651 OFFCURVE",
"39 563 CURVE SMOOTH {name = hr00;}",
"39 475 OFFCURVE",
"88 433 OFFCURVE",
"147 433 CURVE SMOOTH"
);
},
{
closed = 1;
nodes = (
"114 484 OFFCURVE",
"95 514 OFFCURVE",
"95 561 CURVE SMOOTH",
"95 606 OFFCURVE",
"114 640 OFFCURVE",
"147 640 CURVE SMOOTH",
"183 640 OFFCURVE",
"201 606 OFFCURVE",
"201 561 CURVE SMOOTH",
"201 514 OFFCURVE",
"183 484 OFFCURVE",
"147 484 CURVE SMOOTH"
);
}
);
width = 296;
},
{
layerId = "682D4A5D-117B-492A-B436-118C610C28E8";
paths = (
{
closed = 1;
nodes = (
"265 399 OFFCURVE",
"324 454 OFFCURVE",
"324 563 CURVE SMOOTH",
"324 674 OFFCURVE",
"265 726 OFFCURVE",
"176 726 CURVE SMOOTH",
"87 726 OFFCURVE",
"30 674 OFFCURVE",
"30 563 CURVE SMOOTH {name = hr00;}",
"30 454 OFFCURVE",
"87 399 OFFCURVE",
"176 399 CURVE SMOOTH"
);
},
{
closed = 1;
nodes = (
"139 492 OFFCURVE",
"135 519 OFFCURVE",
"135 561 CURVE SMOOTH",
"135 602 OFFCURVE",
"139 632 OFFCURVE",
"176 632 CURVE SMOOTH",
"213 632 OFFCURVE",
"219 602 OFFCURVE",
"219 561 CURVE SMOOTH",
"219 519 OFFCURVE",
"213 492 OFFCURVE",
"176 492 CURVE SMOOTH"
);
}
);
width = 354;
}
);
unicode = 00BA;
userData = {
com.typemytype.robofont.mark = (
0.713,
0.6,
1,
1
);
};
},
{
color = 10;
glyphname = zero;
layers = (
{
layerId = "CBC04B6C-E875-491C-A1C2-2B8D0972DDA1";
paths = (
{
closed = 1;
nodes = (
"446 -4 OFFCURVE",
"514 171 OFFCURVE",
"514 344 CURVE SMOOTH",
"514 517 OFFCURVE",
"446 692 OFFCURVE",
"284 692 CURVE SMOOTH",
"120 692 OFFCURVE",
"53 517 OFFCURVE",
"53 344 CURVE SMOOTH {name = hr00;}",
"53 171 OFFCURVE",
"120 -4 OFFCURVE",
"284 -4 CURVE SMOOTH"
);
},
{
closed = 1;
nodes = (
"162 63 OFFCURVE",
"122 213 OFFCURVE",
"122 344 CURVE SMOOTH",
"122 476 OFFCURVE",
"162 625 OFFCURVE",
"284 625 CURVE SMOOTH",
"406 625 OFFCURVE",
"445 476 OFFCURVE",
"445 344 CURVE SMOOTH",
"445 213 OFFCURVE",
"406 63 OFFCURVE",
"284 63 CURVE SMOOTH"
);
}
);
width = 567;
},
{
layerId = "682D4A5D-117B-492A-B436-118C610C28E8";
paths = (
{
closed = 1;
nodes = (
"483 -4 OFFCURVE",
"553 171 OFFCURVE",
"553 343 CURVE SMOOTH",
"553 516 OFFCURVE",
"483 690 OFFCURVE",
"294 690 CURVE SMOOTH",
"105 690 OFFCURVE",
"37 516 OFFCURVE",
"37 343 CURVE SMOOTH {name = hr00;}",
"37 171 OFFCURVE",
"105 -4 OFFCURVE",
"294 -4 CURVE SMOOTH"
);
},
{
closed = 1;
nodes = (
"192 101 OFFCURVE",
"175 245 OFFCURVE",
"175 343 CURVE SMOOTH",
"175 442 OFFCURVE",
"192 585 OFFCURVE",
"294 585 CURVE SMOOTH",
"397 585 OFFCURVE",
"415 442 OFFCURVE",
"415 343 CURVE SMOOTH",
"415 245 OFFCURVE",
"397 101 OFFCURVE",
"294 101 CURVE SMOOTH"
);
}
);
width = 590;
}
);
unicode = 0030;
userData = {
com.typemytype.robofont.mark = (
0.713,
0.6,
1,
1
);
};
},
{
color = 10;
glyphname = one;
layers = (
{
layerId = "CBC04B6C-E875-491C-A1C2-2B8D0972DDA1";
paths = (
{
closed = 1;
nodes = (
"308 0 LINE",
"308 55 LINE",
"214 68 LINE",
"214 682 LINE",
"192 692 LINE",
"34 638 LINE",
"43 581 LINE",
"146 601 LINE",
"146 68 LINE",
"41 49 LINE {name = hr00;}",
"48 0 LINE"
);
}
);
width = 327;
},
{
layerId = "682D4A5D-117B-492A-B436-118C610C28E8";
paths = (
{
closed = 1;
nodes = (
"346 1 LINE",
"349 80 LINE",
"264 93 LINE",
"264 685 LINE",
"249 694 LINE",
"20 625 LINE",
"40 538 LINE",
"133 555 LINE",
"133 98 LINE",
"34 83 LINE",
"37 1 LINE {name = hr00;}"
);
}
);
width = 365;
}
);
unicode = 0031;
userData = {
com.typemytype.robofont.mark = (
0.713,
0.6,
1,
1
);
};
},
{
color = 10;
glyphname = two;
layers = (
{
layerId = "CBC04B6C-E875-491C-A1C2-2B8D0972DDA1";
paths = (
{
closed = 1;
nodes = (
"437 0 LINE",
"457 171 LINE",
"408 171 LINE",
"374 63 LINE",
"131 63 LINE",
"333 255 OFFCURVE",
"438 396 OFFCURVE",
"438 508 CURVE SMOOTH",
"438 611 OFFCURVE",
"371 692 OFFCURVE",
"247 692 CURVE SMOOTH",
"151 692 OFFCURVE",
"85 650 OFFCURVE",
"34 566 CURVE",
"107 521 LINE",
"155 609 LINE",
"167 615 OFFCURVE",
"196 628 OFFCURVE",
"241 628 CURVE SMOOTH",
"291 628 OFFCURVE",
"368 604 OFFCURVE",
"368 513 CURVE SMOOTH",
"368 336 OFFCURVE",
"128 157 OFFCURVE",
"38 58 CURVE",
"48 0 LINE {name = hr00;}"
);
}
);
width = 504;
},
{
layerId = "682D4A5D-117B-492A-B436-118C610C28E8";
paths = (
{
closed = 1;
nodes = (
"488 0 LINE {name = hr00;}",
"510 215 LINE",
"432 215 LINE",
"391 105 LINE {name = hr01;}",
"204 105 LINE",
"267 168 OFFCURVE",
"470 345 OFFCURVE",
"470 500 CURVE SMOOTH",
"470 637 OFFCURVE",
"358 689 OFFCURVE",
"266 689 CURVE SMOOTH",
"152 689 OFFCURVE",
"62 621 OFFCURVE",
"14 535 CURVE",
"142 470 LINE",
"186 574 LINE",
"201 580 OFFCURVE",
"219 584 OFFCURVE",
"246 584 CURVE SMOOTH",
"295 584 OFFCURVE",
"332 559 OFFCURVE",
"332 496 CURVE SMOOTH",
"332 369 OFFCURVE",
"95 149 OFFCURVE",
"38 81 CURVE",
"53 0 LINE"
);
}
);
width = 538;
}
);
unicode = 0032;
userData = {
com.typemytype.robofont.mark = (
0.713,
0.6,
1,
1
);
};
},
{
color = 10;
glyphname = three;
layers = (
{
layerId = "CBC04B6C-E875-491C-A1C2-2B8D0972DDA1";
paths = (
{
closed = 1;
nodes = (
"349 -4 OFFCURVE",
"464 50 OFFCURVE",
"464 191 CURVE SMOOTH {name = hr02;}",
"464 283 OFFCURVE",
"397 339 OFFCURVE",
"328 353 CURVE",
"399 376 OFFCURVE",
"445 445 OFFCURVE",
"445 520 CURVE SMOOTH",
"445 630 OFFCURVE",
"342 692 OFFCURVE",
"250 692 CURVE SMOOTH",
"151 692 OFFCURVE",
"84 650 OFFCURVE",
"37 566 CURVE",
"111 521 LINE",
"157 607 LINE",
"180 623 OFFCURVE",
"210 628 OFFCURVE",
"242 628 CURVE SMOOTH",
"308 628 OFFCURVE",
"372 585 OFFCURVE",
"372 518 CURVE SMOOTH",
"372 395 OFFCURVE",
"252 383 OFFCURVE",
"161 382 CURVE SMOOTH",
"147 382 LINE",
"147 319 LINE {name = hr01;}",
"162 319 LINE SMOOTH",
"257 319 OFFCURVE",
"389 306 OFFCURVE",
"389 188 CURVE SMOOTH",
"389 104 OFFCURVE",
"316 59 OFFCURVE",
"235 59 CURVE SMOOTH",
"175 59 OFFCURVE",
"118 77 OFFCURVE",
"71 112 CURVE {name = hr00;}",
"36 55 LINE",
"93 16 OFFCURVE",
"163 -4 OFFCURVE",
"232 -4 CURVE SMOOTH"
);
}
);
width = 515;
},
{
layerId = "682D4A5D-117B-492A-B436-118C610C28E8";
paths = (
{
closed = 1;
nodes = (
"360 -4 OFFCURVE",
"484 62 OFFCURVE",
"484 201 CURVE SMOOTH",
"484 301 OFFCURVE",
"408 340 OFFCURVE",
"357 349 CURVE",
"427 362 OFFCURVE",
"470 433 OFFCURVE",
"470 505 CURVE SMOOTH {name = hr01;}",
"470 632 OFFCURVE",
"359 690 OFFCURVE",
"264 690 CURVE SMOOTH",
"138 690 OFFCURVE",
"66 623 OFFCURVE",
"17 535 CURVE",
"138 470 LINE",
"184 578 LINE",
"197 583 OFFCURVE",
"221 585 OFFCURVE",
"247 585 CURVE SMOOTH",
"279 585 OFFCURVE",
"331 563 OFFCURVE",
"331 500 CURVE SMOOTH",
"331 432 OFFCURVE",
"283 395 OFFCURVE",
"182 395 CURVE SMOOTH",
"135 395 LINE",
"135 290 LINE",
"202 290 LINE SMOOTH",
"327 290 OFFCURVE",
"346 227 OFFCURVE",
"346 191 CURVE SMOOTH {name = hr02;}",
"346 174 OFFCURVE",
"338 100 OFFCURVE",
"250 100 CURVE SMOOTH",
"186 100 OFFCURVE",
"138 136 OFFCURVE",
"96 176 CURVE",
"25 73 LINE {name = hr00;}",
"57 40 OFFCURVE",
"131 -4 OFFCURVE",
"253 -4 CURVE SMOOTH"
);
}
);
width = 522;
}
);
unicode = 0033;
userData = {
com.typemytype.robofont.mark = (
0.713,
0.6,
1,
1
);
};
},
{
color = 10;
glyphname = four;
layers = (
{
layerId = "CBC04B6C-E875-491C-A1C2-2B8D0972DDA1";
paths = (
{
closed = 1;
nodes = (
"462 2 LINE",
"462 59 LINE",
"382 73 LINE",
"382 200 LINE",
"467 200 LINE",
"467 268 LINE",
"382 268 LINE",
"382 691 LINE",
"314 691 LINE",
"8 264 LINE",
"39 200 LINE",
"314 200 LINE",
"314 72 LINE",
"162 56 LINE {name = hr00;}",
"162 2 LINE"
);
},
{
closed = 1;
nodes = (
"314 592 LINE",
"314 268 LINE",
"85 268 LINE"
);
}
);
width = 508;
},
{
layerId = "682D4A5D-117B-492A-B436-118C610C28E8";
paths = (
{
closed = 1;
nodes = (
"503 0 LINE",
"500 81 LINE",
"425 94 LINE",
"425 187 LINE",
"503 187 LINE",
"503 292 LINE",
"425 292 LINE",
"425 691 LINE",
"278 691 LINE",
"-5 275 LINE",
"33 187 LINE",
"295 187 LINE",
"295 98 LINE",
"152 83 LINE",
"152 0 LINE {name = hr00;}"
);
},
{
closed = 1;
nodes = (
"295 549 LINE",
"295 292 LINE",
"117 292 LINE"
);
}
);
width = 539;
}
);
unicode = 0034;
userData = {
com.typemytype.robofont.mark = (
0.713,
0.6,
1,
1
);
};
},
{
color = 10;
glyphname = five;
layers = (
{
layerId = "CBC04B6C-E875-491C-A1C2-2B8D0972DDA1";
paths = (
{
closed = 1;
nodes = (
"353 -4 OFFCURVE",
"456 90 OFFCURVE",
"456 231 CURVE SMOOTH",
"456 367 OFFCURVE",
"354 453 OFFCURVE",
"203 453 CURVE SMOOTH",
"184 453 OFFCURVE",
"164 453 OFFCURVE",
"143 451 CURVE",
"143 623 LINE",
"442 623 LINE",
"442 690 LINE",
"111 690 LINE {name = hr00;}",
"80 657 LINE",
"80 382 LINE",
"106 386 OFFCURVE",
"138 390 OFFCURVE",
"173 390 CURVE SMOOTH",
"275 390 OFFCURVE",
"384 360 OFFCURVE",
"384 226 CURVE SMOOTH",
"384 130 OFFCURVE",
"311 59 OFFCURVE",
"215 59 CURVE SMOOTH",
"162 59 OFFCURVE",
"104 77 OFFCURVE",
"65 112 CURVE",
"29 55 LINE",
"82 12 OFFCURVE",
"146 -4 OFFCURVE",
"214 -4 CURVE SMOOTH"
);
}
);
width = 502;
},
{
layerId = "682D4A5D-117B-492A-B436-118C610C28E8";
paths = (
{
closed = 1;
nodes = (
"371 -4 OFFCURVE",
"483 85 OFFCURVE",
"483 240 CURVE SMOOTH",
"483 383 OFFCURVE",
"385 472 OFFCURVE",
"241 472 CURVE SMOOTH",
"229 472 OFFCURVE",
"217 471 OFFCURVE",
"205 470 CURVE",
"205 585 LINE",
"467 585 LINE",
"467 691 LINE",
"104 691 LINE",
"74 658 LINE {name = hr00;}",
"74 355 LINE",
"110 365 OFFCURVE",
"134 372 OFFCURVE",
"187 372 CURVE SMOOTH",
"266 372 OFFCURVE",
"345 327 OFFCURVE",
"345 237 CURVE SMOOTH",
"345 157 OFFCURVE",
"285 100 OFFCURVE",
"209 100 CURVE SMOOTH",
"149 100 OFFCURVE",
"97 140 OFFCURVE",
"71 171 CURVE",
"11 73 LINE",
"43 41 OFFCURVE",
"111 -4 OFFCURVE",
"220 -4 CURVE SMOOTH"
);
}
);
width = 517;
}
);
unicode = 0035;
userData = {
com.typemytype.robofont.mark = (
0.713,
0.6,
1,
1
);
};
},
{
color = 10;
glyphname = six;
layers = (
{
layerId = "CBC04B6C-E875-491C-A1C2-2B8D0972DDA1";
paths = (
{
closed = 1;
nodes = (
"428 -4 OFFCURVE",
"515 92 OFFCURVE",
"515 219 CURVE SMOOTH",
"515 342 OFFCURVE",
"427 430 OFFCURVE",
"303 430 CURVE SMOOTH {name = hr00;}",
"228 430 OFFCURVE",
"162 391 OFFCURVE",
"124 336 CURVE",
"124 448 OFFCURVE",
"174 629 OFFCURVE",
"315 629 CURVE SMOOTH",
"346 629 OFFCURVE",
"373 620 OFFCURVE",
"386 613 CURVE",
"438 541 LINE {name = hr01;}",
"511 612 LINE",
"497 627 OFFCURVE",
"430 692 OFFCURVE",
"314 692 CURVE SMOOTH",
"122 692 OFFCURVE",
"51 483 OFFCURVE",
"51 329 CURVE SMOOTH",
"51 185 OFFCURVE",
"118 -4 OFFCURVE",
"298 -4 CURVE SMOOTH"
);
},
{
closed = 1;
nodes = (
"210 59 OFFCURVE",
"153 129 OFFCURVE",
"140 211 CURVE",
"141 297 OFFCURVE",
"211 367 OFFCURVE",
"296 367 CURVE SMOOTH",
"387 367 OFFCURVE",
"443 304 OFFCURVE",
"443 218 CURVE SMOOTH",
"443 143 OFFCURVE",
"399 59 OFFCURVE",
"299 59 CURVE SMOOTH"
);
}
);
width = 563;
},
{
layerId = "682D4A5D-117B-492A-B436-118C610C28E8";
paths = (
{
closed = 1;
nodes = (
"435 -4 OFFCURVE",
"522 86 OFFCURVE",
"522 222 CURVE SMOOTH",
"522 370 OFFCURVE",
"411 434 OFFCURVE",
"316 434 CURVE SMOOTH",
"259 434 OFFCURVE",
"202 412 OFFCURVE",
"172 378 CURVE",
"181 521 OFFCURVE",
"251 587 OFFCURVE",
"309 587 CURVE SMOOTH",
"328 587 OFFCURVE",
"340 585 OFFCURVE",
"349 582 CURVE",
"398 514 LINE",
"513 588 LINE",
"491 619 OFFCURVE",
"440 692 OFFCURVE",
"317 692 CURVE {name = hr00;}",
"148 690 OFFCURVE",
"36 539 OFFCURVE",
"36 350 CURVE SMOOTH",
"36 172 OFFCURVE",
"99 -4 OFFCURVE",
"294 -4 CURVE SMOOTH"
);
},
{
closed = 1;
nodes = (
"239 101 OFFCURVE",
"206 146 OFFCURVE",
"189 207 CURVE {name = hr01;}",
"189 290 OFFCURVE",
"235 327 OFFCURVE",
"288 327 CURVE SMOOTH",
"332 327 OFFCURVE",
"385 288 OFFCURVE",
"385 216 CURVE SMOOTH",
"385 151 OFFCURVE",
"359 101 OFFCURVE",
"292 101 CURVE SMOOTH"
);
}
);
width = 554;
}
);
unicode = 0036;
userData = {
com.typemytype.robofont.mark = (
0.713,
0.6,
1,
1
);
};
},
{
color = 10;
glyphname = seven;
layers = (
{
layerId = "CBC04B6C-E875-491C-A1C2-2B8D0972DDA1";
paths = (
{
closed = 1;
nodes = (
"196 0 LINE",
"417 665 LINE",
"399 690 LINE",
"30 690 LINE",
"30 513 LINE",
"72 513 LINE",
"102 625 LINE {name = hr00;}",
"345 625 LINE",
"121 14 LINE",
"126 0 LINE"
);
}
);
width = 427;
},
{
layerId = "682D4A5D-117B-492A-B436-118C610C28E8";
paths = (
{
closed = 1;
nodes = (
"251 0 LINE",
"458 665 LINE",
"440 691 LINE",
"24 691 LINE",
"24 454 LINE",
"108 454 LINE",
"129 567 LINE {name = hr01;}",
"324 567 LINE {name = hr00;}",
"104 20 LINE",
"115 0 LINE"
);
}
);
width = 455;
}
);
unicode = 0037;
userData = {
com.typemytype.robofont.mark = (
0.713,
0.6,
1,
1
);
};
},
{
color = 10;
glyphname = eight;
layers = (
{
layerId = "CBC04B6C-E875-491C-A1C2-2B8D0972DDA1";
paths = (
{
closed = 1;
nodes = (
"397 -4 OFFCURVE",
"466 88 OFFCURVE",
"466 172 CURVE SMOOTH",
"466 251 OFFCURVE",
"432 306 OFFCURVE",
"321 373 CURVE",
"389 426 OFFCURVE",
"430 471 OFFCURVE",
"430 533 CURVE SMOOTH",
"430 634 OFFCURVE",
"363 692 OFFCURVE",
"254 692 CURVE SMOOTH",
"146 692 OFFCURVE",
"80 624 OFFCURVE",
"80 533 CURVE SMOOTH {name = hr00;}",
"80 459 OFFCURVE",
"128 410 OFFCURVE",
"188 369 CURVE",
"122 327 OFFCURVE",
"47 269 OFFCURVE",
"47 172 CURVE SMOOTH",
"47 88 OFFCURVE",
"111 -4 OFFCURVE",
"254 -4 CURVE SMOOTH {name = hr01;}"
);
},
{
closed = 1;
nodes = (
"180 59 OFFCURVE",
"115 99 OFFCURVE",
"115 173 CURVE SMOOTH",
"115 254 OFFCURVE",
"187 295 OFFCURVE",
"243 335 CURVE {name = hr03;}",
"253 330 OFFCURVE",
"397 271 OFFCURVE",
"397 173 CURVE SMOOTH {name = hr02;}",
"397 99 OFFCURVE",
"329 59 OFFCURVE",
"254 59 CURVE SMOOTH"
);
},
{
closed = 1;
nodes = (
"192 447 OFFCURVE",
"148 478 OFFCURVE",
"148 542 CURVE SMOOTH {name = hr04;}",
"148 608 OFFCURVE",
"219 629 OFFCURVE",
"254 629 CURVE SMOOTH",
"302 629 OFFCURVE",
"362 605 OFFCURVE",
"362 539 CURVE SMOOTH",
"362 489 OFFCURVE",
"316 447 OFFCURVE",
"265 405 CURVE"
);
}
);
width = 513;
},
{
layerId = "682D4A5D-117B-492A-B436-118C610C28E8";
paths = (
{
closed = 1;
nodes = (
"395 -5 OFFCURVE",
"512 64 OFFCURVE",
"512 194 CURVE SMOOTH",
"512 290 OFFCURVE",
"452 338 OFFCURVE",
"384 374 CURVE",
"437 413 OFFCURVE",
"480 462 OFFCURVE",
"480 528 CURVE SMOOTH",
"480 648 OFFCURVE",
"372 696 OFFCURVE",
"276 696 CURVE SMOOTH",
"182 696 OFFCURVE",
"69 646 OFFCURVE",
"69 526 CURVE SMOOTH {name = hr00;}",
"69 453 OFFCURVE",
"103 409 OFFCURVE",
"149 376 CURVE",
"76 337 OFFCURVE",
"33 267 OFFCURVE",
"33 184 CURVE SMOOTH",
"33 59 OFFCURVE",
"145 -5 OFFCURVE",
"270 -5 CURVE SMOOTH {name = hr01;}"
);
},
{
closed = 1;
nodes = (
"253 100 OFFCURVE",
"171 109 OFFCURVE",
"171 197 CURVE SMOOTH",
"171 244 OFFCURVE",
"203 288 OFFCURVE",
"251 320 CURVE {name = hr03;}",
"316 289 OFFCURVE",
"374 260 OFFCURVE",
"374 198 CURVE SMOOTH",
"374 124 OFFCURVE",
"312 100 OFFCURVE",
"273 100 CURVE SMOOTH {name = hr02;}"
);
},
{
closed = 1;
nodes = (
"233 451 OFFCURVE",
"195 481 OFFCURVE",
"195 533 CURVE SMOOTH {name = hr04;}",
"195 575 OFFCURVE",
"223 610 OFFCURVE",
"275 610 CURVE SMOOTH",
"329 610 OFFCURVE",
"355 572 OFFCURVE",
"355 532 CURVE SMOOTH",
"355 487 OFFCURVE",
"317 450 OFFCURVE",
"282 424 CURVE"
);
}
);
width = 545;
}
);
unicode = 0038;
userData = {
com.typemytype.robofont.mark = (
0.713,
0.6,
1,
1
);
};
},
{
color = 10;
glyphname = nine;
layers = (
{
layerId = "CBC04B6C-E875-491C-A1C2-2B8D0972DDA1";
paths = (
{
closed = 1;
nodes = (
"381 -4 OFFCURVE",
"480 123 OFFCURVE",
"480 328 CURVE SMOOTH",
"480 476 OFFCURVE",
"461 691 OFFCURVE",
"256 691 CURVE SMOOTH",
"108 691 OFFCURVE",
"51 568 OFFCURVE",
"51 473 CURVE SMOOTH",
"51 361 OFFCURVE",
"124 257 OFFCURVE",
"252 257 CURVE SMOOTH {name = hr00;}",
"312 257 OFFCURVE",
"371 283 OFFCURVE",
"407 329 CURVE",
"403 119 OFFCURVE",
"315 59 OFFCURVE",
"233 59 CURVE SMOOTH",
"178 59 OFFCURVE",
"121 93 OFFCURVE",
"89 124 CURVE",
"46 64 LINE",
"80 35 OFFCURVE",
"146 -4 OFFCURVE",
"240 -4 CURVE SMOOTH"
);
},
{
closed = 1;
nodes = (
"168 321 OFFCURVE",
"124 394 OFFCURVE",
"124 478 CURVE SMOOTH",
"124 570 OFFCURVE",
"184 628 OFFCURVE",
"259 628 CURVE SMOOTH",
"345 628 OFFCURVE",
"387 553 OFFCURVE",
"401 444 CURVE",
"387 370 OFFCURVE",
"323 321 OFFCURVE",
"259 321 CURVE SMOOTH"
);
}
);
width = 535;
},
{
layerId = "682D4A5D-117B-492A-B436-118C610C28E8";
paths = (
{
closed = 1;
nodes = (
"409 -4 OFFCURVE",
"506 149 OFFCURVE",
"506 338 CURVE SMOOTH",
"506 529 OFFCURVE",
"439 691 OFFCURVE",
"271 691 CURVE SMOOTH",
"113 691 OFFCURVE",
"39 584 OFFCURVE",
"39 458 CURVE SMOOTH",
"39 320 OFFCURVE",
"129 249 OFFCURVE",
"253 249 CURVE SMOOTH",
"285 249 OFFCURVE",
"332 259 OFFCURVE",
"367 289 CURVE",
"361 176 OFFCURVE",
"330 105 OFFCURVE",
"243 101 CURVE",
"183 103 OFFCURVE",
"138 130 OFFCURVE",
"98 167 CURVE",
"27 73 LINE",
"60 41 OFFCURVE",
"136 -4 OFFCURVE",
"234 -4 CURVE SMOOTH {name = hr00;}"
);
},
{
closed = 1;
nodes = (
"203 354 OFFCURVE",
"175 403 OFFCURVE",
"175 467 CURVE SMOOTH",
"175 519 OFFCURVE",
"197 586 OFFCURVE",
"262 586 CURVE SMOOTH",
"337 586 OFFCURVE",
"360 515 OFFCURVE",
"366 427 CURVE",
"347 380 OFFCURVE",
"301 354 OFFCURVE",
"262 354 CURVE SMOOTH"
);
}
);
width = 543;
}
);
unicode = 0039;
userData = {
com.typemytype.robofont.mark = (
0.713,
0.6,
1,
1
);
};
},
{
color = 10;
glyphname = onesuperior;
layers = (
{
layerId = "CBC04B6C-E875-491C-A1C2-2B8D0972DDA1";
paths = (
{
closed = 1;
nodes = (
"178 434 LINE",
"178 470 LINE",
"143 479 LINE",
"143 688 LINE",
"134 693 LINE",
"41 664 LINE",
"50 629 LINE",
"89 635 LINE",
"89 476 LINE",
"51 468 LINE {name = hr00;}",
"54 434 LINE"
);
}
);
width = 220;
},
{
layerId = "682D4A5D-117B-492A-B436-118C610C28E8";
paths = (
{
closed = 1;
nodes = (
"226 402 LINE",
"226 449 LINE",
"191 458 LINE",
"191 716 LINE",
"174 728 LINE",
"26 689 LINE",
"35 644 LINE",
"85 652 LINE",
"85 455 LINE",
"47 447 LINE {name = hr00;}",
"50 402 LINE"
);
}
);
width = 260;
}
);
unicode = 00B9;
userData = {
com.typemytype.robofont.mark = (
0.713,
0.6,
1,
1
);
};
},
{
color = 10;
glyphname = twosuperior;
layers = (
{
layerId = "CBC04B6C-E875-491C-A1C2-2B8D0972DDA1";
paths = (
{
closed = 1;
nodes = (
"209 434 LINE",
"220 508 LINE",
"189 508 LINE",
"175 476 LINE",
"129 476 LINE",
"187 534 OFFCURVE",
"211 568 OFFCURVE",
"211 615 CURVE SMOOTH",
"211 664 OFFCURVE",
"175 691 OFFCURVE",
"135 691 CURVE SMOOTH",
"96 691 OFFCURVE",
"55 673 OFFCURVE",
"42 622 CURVE",
"89 608 LINE",
"100 639 LINE",
"107 642 OFFCURVE",
"114 644 OFFCURVE",
"125 644 CURVE SMOOTH",
"147 644 OFFCURVE",
"158 633 OFFCURVE",
"158 610 CURVE SMOOTH",
"158 555 OFFCURVE",
"70 479 OFFCURVE",
"50 462 CURVE",
"53 434 LINE {name = hr00;}"
);
}
);
width = 265;
},
{
layerId = "682D4A5D-117B-492A-B436-118C610C28E8";
paths = (
{
closed = 1;
nodes = (
"285 402 LINE {name = hr00;}",
"296 513 LINE",
"243 513 LINE",
"225 477 LINE",
"168 477 LINE",
"199 498 OFFCURVE",
"290 541 OFFCURVE",
"290 627 CURVE SMOOTH",
"290 698 OFFCURVE",
"223 728 OFFCURVE",
"170 728 CURVE SMOOTH",
"113 728 OFFCURVE",
"51 697 OFFCURVE",
"27 635 CURVE",
"116 607 LINE",
"136 648 LINE",
"141 649 OFFCURVE",
"146 651 OFFCURVE",
"153 651 CURVE SMOOTH",
"168 651 OFFCURVE",
"185 646 OFFCURVE",
"185 619 CURVE SMOOTH",
"185 568 OFFCURVE",
"66 488 OFFCURVE",
"41 461 CURVE",
"58 402 LINE"
);
}
);
width = 336;
}
);
unicode = 00B2;
userData = {
com.typemytype.robofont.mark = (
0.713,
0.6,
1,
1
);
};
},
{
color = 10;
glyphname = threesuperior;
layers = (
{
layerId = "CBC04B6C-E875-491C-A1C2-2B8D0972DDA1";
paths = (
{
closed = 1;
nodes = (
"182 434 OFFCURVE",
"225 459 OFFCURVE",
"225 508 CURVE SMOOTH {name = hr02;}",
"225 543 OFFCURVE",
"202 561 OFFCURVE",
"166 568 CURVE",
"198 573 OFFCURVE",
"210 600 OFFCURVE",
"210 625 CURVE SMOOTH",
"210 665 OFFCURVE",
"170 691 OFFCURVE",
"134 691 CURVE SMOOTH",
"86 691 OFFCURVE",
"55 662 OFFCURVE",
"43 622 CURVE",
"92 607 LINE",
"104 638 LINE",
"109 642 OFFCURVE",
"117 644 OFFCURVE",
"128 644 CURVE SMOOTH",
"152 644 OFFCURVE",
"159 630 OFFCURVE",
"159 618 CURVE SMOOTH",
"159 597 OFFCURVE",
"141 586 OFFCURVE",
"104 586 CURVE {name = hr01;}",
"104 542 LINE",
"135 542 OFFCURVE",
"172 538 OFFCURVE",
"172 512 CURVE SMOOTH",
"172 499 OFFCURVE",
"161 481 OFFCURVE",
"129 481 CURVE SMOOTH",
"99 481 OFFCURVE",
"83 494 OFFCURVE",
"68 507 CURVE {name = hr00;}",
"39 468 LINE",
"58 451 OFFCURVE",
"86 434 OFFCURVE",
"127 434 CURVE SMOOTH"
);
}
);
width = 264;
},
{
layerId = "682D4A5D-117B-492A-B436-118C610C28E8";
paths = (
{
closed = 1;
nodes = (
"220 402 OFFCURVE",
"290 424 OFFCURVE",
"290 497 CURVE SMOOTH",
"290 549 OFFCURVE",
"252 567 OFFCURVE",
"228 570 CURVE",
"255 577 OFFCURVE",
"283 595 OFFCURVE",
"283 640 CURVE SMOOTH",
"283 690 OFFCURVE",
"228 728 OFFCURVE",
"167 728 CURVE SMOOTH",
"108 728 OFFCURVE",
"54 705 OFFCURVE",
"31 650 CURVE",
"114 621 LINE",
"129 648 LINE",
"134 649 OFFCURVE",
"139 652 OFFCURVE",
"152 652 CURVE SMOOTH",
"167 652 OFFCURVE",
"178 642 OFFCURVE",
"178 630 CURVE SMOOTH",
"178 613 OFFCURVE",
"171 592 OFFCURVE",
"112 592 CURVE",
"112 540 LINE",
"174 540 OFFCURVE",
"185 531 OFFCURVE",
"185 508 CURVE SMOOTH",
"185 490 OFFCURVE",
"169 476 OFFCURVE",
"145 476 CURVE SMOOTH",
"109 476 OFFCURVE",
"81 492 OFFCURVE",
"62 511 CURVE",
"28 443 LINE {name = hr00;}",
"45 427 OFFCURVE",
"94 402 OFFCURVE",
"147 402 CURVE SMOOTH"
);
}
);
width = 323;
}
);
unicode = 00B3;
userData = {
com.typemytype.robofont.mark = (
0.713,
0.6,
1,
1
);
};
},
{
color = 10;
glyphname = fraction;
layers = (
{
layerId = "CBC04B6C-E875-491C-A1C2-2B8D0972DDA1";
paths = (
{
closed = 1;
nodes = (
"-129 -21 LINE",
"220 677 LINE",
"221 691 LINE",
"169 691 LINE",
"-180 -8 LINE",
"-177 -21 LINE"
);
}
);
width = 61;
},
{
layerId = "682D4A5D-117B-492A-B436-118C610C28E8";
paths = (
{
closed = 1;
nodes = (
"-52 0 LINE",
"265 677 LINE",
"266 691 LINE",
"138 691 LINE",
"-180 13 LINE",
"-177 0 LINE {name = hr01;}"
);
}
);
width = 46;
}
);
unicode = 2044;
},
{
color = 10;
glyphname = onehalf;
layers = (
{
layerId = "CBC04B6C-E875-491C-A1C2-2B8D0972DDA1";
paths = (
{
closed = 1;
nodes = (
"125 -21 LINE",
"474 677 LINE",
"475 691 LINE",
"423 691 LINE",
"74 -8 LINE",
"77 -21 LINE"
);
},
{
closed = 1;
nodes = (
"182 315 LINE",
"182 352 LINE",
"147 360 LINE",
"147 688 LINE",
"138 693 LINE",
"35 664 LINE",
"43 629 LINE",
"93 635 LINE",
"93 357 LINE",
"50 350 LINE",
"53 315 LINE"
);
},
{
closed = 1;
nodes = (
"578 0 LINE",
"590 93 LINE",
"552 93 LINE {name = hr01;}",
"533 42 LINE",
"422 42 LINE",
"460 80 OFFCURVE",
"581 175 OFFCURVE",
"581 269 CURVE SMOOTH",
"581 344 OFFCURVE",
"530 379 OFFCURVE",
"463 379 CURVE SMOOTH",
"404 379 OFFCURVE",
"357 342 OFFCURVE",
"333 301 CURVE",
"387 267 LINE",
"416 327 LINE",
"425 331 OFFCURVE",
"442 337 OFFCURVE",
"461 337 CURVE SMOOTH",
"479 337 OFFCURVE",
"529 330 OFFCURVE",
"529 269 CURVE SMOOTH",
"529 188 OFFCURVE",
"367 63 OFFCURVE",
"339 31 CURVE",
"344 0 LINE {name = hr00;}"
);
}
);
width = 625;
},
{
layerId = "682D4A5D-117B-492A-B436-118C610C28E8";
paths = (
{
closed = 1;
nodes = (
"263 0 LINE",
"580 677 LINE",
"581 691 LINE",
"453 691 LINE",
"135 13 LINE",
"138 0 LINE {name = hr01;}"
);
},
{
closed = 1;
nodes = (
"244 315 LINE",
"244 373 LINE",
"206 381 LINE",
"206 702 LINE",
"193 714 LINE",
"29 666 LINE",
"37 600 LINE",
"91 608 LINE",
"91 378 LINE",
"45 371 LINE",
"45 315 LINE"
);
},
{
closed = 1;
nodes = (
"739 -1 LINE {name = hr00;}",
"755 149 LINE",
"703 149 LINE",
"679 88 LINE",
"612 88 LINE",
"644 111 OFFCURVE",
"740 209 OFFCURVE",
"740 284 CURVE SMOOTH",
"740 373 OFFCURVE",
"671 399 OFFCURVE",
"598 399 CURVE SMOOTH",
"541 399 OFFCURVE",
"480 369 OFFCURVE",
"445 294 CURVE",
"562 249 LINE",
"580 302 LINE",
"585 304 OFFCURVE",
"591 304 OFFCURVE",
"598 304 CURVE SMOOTH",
"613 304 OFFCURVE",
"622 294 OFFCURVE",
"622 280 CURVE SMOOTH",
"622 235 OFFCURVE",
"483 104 OFFCURVE",
"453 68 CURVE",
"472 -1 LINE"
);
}
);
width = 784;
}
);
unicode = 00BD;
userData = {
com.typemytype.robofont.mark = (
0.713,
0.6,
1,
1
);
};
},
{
color = 3;
export = 0;
glyphname = zero.numr;
layers = (
{
layerId = "CBC04B6C-E875-491C-A1C2-2B8D0972DDA1";
paths = (
{
closed = 1;
nodes = (
"155 600 OFFCURVE",
"192 698 OFFCURVE",
"284 698 CURVE SMOOTH",
"374 698 OFFCURVE",
"412 600 OFFCURVE",
"412 504 CURVE SMOOTH",
"412 408 OFFCURVE",
"374 310 OFFCURVE",
"284 310 CURVE SMOOTH",
"192 310 OFFCURVE",
"155 408 OFFCURVE",
"155 504 CURVE SMOOTH {name = hr00;}"
);
},
{
closed = 1;
nodes = (
"194 431 OFFCURVE",
"216 348 OFFCURVE",
"284 348 CURVE SMOOTH",
"352 348 OFFCURVE",
"373 431 OFFCURVE",
"373 504 CURVE SMOOTH",
"373 578 OFFCURVE",
"352 660 OFFCURVE",
"284 660 CURVE SMOOTH",
"216 660 OFFCURVE",
"194 578 OFFCURVE",
"194 504 CURVE SMOOTH"
);
}
);
width = 600;
},
{
layerId = "682D4A5D-117B-492A-B436-118C610C28E8";
paths = (
{
closed = 1;
nodes = (
"8 408 OFFCURVE",
"46 311 OFFCURVE",
"151 311 CURVE SMOOTH",
"257 311 OFFCURVE",
"296 408 OFFCURVE",
"296 504 CURVE SMOOTH",
"296 600 OFFCURVE",
"257 697 OFFCURVE",
"151 697 CURVE SMOOTH",
"46 697 OFFCURVE",
"8 600 OFFCURVE",
"8 504 CURVE SMOOTH {name = hr00;}"
);
},
{
closed = 1;
nodes = (
"115 559 OFFCURVE",
"115 629 OFFCURVE",
"151 629 CURVE SMOOTH",
"189 629 OFFCURVE",
"189 559 OFFCURVE",
"189 504 CURVE SMOOTH",
"189 449 OFFCURVE",
"189 379 OFFCURVE",
"151 379 CURVE SMOOTH",
"115 379 OFFCURVE",
"115 449 OFFCURVE",
"115 504 CURVE SMOOTH"
);
}
);
width = 304;
}
);
},
{
color = 3;
export = 0;
glyphname = one.numr;
layers = (
{
layerId = "CBC04B6C-E875-491C-A1C2-2B8D0972DDA1";
paths = (
{
closed = 1;
nodes = (
"183 315 LINE",
"183 352 LINE",
"148 360 LINE",
"148 688 LINE",
"139 693 LINE",
"36 664 LINE",
"44 629 LINE",
"94 635 LINE",
"94 357 LINE",
"51 350 LINE",
"54 315 LINE"
);
}
);
width = 233;
},
{
layerId = "682D4A5D-117B-492A-B436-118C610C28E8";
paths = (
{
closed = 1;
nodes = (
"244 315 LINE",
"244 373 LINE",
"206 381 LINE",
"206 702 LINE",
"193 714 LINE",
"29 666 LINE",
"37 600 LINE",
"91 608 LINE",
"91 378 LINE",
"45 371 LINE",
"45 315 LINE"
);
}
);
width = 294;
}
);
},
{
color = 3;
export = 0;
glyphname = two.numr;
layers = (
{
layerId = "CBC04B6C-E875-491C-A1C2-2B8D0972DDA1";
paths = (
{
closed = 1;
nodes = (
"253 315 LINE",
"265 408 LINE",
"227 408 LINE {name = hr01;}",
"208 357 LINE",
"97 357 LINE",
"135 395 OFFCURVE",
"256 490 OFFCURVE",
"256 584 CURVE SMOOTH",
"256 659 OFFCURVE",
"205 694 OFFCURVE",
"138 694 CURVE SMOOTH",
"79 694 OFFCURVE",
"32 657 OFFCURVE",
"8 616 CURVE",
"62 582 LINE",
"91 642 LINE",
"100 646 OFFCURVE",
"117 652 OFFCURVE",
"136 652 CURVE SMOOTH",
"154 652 OFFCURVE",
"204 645 OFFCURVE",
"204 584 CURVE SMOOTH",
"204 503 OFFCURVE",
"42 378 OFFCURVE",
"14 346 CURVE",
"19 315 LINE {name = hr00;}"
);
}
);
width = 273;
},
{
layerId = "682D4A5D-117B-492A-B436-118C610C28E8";
paths = (
{
closed = 1;
nodes = (
"302 315 LINE {name = hr00;}",
"318 465 LINE",
"266 465 LINE",
"242 404 LINE",
"175 404 LINE",
"207 427 OFFCURVE",
"303 525 OFFCURVE",
"303 600 CURVE SMOOTH",
"303 689 OFFCURVE",
"234 715 OFFCURVE",
"161 715 CURVE SMOOTH",
"104 715 OFFCURVE",
"43 685 OFFCURVE",
"8 610 CURVE",
"125 565 LINE",
"143 618 LINE",
"148 620 OFFCURVE",
"154 620 OFFCURVE",
"161 620 CURVE SMOOTH",
"176 620 OFFCURVE",
"185 610 OFFCURVE",
"185 596 CURVE SMOOTH",
"185 551 OFFCURVE",
"46 420 OFFCURVE",
"16 384 CURVE",
"35 315 LINE"
);
}
);
width = 326;
}
);
},
{
color = 3;
export = 0;
glyphname = three.numr;
layers = (
{
layerId = "CBC04B6C-E875-491C-A1C2-2B8D0972DDA1";
paths = (
{
closed = 1;
nodes = (
"207 304 OFFCURVE",
"275 344 OFFCURVE",
"275 416 CURVE SMOOTH {name = hr02;}",
"275 453 OFFCURVE",
"251 495 OFFCURVE",
"198 503 CURVE",
"245 510 OFFCURVE",
"269 550 OFFCURVE",
"269 590 CURVE SMOOTH",
"269 656 OFFCURVE",
"215 689 OFFCURVE",
"159 689 CURVE SMOOTH",
"88 689 OFFCURVE",
"51 648 OFFCURVE",
"35 617 CURVE",
"79 589 LINE",
"106 635 LINE",
"115 639 OFFCURVE",
"127 647 OFFCURVE",
"154 647 CURVE SMOOTH",
"178 647 OFFCURVE",
"222 628 OFFCURVE",
"222 591 CURVE SMOOTH",
"222 530 OFFCURVE",
"169 526 OFFCURVE",
"113 526 CURVE",
"105 526 LINE",
"105 484 LINE",
"113 484 LINE",
"191 482 OFFCURVE",
"225 459 OFFCURVE",
"225 413 CURVE SMOOTH",
"225 366 OFFCURVE",
"179 346 OFFCURVE",
"144 346 CURVE SMOOTH",
"109 346 OFFCURVE",
"82 360 OFFCURVE",
"62 379 CURVE",
"34 336 LINE",
"62 316 OFFCURVE",
"99 304 OFFCURVE",
"143 304 CURVE SMOOTH {name = hr03;}"
);
}
);
width = 309;
},
{
layerId = "682D4A5D-117B-492A-B436-118C610C28E8";
paths = (
{
closed = 1;
nodes = (
"263 313 OFFCURVE",
"338 353 OFFCURVE",
"338 441 CURVE SMOOTH",
"338 492 OFFCURVE",
"303 511 OFFCURVE",
"282 523 CURVE",
"313 535 OFFCURVE",
"331 570 OFFCURVE",
"331 607 CURVE SMOOTH",
"331 688 OFFCURVE",
"264 715 OFFCURVE",
"190 715 CURVE SMOOTH",
"122 715 OFFCURVE",
"49 679 OFFCURVE",
"25 605 CURVE",
"133 565 LINE",
"151 615 LINE",
"156 617 OFFCURVE",
"162 621 OFFCURVE",
"176 621 CURVE SMOOTH",
"201 621 OFFCURVE",
"214 605 OFFCURVE",
"214 589 CURVE SMOOTH",
"214 564 OFFCURVE",
"195 553 OFFCURVE",
"157 553 CURVE",
"142 554 LINE {name = hr04;}",
"142 481 LINE",
"161 482 LINE",
"201 482 OFFCURVE",
"216 469 OFFCURVE",
"216 443 CURVE SMOOTH",
"216 417 OFFCURVE",
"191 407 OFFCURVE",
"172 407 CURVE SMOOTH",
"152 407 OFFCURVE",
"119 419 OFFCURVE",
"93 444 CURVE",
"36 363 LINE",
"57 343 OFFCURVE",
"103 313 OFFCURVE",
"173 313 CURVE SMOOTH"
);
}
);
width = 363;
}
);
},
{
color = 3;
export = 0;
glyphname = four.numr;
layers = (
{
layerId = "CBC04B6C-E875-491C-A1C2-2B8D0972DDA1";
paths = (
{
closed = 1;
nodes = (
"236 315 LINE",
"236 356 LINE",
"200 362 LINE",
"200 432 LINE",
"249 432 LINE",
"249 479 LINE",
"200 479 LINE",
"200 691 LINE",
"147 691 LINE",
"0 496 LINE",
"0 432 LINE",
"147 432 LINE",
"147 363 LINE",
"63 352 LINE {name = hr00;}",
"65 315 LINE"
);
},
{
closed = 1;
nodes = (
"147 615 LINE {name = hr05;}",
"147 479 LINE {name = hr04;}",
"44 479 LINE"
);
}
);
width = 273;
},
{
layerId = "682D4A5D-117B-492A-B436-118C610C28E8";
paths = (
{
closed = 1;
nodes = (
"366 315 LINE",
"366 373 LINE",
"320 381 LINE",
"320 416 LINE {name = hr03;}",
"365 416 LINE",
"365 500 LINE",
"320 500 LINE",
"320 715 LINE",
"204 715 LINE",
"34 496 LINE",
"34 416 LINE {name = hr01;}",
"204 416 LINE",
"204 378 LINE",
"120 364 LINE",
"126 315 LINE {name = hr02;}"
);
},
{
closed = 1;
nodes = (
"204 584 LINE",
"204 500 LINE",
"130 500 LINE"
);
}
);
width = 400;
}
);
},
{
color = 3;
export = 0;
glyphname = five.numr;
layers = (
{
layerId = "CBC04B6C-E875-491C-A1C2-2B8D0972DDA1";
paths = (
{
closed = 1;
nodes = (
"204 307 OFFCURVE",
"261 359 OFFCURVE",
"261 438 CURVE SMOOTH",
"261 513 OFFCURVE",
"204 561 OFFCURVE",
"120 561 CURVE SMOOTH",
"110 561 OFFCURVE",
"103 561 OFFCURVE",
"91 560 CURVE",
"91 649 LINE",
"247 649 LINE",
"247 691 LINE",
"70 691 LINE {name = hr00;}",
"52 672 LINE",
"52 518 LINE",
"67 520 OFFCURVE",
"84 522 OFFCURVE",
"104 522 CURVE SMOOTH",
"160 522 OFFCURVE",
"218 510 OFFCURVE",
"218 435 CURVE SMOOTH",
"218 382 OFFCURVE",
"181 346 OFFCURVE",
"127 346 CURVE SMOOTH",
"98 346 OFFCURVE",
"65 356 OFFCURVE",
"44 375 CURVE",
"24 339 LINE",
"53 316 OFFCURVE",
"89 307 OFFCURVE",
"127 307 CURVE SMOOTH"
);
}
);
width = 285;
},
{
layerId = "682D4A5D-117B-492A-B436-118C610C28E8";
paths = (
{
closed = 1;
nodes = (
"209 304 OFFCURVE",
"270 353 OFFCURVE",
"270 440 CURVE SMOOTH",
"270 520 OFFCURVE",
"226 568 OFFCURVE",
"145 568 CURVE SMOOTH",
"139 568 OFFCURVE",
"136 568 OFFCURVE",
"130 568 CURVE",
"130 618 LINE",
"262 618 LINE",
"262 691 LINE",
"60 691 LINE",
"42 672 LINE {name = hr00;}",
"42 490 LINE",
"63 495 OFFCURVE",
"76 499 OFFCURVE",
"106 499 CURVE SMOOTH",
"149 499 OFFCURVE",
"179 488 OFFCURVE",
"179 438 CURVE SMOOTH",
"179 393 OFFCURVE",
"160 377 OFFCURVE",
"118 377 CURVE SMOOTH",
"85 377 OFFCURVE",
"55 398 OFFCURVE",
"42 415 CURVE",
"8 347 LINE",
"25 329 OFFCURVE",
"63 304 OFFCURVE",
"125 304 CURVE SMOOTH"
);
}
);
width = 278;
}
);
},
{
color = 3;
export = 0;
glyphname = six.numr;
layers = (
{
layerId = "CBC04B6C-E875-491C-A1C2-2B8D0972DDA1";
paths = (
{
closed = 1;
nodes = (
"234 310 OFFCURVE",
"282 364 OFFCURVE",
"282 435 CURVE SMOOTH",
"282 503 OFFCURVE",
"233 552 OFFCURVE",
"164 552 CURVE SMOOTH {name = hr00;}",
"122 552 OFFCURVE",
"96 540 OFFCURVE",
"74 510 CURVE",
"74 572 OFFCURVE",
"93 643 OFFCURVE",
"171 643 CURVE SMOOTH",
"188 643 OFFCURVE",
"203 638 OFFCURVE",
"210 634 CURVE",
"240 594 LINE {name = hr01;}",
"280 653 LINE",
"272 661 OFFCURVE",
"235 698 OFFCURVE",
"170 698 CURVE SMOOTH",
"63 698 OFFCURVE",
"24 582 OFFCURVE",
"24 496 CURVE SMOOTH",
"24 415 OFFCURVE",
"61 310 OFFCURVE",
"161 310 CURVE SMOOTH"
);
},
{
closed = 1;
nodes = (
"113 365 OFFCURVE",
"101 385 OFFCURVE",
"93 430 CURVE",
"94 478 OFFCURVE",
"113 497 OFFCURVE",
"160 497 CURVE SMOOTH",
"211 497 OFFCURVE",
"222 482 OFFCURVE",
"222 434 CURVE SMOOTH",
"222 392 OFFCURVE",
"218 365 OFFCURVE",
"162 365 CURVE SMOOTH"
);
}
);
width = 306;
},
{
layerId = "682D4A5D-117B-492A-B436-118C610C28E8";
paths = (
{
closed = 1;
nodes = (
"233 308 OFFCURVE",
"282 358 OFFCURVE",
"282 435 CURVE SMOOTH",
"282 519 OFFCURVE",
"220 555 OFFCURVE",
"166 555 CURVE SMOOTH",
"134 555 OFFCURVE",
"112 542 OFFCURVE",
"95 523 CURVE",
"100 604 OFFCURVE",
"129 631 OFFCURVE",
"162 631 CURVE SMOOTH",
"173 631 OFFCURVE",
"179 630 OFFCURVE",
"185 628 CURVE",
"212 590 LINE",
"277 642 LINE",
"265 659 OFFCURVE",
"236 700 OFFCURVE",
"166 700 CURVE {name = hr00;}",
"71 699 OFFCURVE",
"8 614 OFFCURVE",
"8 507 CURVE SMOOTH",
"8 407 OFFCURVE",
"43 308 OFFCURVE",
"153 308 CURVE SMOOTH"
);
},
{
closed = 1;
nodes = (
"122 377 OFFCURVE",
"114 392 OFFCURVE",
"104 427 CURVE {name = hr01;}",
"104 474 OFFCURVE",
"120 484 OFFCURVE",
"150 484 CURVE SMOOTH",
"175 484 OFFCURVE",
"195 472 OFFCURVE",
"195 432 CURVE SMOOTH",
"195 395 OFFCURVE",
"190 377 OFFCURVE",
"152 377 CURVE SMOOTH"
);
}
);
width = 290;
}
);
},
{
color = 3;
export = 0;
glyphname = seven.numr;
layers = (
{
layerId = "CBC04B6C-E875-491C-A1C2-2B8D0972DDA1";
paths = (
{
closed = 1;
nodes = (
"47 591 LINE",
"24 591 LINE",
"24 687 LINE",
"223 687 LINE",
"233 673 LINE",
"114 315 LINE",
"76 315 LINE",
"74 323 LINE",
"194 651 LINE",
"63 651 LINE {name = hr00;}"
);
}
);
width = 257;
},
{
layerId = "682D4A5D-117B-492A-B436-118C610C28E8";
paths = (
{
closed = 1;
nodes = (
"51 326 LINE",
"56 315 LINE",
"129 315 LINE",
"238 668 LINE",
"228 682 LINE",
"8 682 LINE",
"8 556 LINE",
"53 556 LINE",
"64 616 LINE {name = hr01;}",
"168 616 LINE {name = hr00;}"
);
}
);
width = 246;
}
);
},
{
color = 3;
export = 0;
glyphname = eight.numr;
layers = (
{
layerId = "CBC04B6C-E875-491C-A1C2-2B8D0972DDA1";
paths = (
{
closed = 1;
nodes = (
"219 310 OFFCURVE",
"257 361 OFFCURVE",
"257 408 CURVE SMOOTH",
"257 452 OFFCURVE",
"238 483 OFFCURVE",
"176 520 CURVE",
"214 550 OFFCURVE",
"237 575 OFFCURVE",
"237 609 CURVE SMOOTH",
"237 665 OFFCURVE",
"200 698 OFFCURVE",
"139 698 CURVE SMOOTH",
"79 698 OFFCURVE",
"42 660 OFFCURVE",
"42 609 CURVE SMOOTH {name = hr00;}",
"42 568 OFFCURVE",
"69 541 OFFCURVE",
"102 518 CURVE",
"66 495 OFFCURVE",
"24 462 OFFCURVE",
"24 408 CURVE SMOOTH",
"24 361 OFFCURVE",
"59 310 OFFCURVE",
"139 310 CURVE SMOOTH {name = hr01;}"
);
},
{
closed = 1;
nodes = (
"98 345 OFFCURVE",
"62 368 OFFCURVE",
"62 409 CURVE SMOOTH",
"62 454 OFFCURVE",
"102 477 OFFCURVE",
"133 499 CURVE {name = hr03;}",
"139 496 OFFCURVE",
"219 463 OFFCURVE",
"219 409 CURVE SMOOTH {name = hr02;}",
"219 368 OFFCURVE",
"181 345 OFFCURVE",
"139 345 CURVE SMOOTH"
);
},
{
closed = 1;
nodes = (
"105 561 OFFCURVE",
"80 579 OFFCURVE",
"80 614 CURVE SMOOTH {name = hr04;}",
"80 651 OFFCURVE",
"120 663 OFFCURVE",
"139 663 CURVE SMOOTH",
"166 663 OFFCURVE",
"199 649 OFFCURVE",
"199 613 CURVE SMOOTH",
"199 585 OFFCURVE",
"174 561 OFFCURVE",
"145 538 CURVE"
);
}
);
width = 281;
},
{
layerId = "682D4A5D-117B-492A-B436-118C610C28E8";
paths = (
{
closed = 1;
nodes = (
"210 310 OFFCURVE",
"275 349 OFFCURVE",
"275 421 CURVE SMOOTH",
"275 475 OFFCURVE",
"241 501 OFFCURVE",
"204 521 CURVE",
"233 543 OFFCURVE",
"257 570 OFFCURVE",
"257 607 CURVE SMOOTH",
"257 674 OFFCURVE",
"197 701 OFFCURVE",
"143 701 CURVE SMOOTH",
"91 701 OFFCURVE",
"28 673 OFFCURVE",
"28 606 CURVE SMOOTH {name = hr00;}",
"28 565 OFFCURVE",
"47 541 OFFCURVE",
"73 522 CURVE",
"32 501 OFFCURVE",
"8 462 OFFCURVE",
"8 416 CURVE SMOOTH",
"8 346 OFFCURVE",
"71 310 OFFCURVE",
"140 310 CURVE SMOOTH {name = hr01;}"
);
},
{
closed = 1;
nodes = (
"131 369 OFFCURVE",
"85 374 OFFCURVE",
"85 423 CURVE SMOOTH",
"85 449 OFFCURVE",
"103 473 OFFCURVE",
"130 491 CURVE {name = hr03;}",
"166 474 OFFCURVE",
"198 458 OFFCURVE",
"198 423 CURVE SMOOTH",
"198 382 OFFCURVE",
"163 369 OFFCURVE",
"142 369 CURVE SMOOTH {name = hr02;}"
);
},
{
closed = 1;
nodes = (
"120 564 OFFCURVE",
"98 581 OFFCURVE",
"98 610 CURVE SMOOTH {name = hr04;}",
"98 633 OFFCURVE",
"114 653 OFFCURVE",
"143 653 CURVE SMOOTH",
"173 653 OFFCURVE",
"187 632 OFFCURVE",
"187 609 CURVE SMOOTH",
"187 584 OFFCURVE",
"166 564 OFFCURVE",
"147 549 CURVE"
);
}
);
width = 283;
}
);
},
{
color = 3;
export = 0;
glyphname = nine.numr;
layers = (
{
layerId = "CBC04B6C-E875-491C-A1C2-2B8D0972DDA1";
paths = (
{
closed = 1;
nodes = (
"211 310 OFFCURVE",
"266 381 OFFCURVE",
"266 494 CURVE SMOOTH",
"266 577 OFFCURVE",
"255 697 OFFCURVE",
"141 697 CURVE SMOOTH",
"58 697 OFFCURVE",
"27 629 OFFCURVE",
"27 575 CURVE SMOOTH",
"27 514 OFFCURVE",
"68 455 OFFCURVE",
"139 455 CURVE SMOOTH {name = hr00;}",
"173 455 OFFCURVE",
"205 470 OFFCURVE",
"225 495 CURVE",
"223 378 OFFCURVE",
"174 345 OFFCURVE",
"128 345 CURVE SMOOTH",
"97 345 OFFCURVE",
"66 364 OFFCURVE",
"48 381 CURVE",
"24 348 LINE",
"43 332 OFFCURVE",
"80 310 OFFCURVE",
"133 310 CURVE SMOOTH"
);
},
{
closed = 1;
nodes = (
"92 491 OFFCURVE",
"68 532 OFFCURVE",
"68 578 CURVE SMOOTH",
"68 630 OFFCURVE",
"101 662 OFFCURVE",
"143 662 CURVE SMOOTH",
"191 662 OFFCURVE",
"215 620 OFFCURVE",
"222 559 CURVE",
"215 518 OFFCURVE",
"178 491 OFFCURVE",
"143 491 CURVE SMOOTH"
);
}
);
width = 290;
},
{
layerId = "682D4A5D-117B-492A-B436-118C610C28E8";
paths = (
{
closed = 1;
nodes = (
"221 308 OFFCURVE",
"275 393 OFFCURVE",
"275 498 CURVE SMOOTH",
"275 605 OFFCURVE",
"238 695 OFFCURVE",
"144 695 CURVE SMOOTH",
"56 695 OFFCURVE",
"15 635 OFFCURVE",
"15 565 CURVE SMOOTH",
"15 488 OFFCURVE",
"65 449 OFFCURVE",
"134 449 CURVE SMOOTH",
"152 449 OFFCURVE",
"178 454 OFFCURVE",
"197 471 CURVE",
"194 408 OFFCURVE",
"177 369 OFFCURVE",
"128 366 CURVE",
"95 368 OFFCURVE",
"70 383 OFFCURVE",
"48 403 CURVE",
"8 351 LINE",
"27 333 OFFCURVE",
"69 308 OFFCURVE",
"123 308 CURVE SMOOTH {name = hr00;}"
);
},
{
closed = 1;
nodes = (
"106 507 OFFCURVE",
"91 535 OFFCURVE",
"91 570 CURVE SMOOTH",
"91 599 OFFCURVE",
"103 637 OFFCURVE",
"139 637 CURVE SMOOTH",
"181 637 OFFCURVE",
"194 597 OFFCURVE",
"197 548 CURVE",
"186 522 OFFCURVE",
"161 507 OFFCURVE",
"139 507 CURVE SMOOTH"
);
}
);
width = 283;
}
);
},
{
color = 10;
glyphname = period;
layers = (
{
layerId = "CBC04B6C-E875-491C-A1C2-2B8D0972DDA1";
paths = (
{
closed = 1;
nodes = (
"131 -3 OFFCURVE",
"155 20 OFFCURVE",
"155 49 CURVE SMOOTH",
"155 77 OFFCURVE",
"131 101 OFFCURVE",
"103 101 CURVE SMOOTH",
"74 101 OFFCURVE",
"51 77 OFFCURVE",
"51 49 CURVE SMOOTH {name = hr00;}",
"51 20 OFFCURVE",
"74 -3 OFFCURVE",
"103 -3 CURVE SMOOTH"
);
}
);
width = 206;
},
{
layerId = "682D4A5D-117B-492A-B436-118C610C28E8";
paths = (
{
closed = 1;
nodes = (
"142 -4 OFFCURVE",
"172 26 OFFCURVE",
"172 63 CURVE SMOOTH",
"172 100 OFFCURVE",
"142 129 OFFCURVE",
"105 129 CURVE SMOOTH",
"69 129 OFFCURVE",
"38 100 OFFCURVE",
"38 63 CURVE SMOOTH {name = hr00;}",
"38 26 OFFCURVE",
"69 -4 OFFCURVE",
"105 -4 CURVE SMOOTH"
);
}
);
width = 211;
}
);
unicode = 002E;
userData = {
com.typemytype.robofont.mark = (
0.713,
0.6,
1,
1
);
};
},
{
color = 10;
glyphname = comma;
layers = (
{
layerId = "CBC04B6C-E875-491C-A1C2-2B8D0972DDA1";
paths = (
{
closed = 1;
nodes = (
"69 -113 LINE",
"108 -76 OFFCURVE",
"140 0 OFFCURVE",
"140 61 CURVE SMOOTH",
"140 90 OFFCURVE",
"133 118 OFFCURVE",
"131 128 CURVE",
"53 115 LINE",
"76 -1 LINE",
"33 -81 LINE",
"33 -95 LINE {name = hr00;}"
);
}
);
width = 199;
},
{
layerId = "682D4A5D-117B-492A-B436-118C610C28E8";
paths = (
{
closed = 1;
nodes = (
"103 -173 LINE",
"140 -126 OFFCURVE",
"186 -41 OFFCURVE",
"186 47 CURVE SMOOTH",
"186 88 OFFCURVE",
"180 123 OFFCURVE",
"178 133 CURVE",
"41 114 LINE",
"67 -11 LINE",
"16 -123 LINE",
"19 -134 LINE {name = hr00;}"
);
}
);
width = 234;
}
);
unicode = 002C;
userData = {
com.typemytype.robofont.mark = (
0.713,
0.6,
1,
1
);
};
},
{
color = 10;
glyphname = colon;
layers = (
{
layerId = "CBC04B6C-E875-491C-A1C2-2B8D0972DDA1";
paths = (
{
closed = 1;
nodes = (
"144 387 OFFCURVE",
"167 409.667 OFFCURVE",
"167 439 CURVE SMOOTH",
"167 467 OFFCURVE",
"144 491 OFFCURVE",
"116 491 CURVE SMOOTH",
"86.667 491 OFFCURVE",
"63 467 OFFCURVE",
"63 439 CURVE SMOOTH",
"63 409.667 OFFCURVE",
"86.667 387 OFFCURVE",
"116 387 CURVE SMOOTH"
);
},
{
closed = 1;
nodes = (
"144 177 OFFCURVE",
"167 199.667 OFFCURVE",
"167 229 CURVE SMOOTH",
"167 257 OFFCURVE",
"144 281 OFFCURVE",
"116 281 CURVE SMOOTH",
"86.667 281 OFFCURVE",
"63 257 OFFCURVE",
"63 229 CURVE SMOOTH",
"63 199.667 OFFCURVE",
"86.667 177 OFFCURVE",
"116 177 CURVE SMOOTH"
);
}
);
width = 230;
},
{
layerId = "682D4A5D-117B-492A-B436-118C610C28E8";
paths = (
{
closed = 1;
nodes = (
"158 253 OFFCURVE",
"188 284 OFFCURVE",
"188 320 CURVE SMOOTH",
"188 357 OFFCURVE",
"158 387 OFFCURVE",
"122 387 CURVE SMOOTH",
"85 387 OFFCURVE",
"54 357 OFFCURVE",
"54 320 CURVE SMOOTH",
"54 284 OFFCURVE",
"85 253 OFFCURVE",
"122 253 CURVE SMOOTH"
);
},
{
closed = 1;
nodes = (
"158 -9 OFFCURVE",
"188 21 OFFCURVE",
"188 58 CURVE SMOOTH",
"188 95 OFFCURVE",
"158 124 OFFCURVE",
"122 124 CURVE SMOOTH",
"85 124 OFFCURVE",
"54 95 OFFCURVE",
"54 58 CURVE SMOOTH {name = hr00;}",
"54 21 OFFCURVE",
"85 -9 OFFCURVE",
"122 -9 CURVE SMOOTH"
);
}
);
width = 241;
}
);
unicode = 003A;
userData = {
com.typemytype.robofont.mark = (
0.713,
0.6,
1,
1
);
};
},
{
color = 10;
glyphname = semicolon;
layers = (
{
layerId = "CBC04B6C-E875-491C-A1C2-2B8D0972DDA1";
paths = (
{
closed = 1;
nodes = (
"131.27 -76.348 OFFCURVE",
"163 3.188 OFFCURVE",
"163 61 CURVE SMOOTH",
"163 90.333 OFFCURVE",
"156.667 117.333 OFFCURVE",
"154 128 CURVE",
"76 115 LINE",
"99 -1 LINE",
"56 -81 LINE",
"56 -95 LINE",
"92 -113 LINE"
);
},
{
closed = 1;
nodes = (
"137 207 OFFCURVE",
"160 229.667 OFFCURVE",
"160 259 CURVE SMOOTH",
"160 287 OFFCURVE",
"137 311 OFFCURVE",
"109 311 CURVE SMOOTH",
"79.667 311 OFFCURVE",
"56 287 OFFCURVE",
"56 259 CURVE SMOOTH",
"56 229.667 OFFCURVE",
"79.667 207 OFFCURVE",
"109 207 CURVE SMOOTH"
);
}
);
width = 228;
},
{
layerId = "682D4A5D-117B-492A-B436-118C610C28E8";
paths = (
{
closed = 1;
nodes = (
"148 -126 OFFCURVE",
"194 -41 OFFCURVE",
"194 47 CURVE SMOOTH",
"194 88 OFFCURVE",
"188 123 OFFCURVE",
"186 133 CURVE",
"49 114 LINE",
"75 -11 LINE",
"24 -123 LINE",
"27 -134 LINE {name = hr00;}",
"111 -173 LINE"
);
},
{
closed = 1;
nodes = (
"162 228 OFFCURVE",
"192 259 OFFCURVE",
"192 295 CURVE SMOOTH",
"192 332 OFFCURVE",
"162 362 OFFCURVE",
"126 362 CURVE SMOOTH",
"89 362 OFFCURVE",
"58 332 OFFCURVE",
"58 295 CURVE SMOOTH",
"58 259 OFFCURVE",
"89 228 OFFCURVE",
"126 228 CURVE SMOOTH"
);
}
);
width = 248;
}
);
unicode = 003B;
userData = {
com.typemytype.robofont.mark = (
0.713,
0.6,
1,
1
);
};
},
{
color = 10;
glyphname = exclam;
layers = (
{
layerId = "CBC04B6C-E875-491C-A1C2-2B8D0972DDA1";
paths = (
{
closed = 1;
nodes = (
"153 228 LINE",
"180 653 LINE",
"159 691 LINE",
"77 679 LINE",
"95 228 LINE {name = hr00;}"
);
},
{
closed = 1;
nodes = (
"152 -3 OFFCURVE",
"176 19.667 OFFCURVE",
"176 49 CURVE SMOOTH",
"176 77 OFFCURVE",
"152 101 OFFCURVE",
"124 101 CURVE SMOOTH",
"94.667 101 OFFCURVE",
"72 77 OFFCURVE",
"72 49 CURVE SMOOTH",
"72 19.667 OFFCURVE",
"94.667 -3 OFFCURVE",
"124 -3 CURVE SMOOTH"
);
}
);
width = 253;
},
{
layerId = "682D4A5D-117B-492A-B436-118C610C28E8";
paths = (
{
closed = 1;
nodes = (
"175 247 LINE {name = hr00;}",
"223 651 LINE",
"202 689 LINE",
"58 675 LINE",
"97 247 LINE"
);
},
{
closed = 1;
nodes = (
"174 -4 OFFCURVE",
"204 26 OFFCURVE",
"204 63 CURVE SMOOTH",
"204 100 OFFCURVE",
"174 129 OFFCURVE",
"138 129 CURVE SMOOTH",
"101 129 OFFCURVE",
"70 100 OFFCURVE",
"70 63 CURVE SMOOTH",
"70 26 OFFCURVE",
"101 -4 OFFCURVE",
"138 -4 CURVE SMOOTH {name = hr01;}"
);
}
);
width = 276;
}
);
unicode = 0021;
userData = {
com.typemytype.robofont.mark = (
0.713,
0.6,
1,
1
);
};
},
{
color = 10;
glyphname = exclamdown;
layers = (
{
layerId = "CBC04B6C-E875-491C-A1C2-2B8D0972DDA1";
paths = (
{
closed = 1;
nodes = (
"173 -165 LINE",
"146 260 LINE",
"88 260 LINE {name = hr00;}",
"70 -191 LINE",
"152 -203 LINE"
);
},
{
closed = 1;
nodes = (
"145 387 OFFCURVE",
"169 411 OFFCURVE",
"169 439 CURVE SMOOTH",
"169 468.333 OFFCURVE",
"145 491 OFFCURVE",
"117 491 CURVE SMOOTH",
"87.667 491 OFFCURVE",
"65 468.333 OFFCURVE",
"65 439 CURVE SMOOTH",
"65 411 OFFCURVE",
"87.667 387 OFFCURVE",
"117 387 CURVE SMOOTH"
);
}
);
width = 239;
},
{
layerId = "682D4A5D-117B-492A-B436-118C610C28E8";
paths = (
{
closed = 1;
nodes = (
"216 -163 LINE",
"168 241 LINE {name = hr00;}",
"90 241 LINE",
"51 -187 LINE",
"195 -201 LINE"
);
},
{
closed = 1;
nodes = (
"167 359 OFFCURVE",
"197 388 OFFCURVE",
"197 425 CURVE SMOOTH",
"197 462 OFFCURVE",
"167 492 OFFCURVE",
"131 492 CURVE SMOOTH",
"94 492 OFFCURVE",
"63 462 OFFCURVE",
"63 425 CURVE SMOOTH {name = hr01;}",
"63 388 OFFCURVE",
"94 359 OFFCURVE",
"131 359 CURVE SMOOTH"
);
}
);
width = 264;
}
);
unicode = 00A1;
userData = {
com.typemytype.robofont.mark = (
0.713,
0.6,
1,
1
);
};
},
{
color = 10;
glyphname = question;
layers = (
{
layerId = "CBC04B6C-E875-491C-A1C2-2B8D0972DDA1";
paths = (
{
closed = 1;
nodes = (
"162 238 LINE",
"162 241 OFFCURVE",
"161 246 OFFCURVE",
"161 251 CURVE SMOOTH",
"161 275 OFFCURVE",
"168 315 OFFCURVE",
"213 345 CURVE SMOOTH",
"290 396 OFFCURVE",
"365 446 OFFCURVE",
"365 547 CURVE SMOOTH",
"365 626 OFFCURVE",
"316 690 OFFCURVE",
"199 690 CURVE SMOOTH",
"151 690 OFFCURVE",
"107 678 OFFCURVE",
"66 665 CURVE",
"47 522 LINE {name = hr01;}",
"98 522 LINE",
"125 618 LINE",
"144 623 OFFCURVE",
"172 627 OFFCURVE",
"192 627 CURVE SMOOTH",
"269 627 OFFCURVE",
"291 580 OFFCURVE",
"291 543 CURVE SMOOTH",
"291 399 OFFCURVE",
"102 412 OFFCURVE",
"102 266 CURVE SMOOTH",
"102 254 OFFCURVE",
"103 244 OFFCURVE",
"104 237 CURVE {name = hr00;}"
);
},
{
closed = 1;
nodes = (
"168 -3 OFFCURVE",
"191 20 OFFCURVE",
"191 49 CURVE SMOOTH",
"191 77 OFFCURVE",
"168 101 OFFCURVE",
"140 101 CURVE SMOOTH",
"111 101 OFFCURVE",
"87 77 OFFCURVE",
"87 49 CURVE SMOOTH",
"87 20 OFFCURVE",
"111 -3 OFFCURVE",
"140 -3 CURVE SMOOTH"
);
}
);
width = 397;
},
{
layerId = "682D4A5D-117B-492A-B436-118C610C28E8";
paths = (
{
closed = 1;
nodes = (
"227 236 LINE {name = hr00;}",
"227 240 OFFCURVE",
"226 244 OFFCURVE",
"226 247 CURVE SMOOTH",
"226 285 OFFCURVE",
"245 310 OFFCURVE",
"270 334 CURVE SMOOTH",
"322 384 OFFCURVE",
"401 426 OFFCURVE",
"401 551 CURVE SMOOTH",
"401 641 OFFCURVE",
"332 702 OFFCURVE",
"215 702 CURVE SMOOTH",
"146 702 OFFCURVE",
"90 685 OFFCURVE",
"48 670 CURVE",
"32 495 LINE",
"113 495 LINE",
"138 591 LINE",
"148 595 OFFCURVE",
"177 599 OFFCURVE",
"198 599 CURVE SMOOTH {name = hr01;}",
"232 599 OFFCURVE",
"264 579 OFFCURVE",
"264 534 CURVE SMOOTH",
"264 444 OFFCURVE",
"118 422 OFFCURVE",
"118 302 CURVE SMOOTH",
"118 274 OFFCURVE",
"125 242 OFFCURVE",
"128 235 CURVE"
);
},
{
closed = 1;
nodes = (
"215 -4 OFFCURVE",
"244 26 OFFCURVE",
"244 63 CURVE SMOOTH",
"244 100 OFFCURVE",
"215 129 OFFCURVE",
"178 129 CURVE SMOOTH",
"141 129 OFFCURVE",
"111 100 OFFCURVE",
"111 63 CURVE SMOOTH",
"111 26 OFFCURVE",
"141 -4 OFFCURVE",
"178 -4 CURVE SMOOTH"
);
}
);
width = 429;
}
);
unicode = 003F;
userData = {
com.typemytype.robofont.mark = (
0.713,
0.6,
1,
1
);
};
},
{
color = 10;
glyphname = questiondown;
layers = (
{
layerId = "CBC04B6C-E875-491C-A1C2-2B8D0972DDA1";
paths = (
{
closed = 1;
nodes = (
"233 -208 OFFCURVE",
"293 -200 OFFCURVE",
"324 -189 CURVE",
"343 -42 LINE {name = hr01;}",
"293 -42 LINE",
"265 -139 LINE",
"248 -143 OFFCURVE",
"219 -147 OFFCURVE",
"198 -147 CURVE SMOOTH",
"122 -147 OFFCURVE",
"100 -101 OFFCURVE",
"100 -63 CURVE SMOOTH",
"100 82 OFFCURVE",
"289 67 OFFCURVE",
"289 214 CURVE SMOOTH",
"289 226 OFFCURVE",
"288 236 OFFCURVE",
"286 243 CURVE {name = hr00;}",
"229 241 LINE",
"230 229 LINE SMOOTH",
"230 204 OFFCURVE",
"222 165 OFFCURVE",
"177 134 CURVE SMOOTH",
"126 99 OFFCURVE",
"26 31 OFFCURVE",
"26 -67 CURVE SMOOTH",
"26 -148 OFFCURVE",
"78 -208 OFFCURVE",
"195 -208 CURVE SMOOTH"
);
},
{
closed = 1;
nodes = (
"280 379 OFFCURVE",
"303 402 OFFCURVE",
"303 430 CURVE SMOOTH",
"303 461 OFFCURVE",
"280 483 OFFCURVE",
"251 483 CURVE SMOOTH",
"223 483 OFFCURVE",
"199 461 OFFCURVE",
"199 430 CURVE SMOOTH",
"199 402 OFFCURVE",
"223 379 OFFCURVE",
"251 379 CURVE SMOOTH"
);
}
);
width = 383;
},
{
layerId = "682D4A5D-117B-492A-B436-118C610C28E8";
paths = (
{
closed = 1;
nodes = (
"269 -202 OFFCURVE",
"315 -185 OFFCURVE",
"357 -170 CURVE",
"373 5 LINE",
"302 5 LINE",
"276 -90 LINE",
"268 -95 OFFCURVE",
"247 -99 OFFCURVE",
"223 -99 CURVE SMOOTH {name = hr01;}",
"186 -99 OFFCURVE",
"159 -76 OFFCURVE",
"159 -34 CURVE SMOOTH",
"159 56 OFFCURVE",
"304 64 OFFCURVE",
"304 185 CURVE SMOOTH {name = hr02;}",
"304 214 OFFCURVE",
"297 246 OFFCURVE",
"295 253 CURVE",
"195 252 LINE {name = hr00;}",
"195 243 LINE SMOOTH",
"195 203 OFFCURVE",
"171 177 OFFCURVE",
"141 151 CURVE SMOOTH",
"91 106 OFFCURVE",
"22 62 OFFCURVE",
"22 -50 CURVE SMOOTH",
"22 -130 OFFCURVE",
"83 -202 OFFCURVE",
"201 -202 CURVE SMOOTH"
);
},
{
closed = 1;
nodes = (
"282 359 OFFCURVE",
"312 388 OFFCURVE",
"312 425 CURVE SMOOTH",
"312 462 OFFCURVE",
"282 492 OFFCURVE",
"245 492 CURVE SMOOTH",
"208 492 OFFCURVE",
"179 462 OFFCURVE",
"179 425 CURVE SMOOTH {name = hr03;}",
"179 388 OFFCURVE",
"208 359 OFFCURVE",
"245 359 CURVE SMOOTH"
);
}
);
width = 407;
}
);
unicode = 00BF;
userData = {
com.typemytype.robofont.mark = (
0.713,
0.6,
1,
1
);
};
},
{
color = 10;
glyphname = periodcentered;
layers = (
{
layerId = "CBC04B6C-E875-491C-A1C2-2B8D0972DDA1";
paths = (
{
closed = 1;
nodes = (
"167 255 LINE",
"167 390 LINE",
"158 399 LINE",
"63 399 LINE {name = hr00;}",
"63 255 LINE"
);
}
);
width = 230;
},
{
layerId = "682D4A5D-117B-492A-B436-118C610C28E8";
paths = (
{
closed = 1;
nodes = (
"190 224 LINE",
"190 379 LINE",
"172 399 LINE",
"54 399 LINE",
"54 224 LINE {name = hr00;}"
);
}
);
width = 243;
}
);
unicode = 00B7;
userData = {
com.typemytype.robofont.mark = (
0.713,
0.6,
1,
1
);
};
},
{
color = 10;
glyphname = bullet;
layers = (
{
layerId = "CBC04B6C-E875-491C-A1C2-2B8D0972DDA1";
paths = (
{
closed = 1;
nodes = (
"49 341 OFFCURVE",
"84 306 OFFCURVE",
"126 306 CURVE SMOOTH",
"168 306 OFFCURVE",
"204 341 OFFCURVE",
"204 383 CURVE SMOOTH",
"204 425 OFFCURVE",
"168 461 OFFCURVE",
"126 461 CURVE SMOOTH",
"84 461 OFFCURVE",
"49 425 OFFCURVE",
"49 383 CURVE SMOOTH {name = hr00;}"
);
}
);
width = 252;
},
{
layerId = "682D4A5D-117B-492A-B436-118C610C28E8";
paths = (
{
closed = 1;
nodes = (
"35 327 OFFCURVE",
"80 282 OFFCURVE",
"136 282 CURVE SMOOTH",
"192 282 OFFCURVE",
"238 327 OFFCURVE",
"238 383 CURVE SMOOTH",
"238 439 OFFCURVE",
"192 485 OFFCURVE",
"136 485 CURVE SMOOTH",
"80 485 OFFCURVE",
"35 439 OFFCURVE",
"35 383 CURVE SMOOTH {name = hr00;}"
);
}
);
width = 273;
}
);
unicode = 2022;
userData = {
com.typemytype.robofont.mark = (
0.713,
0.6,
1,
1
);
};
},
{
color = 10;
glyphname = asterisk;
layers = (
{
layerId = "CBC04B6C-E875-491C-A1C2-2B8D0972DDA1";
paths = (
{
closed = 1;
nodes = (
"192 429 LINE",
"175 541 LINE",
"259 472 LINE",
"272 476 LINE",
"291 519 LINE",
"187 558 LINE",
"286 600 LINE",
"290 611 LINE",
"260 649 LINE",
"176 576 LINE",
"196 681 LINE",
"188 691 LINE {name = hr00;}",
"140 687 LINE",
"156 575 LINE",
"72 644 LINE",
"61 640 LINE",
"41 597 LINE",
"146 558 LINE",
"46 517 LINE",
"44 505 LINE",
"72 467 LINE",
"155 539 LINE",
"136 435 LINE",
"145 425 LINE"
);
},
{
closed = 1;
nodes = (
"159 558 LINE",
"163 564 LINE",
"169 564 LINE",
"173 558 LINE",
"170 552 LINE",
"163 552 LINE"
);
}
);
width = 332;
},
{
layerId = "682D4A5D-117B-492A-B436-118C610C28E8";
paths = (
{
closed = 1;
nodes = (
"227 421 LINE",
"206 528 LINE",
"287 459 LINE",
"319 468 LINE",
"334 532 LINE",
"225 568 LINE",
"329 602 LINE",
"339 635 LINE",
"289 679 LINE",
"206 608 LINE",
"227 712 LINE {name = hr00;}",
"204 736 LINE",
"140 715 LINE",
"161 607 LINE",
"81 677 LINE",
"48 669 LINE",
"35 602 LINE",
"137 566 LINE",
"38 533 LINE",
"27 501 LINE",
"80 456 LINE",
"161 527 LINE",
"141 424 LINE",
"164 400 LINE"
);
},
{
closed = 1;
nodes = (
"174 566 LINE",
"179 575 LINE",
"188 576 LINE",
"193 567 LINE",
"189 560 LINE",
"178 559 LINE"
);
}
);
width = 367;
}
);
unicode = 002A;
userData = {
com.typemytype.robofont.mark = (
0.713,
0.6,
1,
1
);
};
},
{
color = 10;
glyphname = numbersign;
layers = (
{
layerId = "CBC04B6C-E875-491C-A1C2-2B8D0972DDA1";
paths = (
{
closed = 1;
nodes = (
"155 48 LINE",
"219 251 LINE",
"309 251 LINE",
"250 61 LINE",
"259 48 LINE",
"308 48 LINE",
"371 251 LINE",
"515 251 LINE",
"515 296 LINE SMOOTH",
"515 300.667 OFFCURVE",
"513 303 OFFCURVE",
"509 303 CURVE SMOOTH",
"387 303 LINE",
"424 423 LINE",
"560 423 LINE",
"560 469 LINE SMOOTH",
"560 473.667 OFFCURVE",
"558 476 OFFCURVE",
"554 476 CURVE SMOOTH",
"441 476 LINE",
"497 656 LINE",
"489 670 LINE",
"440 670 LINE",
"379 476 LINE",
"290 476 LINE",
"347 656 LINE",
"339 670 LINE",
"288 670 LINE",
"227 476 LINE",
"92 476 LINE",
"85 463 LINE",
"92 423 LINE",
"210 423 LINE",
"173 303 LINE",
"37 303 LINE",
"30 291 LINE",
"37 251 LINE",
"156 251 LINE",
"97 61 LINE",
"106 48 LINE"
);
},
{
closed = 1;
nodes = (
"273 423 LINE",
"363 423 LINE",
"325 303 LINE",
"235 303 LINE"
);
}
);
width = 593;
},
{
layerId = "682D4A5D-117B-492A-B436-118C610C28E8";
paths = (
{
closed = 1;
nodes = (
"199 48 LINE",
"244 183 LINE {name = hr03;}",
"326 183 LINE",
"286 61 LINE",
"302 48 LINE {name = hr04;}",
"409 48 LINE",
"453 183 LINE {name = hr05;}",
"600 183 LINE",
"600 279 LINE SMOOTH",
"600 285 OFFCURVE",
"598 288 OFFCURVE",
"594 288 CURVE SMOOTH",
"487 288 LINE",
"526 407 LINE",
"642 407 LINE",
"642 504 LINE SMOOTH",
"642 509 OFFCURVE",
"640 512 OFFCURVE",
"636 512 CURVE SMOOTH",
"561 512 LINE",
"608 656 LINE",
"595 670 LINE",
"485 670 LINE",
"433 512 LINE",
"355 512 LINE",
"404 656 LINE {name = hr00;}",
"390 670 LINE",
"281 670 LINE",
"228 512 LINE",
"78 512 LINE",
"60 479 LINE",
"78 407 LINE",
"192 407 LINE",
"152 288 LINE",
"47 288 LINE",
"29 254 LINE",
"47 183 LINE {name = hr01;}",
"117 183 LINE",
"76 61 LINE",
"92 48 LINE {name = hr02;}"
);
},
{
closed = 1;
nodes = (
"320 407 LINE",
"399 407 LINE",
"360 288 LINE",
"280 288 LINE"
);
}
);
width = 675;
}
);
unicode = 0023;
userData = {
com.typemytype.robofont.mark = (
0.713,
0.6,
1,
1
);
};
},
{
color = 10;
glyphname = slash;
layers = (
{
layerId = "CBC04B6C-E875-491C-A1C2-2B8D0972DDA1";
paths = (
{
closed = 1;
nodes = (
"85 0 LINE {name = hr00;}",
"423 677 LINE",
"424 692 LINE",
"363 692 LINE",
"24 13 LINE",
"27 0 LINE"
);
}
);
width = 447;
},
{
layerId = "682D4A5D-117B-492A-B436-118C610C28E8";
paths = (
{
closed = 1;
nodes = (
"148 0 LINE",
"465 677 LINE {name = hr00;}",
"466 691 LINE",
"338 691 LINE",
"20 13 LINE",
"23 0 LINE"
);
}
);
width = 486;
}
);
unicode = 002F;
userData = {
com.typemytype.robofont.mark = (
0.713,
0.6,
1,
1
);
};
},
{
color = 10;
glyphname = backslash;
layers = (
{
layerId = "CBC04B6C-E875-491C-A1C2-2B8D0972DDA1";
paths = (
{
closed = 1;
nodes = (
"426 0 LINE",
"429 13 LINE",
"90 691 LINE",
"24 691 LINE",
"23 681 LINE {name = hr00;}",
"365 0 LINE"
);
}
);
width = 453;
},
{
layerId = "682D4A5D-117B-492A-B436-118C610C28E8";
paths = (
{
closed = 1;
nodes = (
"463 0 LINE",
"466 13 LINE",
"148 691 LINE",
"20 691 LINE",
"21 677 LINE",
"338 0 LINE {name = hr00;}"
);
}
);
width = 486;
}
);
unicode = 005C;
userData = {
com.typemytype.robofont.mark = (
0.713,
0.6,
1,
1
);
};
},
{
color = 10;
glyphname = parenleft;
layers = (
{
layerId = "CBC04B6C-E875-491C-A1C2-2B8D0972DDA1";
paths = (
{
closed = 1;
nodes = (
"224 -162 LINE",
"192 -83 OFFCURVE",
"125 79 OFFCURVE",
"125 291 CURVE SMOOTH",
"125 500 OFFCURVE",
"181 662 OFFCURVE",
"224 742 CURVE",
"164 742 LINE",
"121 670 OFFCURVE",
"54 510 OFFCURVE",
"54 290 CURVE SMOOTH",
"54 70 OFFCURVE",
"135 -101 OFFCURVE",
"164 -162 CURVE {name = hr00;}"
);
}
);
width = 258;
},
{
layerId = "682D4A5D-117B-492A-B436-118C610C28E8";
paths = (
{
closed = 1;
nodes = (
"282 -162 LINE {name = hr00;}",
"250 -84 OFFCURVE",
"183 81 OFFCURVE",
"183 291 CURVE SMOOTH",
"183 501 OFFCURVE",
"239 661 OFFCURVE",
"282 742 CURVE",
"156 742 LINE",
"115 671 OFFCURVE",
"47 510 OFFCURVE",
"47 290 CURVE SMOOTH",
"47 69 OFFCURVE",
"126 -100 OFFCURVE",
"156 -162 CURVE"
);
}
);
width = 310;
}
);
unicode = 0028;
userData = {
com.typemytype.robofont.mark = (
0.713,
0.6,
1,
1
);
};
},
